<svg width="64" height="64" viewBox="0 0 64 64" fill="none" xmlns="http://www.w3.org/2000/svg">
<g clip-path="url(#clip0)">
<path fill-rule="evenodd" clip-rule="evenodd" d="M62.9333 0H36.2665C35.9836 0 35.7123 0.112381 35.5123 0.312421C35.3122 0.512461 35.1999 0.783773 35.1999 1.06667V16.0001H29.8665V7.4667C29.8665 7.1838 29.7541 6.91249 29.5541 6.71245C29.354 6.51241 29.0827 6.40003 28.7998 6.40003H5.33304C5.05014 6.40003 4.77883 6.51241 4.57879 6.71245C4.37875 6.91249 4.26637 7.1838 4.26637 7.4667V22.4001C4.26637 22.683 4.37875 22.9543 4.57879 23.1544C4.77883 23.3544 5.05014 23.4668 5.33304 23.4668H21.3331V40.5335C21.3331 40.8164 21.4455 41.0877 21.6455 41.2878C21.8456 41.4878 22.1169 41.6002 22.3998 41.6002H58.6666C58.9495 41.6002 59.2208 41.4878 59.4209 41.2878C59.6209 41.0877 59.7333 40.8164 59.7333 40.5335V21.3334H62.9333C63.2162 21.3334 63.4875 21.2211 63.6876 21.021C63.8876 20.821 64 20.5497 64 20.2668V1.06667C64 0.783773 63.8876 0.512461 63.6876 0.312421C63.4875 0.112381 63.2162 0 62.9333 0ZM8.31972 21.3334L14.4584 16.3137L15.7139 17.3398C16.0956 17.6504 16.5727 17.8199 17.0648 17.8199C17.5569 17.8199 18.034 17.6504 18.4158 17.3398L19.6702 16.3137L25.8131 21.3334H8.31972ZM27.7332 20.1505L21.3555 14.9334L27.7332 9.71738V20.1505ZM17.0664 15.6886L8.31972 8.53337H25.8131L17.0664 15.6886ZM12.7773 14.9334L6.39971 20.1505V9.71738L12.7773 14.9334ZM46.4074 39.4669L44.0308 36.2252L49.0666 29.5116L56.5333 39.4669H46.4074ZM43.761 39.4669H24.5054L34.1332 26.3372L43.761 39.4669ZM57.6 37.3335L49.9199 27.0935C49.8163 26.9675 49.686 26.866 49.5384 26.7963C49.3909 26.7267 49.2298 26.6905 49.0666 26.6905C48.9034 26.6905 48.7423 26.7267 48.5947 26.7963C48.4472 26.866 48.3169 26.9675 48.2133 27.0935L42.7124 34.4279L34.994 23.903C34.8903 23.7746 34.7592 23.6709 34.6102 23.5997C34.4613 23.5285 34.2983 23.4916 34.1332 23.4916C33.9681 23.4916 33.8051 23.5285 33.6561 23.5997C33.5072 23.6709 33.3761 23.7746 33.2724 23.903L23.4665 37.2748V23.4668H28.7998C29.0827 23.4668 29.354 23.3544 29.5541 23.1544C29.7541 22.9543 29.8665 22.683 29.8665 22.4001V18.1334H35.1999V20.2668C35.1999 20.5497 35.3122 20.821 35.5123 21.021C35.7123 21.2211 35.9836 21.3334 36.2665 21.3334H57.6V37.3335ZM61.8666 19.2001H37.3332V2.13334H61.8666V19.2001ZM44.4444 28.2608C43.9182 28.6125 43.2995 28.8001 42.6666 28.8001C41.8179 28.8001 41.004 28.463 40.4038 27.8629C39.8037 27.2628 39.4666 26.4488 39.4666 25.6001C39.4666 24.9672 39.6543 24.3485 40.0059 23.8223C40.3575 23.2961 40.8573 22.8859 41.442 22.6437C42.0267 22.4015 42.6701 22.3381 43.2909 22.4616C43.9116 22.5851 44.4818 22.8898 44.9293 23.3374C45.3769 23.7849 45.6816 24.3551 45.8051 24.9758C45.9286 25.5966 45.8652 26.24 45.623 26.8247C45.3808 27.4094 44.9707 27.9092 44.4444 28.2608ZM43.2592 24.7132C43.0838 24.596 42.8776 24.5335 42.6666 24.5335C42.3837 24.5335 42.1124 24.6458 41.9123 24.8459C41.7123 25.0459 41.5999 25.3172 41.5999 25.6001C41.5999 25.8111 41.6625 26.0173 41.7797 26.1927C41.8969 26.3682 42.0635 26.5049 42.2584 26.5856C42.4533 26.6663 42.6678 26.6875 42.8747 26.6463C43.0816 26.6051 43.2717 26.5036 43.4208 26.3544C43.57 26.2052 43.6716 26.0151 43.7128 25.8082C43.7539 25.6013 43.7328 25.3868 43.6521 25.1919C43.5713 24.997 43.4346 24.8304 43.2592 24.7132ZM60.5054 43.7735C61.5969 44.0674 62.5275 44.7816 63.0936 45.76C63.6558 46.7397 63.8076 47.902 63.5158 48.9931C63.2241 50.0843 62.5124 51.0157 61.5363 51.584L43.6162 61.9308C42.4827 62.5902 41.1942 62.9363 39.8829 62.9334H23.9148C22.756 62.9306 21.6135 62.6605 20.5761 62.1441L19.2001 61.4614V61.8668C19.2001 62.1497 19.0877 62.421 18.8877 62.621C18.6876 62.821 18.4163 62.9334 18.1334 62.9334H14.9334C14.9334 63.2163 14.821 63.4876 14.621 63.6877C14.4209 63.8877 14.1496 64.0001 13.8667 64.0001H1.06667C0.783773 64.0001 0.512461 63.8877 0.312421 63.6877C0.112381 63.4876 0 63.2163 0 62.9334V43.7333C0 43.4504 0.112381 43.1791 0.312421 42.9791C0.512461 42.779 0.783773 42.6667 1.06667 42.6667H13.8667C14.1496 42.6667 14.4209 42.779 14.621 42.9791C14.821 43.1791 14.9334 43.4504 14.9334 43.7333H18.1334C18.4163 43.7333 18.6876 43.8457 18.8877 44.0458C19.0877 44.2458 19.2001 44.5171 19.2001 44.8V45.568L24.8001 44.1707C26.0303 43.8611 27.3194 43.8722 28.5441 44.2027L44.4589 48.4587C45.4456 48.729 46.3016 49.3464 46.8696 50.1974L57.2696 44.192C58.2504 43.6301 59.4139 43.4797 60.5054 43.7735ZM2.13334 61.8668H12.8001V44.8H2.13334V61.8668ZM14.9334 60.8001H17.0667V45.8667H14.9334V60.8001ZM42.5495 60.0854L60.4696 49.7387C60.9568 49.4537 61.3112 48.9872 61.4552 48.4413C61.5991 47.8955 61.5209 47.3149 61.2376 46.8267C60.9496 46.3458 60.4859 45.9957 59.9445 45.8504C59.4031 45.7051 58.8264 45.776 58.3363 46.048L47.5949 52.2454C47.6355 52.7286 47.5959 53.2151 47.4776 53.6854C47.3333 54.228 47.0826 54.7365 46.7402 55.1815C46.3978 55.6264 45.9704 55.9989 45.4829 56.2774C44.8395 56.6556 44.1065 56.8545 43.3602 56.8534C42.9855 56.8517 42.6127 56.8015 42.2509 56.7041L29.5255 53.3014C29.2511 53.2278 29.0171 53.0483 28.8751 52.8022C28.7331 52.5562 28.6946 52.2638 28.7681 51.9894C28.8417 51.715 29.0212 51.481 29.2673 51.339C29.5133 51.197 29.8057 51.1585 30.0801 51.232L42.8055 54.6454C43.0746 54.7197 43.3559 54.7391 43.6326 54.7025C43.9093 54.6658 44.1758 54.5739 44.4162 54.432C44.7844 54.2238 45.082 53.9102 45.2708 53.5317C45.4597 53.1532 45.5312 52.7269 45.4762 52.3075C45.4212 51.888 45.2422 51.4946 44.9621 51.1775C44.682 50.8605 44.3137 50.6343 43.9042 50.528L27.9895 46.2613C27.1136 46.025 26.1917 46.0176 25.3121 46.24L19.2001 47.7654V59.0721L21.5254 60.2347C22.2665 60.6081 23.085 60.8018 23.9148 60.8001H39.8829C40.8192 60.8009 41.7391 60.5544 42.5495 60.0854ZM45.8187 15.9998C45.637 15.9916 45.4605 15.9371 45.3058 15.8414C45.1511 15.7458 45.0235 15.6122 44.935 15.4533C44.8465 15.2944 44.8001 15.1155 44.8002 14.9337V6.40032C44.8001 6.21848 44.8465 6.03963 44.935 5.88077C45.0235 5.72191 45.1511 5.58831 45.3058 5.49265C45.4604 5.397 45.637 5.34247 45.8186 5.33424C46.0003 5.32601 46.181 5.36436 46.3437 5.44565L54.8771 9.71233C55.0546 9.8008 55.2039 9.937 55.3083 10.1056C55.4126 10.2743 55.4679 10.4687 55.4679 10.667C55.4679 10.8653 55.4126 11.0597 55.3083 11.2284C55.2039 11.397 55.0546 11.5332 54.8771 11.6217L46.3437 15.8884C46.181 15.9697 46.0003 16.008 45.8187 15.9998ZM52.0152 10.667L46.9336 8.12619V13.2078L52.0152 10.667Z" fill="#2A6DBA"/>
</g>
<defs>
<clipPath id="clip0">
<rect width="64" height="64" fill="white"/>
</clipPath>
</defs>
</svg>
