<svg width="64" height="64" viewBox="0 0 64 64" fill="none" xmlns="http://www.w3.org/2000/svg">
<g clip-path="url(#clip0)">
<path fill-rule="evenodd" clip-rule="evenodd" d="M61.3587 22.2678L63.784 42.9841C64.0349 45.1283 63.6676 47.2491 62.7499 48.9555C61.7198 50.8716 60.0841 52.1766 58.0199 52.7296C55.9557 53.2826 53.7973 52.9813 51.9426 51.8816C50.1542 50.8211 48.7956 49.1125 48.1169 47.0709L45.9601 40.5813H45.4521C44.8939 42.7418 42.9283 44.3424 40.5959 44.3424C38.2635 44.3424 36.298 42.7418 35.7398 40.5813H28.121C27.5629 42.7418 25.5972 44.3424 23.2648 44.3424C20.9325 44.3424 18.9669 42.7418 18.4088 40.5813H17.9007L15.7438 47.0709C15.0653 49.1125 13.7067 50.8211 11.9183 51.8816C10.6702 52.6215 9.28501 53 7.88338 53C7.20175 53 6.51636 52.9105 5.84099 52.7296C3.77691 52.1764 2.14121 50.8715 1.1108 48.9555C0.193221 47.2489 -0.173986 45.1283 0.077004 42.9841L2.50203 22.2678C3.09026 17.2443 7.97139 13 13.1611 13H50.6997C55.8894 13 60.7706 17.2443 61.3587 22.2678ZM20.7574 39.3275C20.7574 40.71 21.8823 41.835 23.2648 41.835C24.6475 41.835 25.7723 40.71 25.7723 39.3275C25.7723 37.9449 24.6474 36.8201 23.2648 36.8201C21.8823 36.8201 20.7574 37.9449 20.7574 39.3275ZM38.0886 39.3275C38.0886 40.71 39.2135 41.835 40.596 41.835C41.9786 41.835 43.1035 40.71 43.1035 39.3275C43.1035 37.9449 41.9786 36.8201 40.596 36.8201C39.2135 36.8201 38.0886 37.9449 38.0886 39.3275ZM50.4963 46.2799C51.5176 49.3526 54.4727 51.0841 57.371 50.3076C60.5496 49.4559 61.6314 46.1622 61.2934 43.2756L58.8681 22.5594C58.4285 18.8027 54.6113 15.5074 50.6997 15.5074H41.3331V21.7757C41.3331 23.8496 39.6459 25.5368 37.572 25.5368C36.8796 25.5368 36.3181 24.9754 36.3181 24.2831C36.3181 23.5908 36.8793 23.0294 37.5716 23.0294H37.572C38.2633 23.0294 38.8257 22.467 38.8257 21.7757V15.5074H25.0354V21.7757C25.0354 22.4669 25.5977 23.0293 26.2889 23.0294C26.9812 23.0296 27.5424 23.591 27.5423 24.2834C27.5422 24.9757 26.9808 25.5368 26.2886 25.5368H26.2884C24.2149 25.5364 22.528 23.8492 22.528 21.7757V15.5074H13.1613C9.24966 15.5074 5.43254 18.8027 4.99287 22.5594L2.56772 43.2757C2.22972 46.1622 3.31154 49.4559 6.49015 50.3076C9.38757 51.0836 12.3434 49.3526 13.3647 46.2799L15.8067 38.9322C15.977 38.4198 16.4563 38.0739 16.9964 38.0739H18.4089C18.9669 35.9134 20.9326 34.3127 23.265 34.3127C25.5975 34.3127 27.563 35.9134 28.1211 38.0739H35.74C36.298 35.9134 38.2637 34.3127 40.596 34.3127C42.9285 34.3127 44.8941 35.9134 45.4522 38.0739H46.8646C47.4046 38.0739 47.884 38.4198 48.0543 38.9322L50.4963 46.2799ZM13.9151 20.5231C15.9889 20.5231 17.6761 22.2104 17.6763 24.2842C19.7501 24.2842 21.4372 25.9714 21.4372 28.0453C21.4372 30.1192 19.7501 31.8064 17.6763 31.8064H17.6761C17.6761 33.8802 15.9889 35.5675 13.9151 35.5675C11.8412 35.5675 10.154 33.8802 10.154 31.8064C8.08011 31.8064 6.39289 30.1192 6.39289 28.0453C6.39289 25.9714 8.08011 24.2842 10.154 24.2842C10.154 22.2104 11.8412 20.5231 13.9151 20.5231ZM16.4224 29.299H17.6763C18.3675 29.299 18.9298 28.7366 18.9298 28.0453C18.9298 27.354 18.3675 26.7916 17.6763 26.7916H16.4224C15.7302 26.7916 15.1687 26.2302 15.1687 25.5379V24.2842C15.1687 23.5929 14.6063 23.0305 13.9151 23.0305C13.2238 23.0305 12.6614 23.5929 12.6614 24.2842V25.5379C12.6614 26.2302 12.1 26.7916 11.4077 26.7916H10.154C9.46268 26.7916 8.90028 27.354 8.90028 28.0453C8.90028 28.7366 9.46268 29.299 10.154 29.299H11.4077C12.1 29.299 12.6614 29.8604 12.6614 30.5527V31.8064C12.6614 32.4977 13.2238 33.0601 13.9151 33.0601C14.6063 33.0601 15.1687 32.4977 15.1687 31.8064V30.5527C15.1687 29.8604 15.7302 29.299 16.4224 29.299ZM53.7074 24.2842C53.7074 22.2104 52.0202 20.5231 49.9464 20.5231C47.8725 20.5231 46.1853 22.2104 46.1853 24.2842C44.1114 24.2842 42.4242 25.9714 42.4242 28.0453C42.4242 30.1192 44.1114 31.8064 46.1853 31.8064C46.1853 33.8802 47.8725 35.5675 49.9464 35.5675C52.0202 35.5675 53.7074 33.8802 53.7074 31.8064C55.7813 31.8064 57.4685 30.1192 57.4685 28.0453C57.4685 25.9714 55.7813 24.2842 53.7074 24.2842ZM53.7074 29.299H52.4537C51.7615 29.299 51.2 29.8604 51.2 30.5527V31.8064C51.2 32.4977 50.6376 33.0601 49.9464 33.0601C49.2551 33.0601 48.6927 32.4977 48.6927 31.8064V30.5527C48.6927 29.8604 48.1313 29.299 47.439 29.299H46.1853C45.494 29.299 44.9316 28.7366 44.9316 28.0453C44.9316 27.354 45.494 26.7916 46.1853 26.7916H47.439C48.1313 26.7916 48.6927 26.2302 48.6927 25.5379V24.2842C48.6927 23.5929 49.2551 23.0305 49.9464 23.0305C50.6376 23.0305 51.2 23.5929 51.2 24.2842V25.5379C51.2 26.2302 51.7615 26.7916 52.4537 26.7916H53.7074C54.3987 26.7916 54.9611 27.354 54.9611 28.0453C54.9611 28.7366 54.3986 29.299 53.7074 29.299ZM28.3202 28.0447H35.5414C36.2338 28.0447 36.7951 28.6061 36.7951 29.2984C36.7951 29.9907 36.2337 30.5521 35.5414 30.5521H28.3202C27.6279 30.5521 27.0665 29.9907 27.0665 29.2984C27.0665 28.6061 27.6279 28.0447 28.3202 28.0447ZM33.4958 33.0591H30.3653C29.673 33.0591 29.1116 33.6205 29.1116 34.3128C29.1116 35.0051 29.673 35.5665 30.3653 35.5665H33.4958C34.188 35.5665 34.7495 35.0051 34.7495 34.3128C34.7495 33.6205 34.188 33.0591 33.4958 33.0591ZM33.1842 24.283C33.1842 24.9753 32.6228 25.5367 31.9305 25.5367C31.2382 25.5367 30.6764 24.9753 30.6764 24.283C30.6764 23.5907 31.2373 23.0293 31.9296 23.0293H31.9305C32.6228 23.0293 33.1842 23.5907 33.1842 24.283Z" fill="#2A6DBA"/>
</g>
<defs>
<clipPath id="clip0">
<rect width="64" height="64" fill="white"/>
</clipPath>
</defs>
</svg>
