<svg width="32" height="32" viewBox="0 0 32 32" fill="none" xmlns="http://www.w3.org/2000/svg">
<path fill-rule="evenodd" clip-rule="evenodd" d="M27.7475 24.5074C27.8745 24.8299 27.945 25.1574 27.945 25.5239C27.945 26.8229 27.067 27.8739 25.8765 28.1999C26.658 30.1844 25.087 31.9684 23.0705 31.9684H16.9495C13.3975 31.9684 11.0235 31.2544 9.01747 30.6394V16.5224C10.522 15.9199 11.238 15.5244 12.307 14.4494C13.896 12.8514 14.8455 8.91889 14.8455 6.74339C14.8455 6.22339 15.264 5.79089 15.781 5.79089H16.5535C18.6765 5.79089 20.435 7.57989 20.459 9.71489C20.474 11.0044 20.141 14.3489 19.521 15.3559H26.816C28.277 15.3559 29.633 16.3234 29.798 17.7829C29.894 18.6319 29.612 19.3734 29.1 19.9479C30.4925 21.5119 29.754 23.9579 27.7475 24.5074ZM25.138 7.80489H23.267C22.7495 7.80489 22.331 7.31789 22.331 6.79789C22.331 6.27789 22.7495 5.79089 23.267 5.79089H25.138C25.6555 5.79089 26.0735 6.27789 26.074 6.79789C26.074 7.31789 25.6555 7.80489 25.138 7.80489ZM21.2965 3.34939C21.0665 3.81089 20.5075 4.00339 20.041 3.77039C19.579 3.53789 19.3915 2.97289 19.6225 2.50789L20.5585 0.626393C20.7895 0.161393 21.353 -0.0251066 21.814 0.205393C22.276 0.437893 22.4635 1.00289 22.232 1.46789L21.2965 3.34939ZM15.264 3.77039C14.7985 4.00289 14.2395 3.81289 14.0085 3.34939L13.073 1.46789C12.842 1.00289 13.029 0.437893 13.4915 0.205393C13.9535 -0.0251066 14.514 0.161393 14.747 0.626393L15.6825 2.50789C15.914 2.97289 15.7265 3.53789 15.264 3.77039ZM12.0385 7.80489H10.167C9.64997 7.80489 9.23097 7.31789 9.23097 6.79789C9.23097 6.27789 9.64997 5.79089 10.167 5.79089H12.0385C12.5555 5.79089 12.974 6.27789 12.974 6.79789C12.974 7.31789 12.5555 7.80489 12.0385 7.80489ZM6.37197 31.9684H2.67097C2.15997 31.9684 1.99597 31.7354 1.99597 31.2159V16.1629C1.99597 15.6434 2.15997 15.3559 2.67097 15.3559H6.37197C6.88297 15.3559 7.51247 15.6434 7.51247 16.1629V31.2159C7.51247 31.7354 6.88297 31.9684 6.37197 31.9684Z" fill="#2A6DBA"/>
</svg>
