<svg width="64" height="64" viewBox="0 0 64 64" fill="none" xmlns="http://www.w3.org/2000/svg">
<g clip-path="url(#clip0)">
<path fill-rule="evenodd" clip-rule="evenodd" d="M20.7985 18.1588L25.7969 13.8816C26.7731 19.1359 31.2628 23.1719 36.7272 23.4513C36.9289 23.4619 37.131 23.4672 37.3333 23.4672C37.541 23.4672 37.7485 23.4616 37.9555 23.4505C39.9767 23.3443 41.8641 22.7242 43.4891 21.7186L48.2766 28.102C43.2168 29.4045 39.4667 34.0063 39.4667 39.4667C39.4667 40.7944 39.6884 42.0712 40.0967 43.2623L35.805 46.4807C33.7848 42.9319 29.9671 40.5333 25.6001 40.5333C19.4904 40.5333 14.4558 45.2282 13.9148 51.1995H8.39822C7.92335 49.3614 6.25137 48 4.26663 48C1.91363 48 0 49.9136 0 52.2666C0 54.6196 1.91363 56.5333 4.26663 56.5333C6.25174 56.5333 7.92399 55.1714 8.39849 53.3327H13.9147C14.4481 59.2279 19.3615 63.8793 25.3655 63.9977C25.4435 63.9993 25.5216 64.0001 25.5997 64.0001C25.6711 64.0001 25.7425 63.9994 25.8138 63.9981C31.2875 63.8997 35.8586 60.0337 37.0379 54.8894L43.9991 58.2501C43.8273 58.7122 43.7333 59.212 43.7333 59.7333C43.7333 62.0863 45.6468 64.0001 48 64.0001C50.3531 64.0001 52.2666 62.0864 52.2666 59.7334C52.2666 57.3804 50.3531 55.4667 48 55.4667C46.9487 55.4667 45.9852 55.8486 45.2409 56.481L37.3269 52.6603C37.3313 52.5296 37.3334 52.3983 37.3334 52.2666C37.3334 50.9393 37.1119 49.6628 36.7038 48.472L40.9956 45.2535C43.0159 48.8019 46.8334 51.2001 51.2001 51.2001C57.6694 51.2001 62.9334 45.9361 62.9334 39.4667C62.9334 32.9973 57.6694 27.7333 51.2001 27.7333C51.024 27.7333 50.8489 27.7372 50.6747 27.7449L45.1937 20.437C47.4264 18.4186 48.8818 15.5554 49.0501 12.3572L55.7328 15.5835C55.5609 16.0457 55.4669 16.5457 55.4669 17.0672C55.4669 19.4202 57.3806 21.3338 59.7336 21.3338C62.0866 21.3338 64.0002 19.4203 64.0002 17.0672C64.0002 14.7141 62.0866 12.8005 59.7336 12.8005C58.6825 12.8005 57.7192 13.1823 56.9749 13.8145L48.928 9.92962C48.0576 4.31335 43.1892 0 37.3331 0C31.0309 0 25.8725 4.99557 25.6102 11.2345L19.2969 16.6368C17.5082 15.125 15.2626 14.1377 12.7999 13.9147V8.39843C14.6385 7.92382 16.0002 6.25156 16.0002 4.26663C16.0003 1.91363 14.0867 0 11.7337 0C9.38055 0 7.46693 1.91363 7.46693 4.26663C7.46693 6.25146 8.82841 7.92351 10.6667 8.39829V13.9147C4.69518 14.4555 0 19.4902 0 25.6001C0 31.8662 4.93847 37.0015 11.1274 37.318C11.3291 37.3286 11.5312 37.3339 11.7336 37.3339C11.9415 37.3339 12.1492 37.3283 12.3564 37.3171C17.849 37.0283 22.3533 32.9438 23.2885 27.6445L28.081 31.3799C27.8573 31.8976 27.7333 32.4681 27.7333 33.0672C27.7333 35.4203 29.647 37.3338 32 37.3338C34.3531 37.3338 36.2666 35.4202 36.2666 33.0672C36.2666 30.7141 34.3531 28.8005 32 28.8005C31.0175 28.8005 30.1116 29.1341 29.3897 29.694L23.4549 25.0684C23.3376 22.4528 22.3598 20.0573 20.7985 18.1588ZM11.7611 6.39983C11.7518 6.3996 11.7426 6.39948 11.7333 6.39948C11.7241 6.39948 11.7149 6.39959 11.7057 6.39983C10.542 6.38479 9.6003 5.43391 9.6003 4.26663C9.6003 3.09013 10.5571 2.13325 11.7337 2.13325C12.9102 2.13325 13.8671 3.09 13.8671 4.26663C13.8669 5.43411 12.925 6.38512 11.7611 6.39983ZM16.0001 52.2803C16.004 55.112 17.24 57.6601 19.1997 59.4162V58.6827C19.1997 56.9099 20.6825 55.4667 22.5054 55.4667H28.6941C30.5171 55.4667 31.9998 56.9099 31.9998 58.6838V59.4167C33.963 57.6578 35.2001 55.1041 35.2001 52.2666C35.2001 46.9727 30.8939 42.6666 25.6001 42.6666C20.3111 42.6666 16.008 46.9648 16.0001 52.2519L16.0001 52.2661L16.0001 52.2803ZM27.7332 11.6841C27.7347 11.7164 27.7347 11.7488 27.7332 11.7812C27.747 14.5995 28.9812 17.1344 30.9333 18.8835V18.1499C30.9333 16.3771 32.4161 14.9339 34.239 14.9339H40.4277C42.2506 14.9339 43.7333 16.377 43.7333 18.151V18.8831C45.6963 17.1241 46.9331 14.5706 46.9331 11.7334C46.9331 6.43951 42.627 2.13338 37.3331 2.13338C32.0557 2.13338 27.7599 6.41278 27.7332 11.6841ZM59.7336 19.2005C58.5571 19.2005 57.6002 18.2438 57.6002 17.0672C57.6002 15.8906 58.5569 14.9338 59.7336 14.9338C60.9102 14.9338 61.8669 15.8905 61.8669 17.0672C61.8668 18.2438 60.9101 19.2005 59.7336 19.2005ZM4.26663 54.4C3.09013 54.4 2.13325 53.4433 2.13325 52.2666C2.13325 51.09 3.09 50.1333 4.26663 50.1333C5.44313 50.1333 6.40001 51.09 6.40001 52.2666C6.40001 53.4433 5.44326 54.4 4.26663 54.4ZM48 61.8667C46.8235 61.8667 45.8666 60.9099 45.8666 59.7333C45.8666 58.5567 46.8235 57.6 48 57.6C49.1765 57.6 50.1333 58.5568 50.1333 59.7334C50.1333 60.91 49.1765 61.8667 48 61.8667ZM2.13338 25.6001C2.13338 28.4375 3.37043 30.9912 5.33359 32.7501V32.0165C5.33359 30.2438 6.81635 28.8005 8.63922 28.8005H14.828C16.6509 28.8005 18.1336 30.2438 18.1336 32.0177V32.7497C20.0941 30.9929 21.3304 28.4435 21.3334 25.6104L21.3334 25.5878C21.3267 20.2995 17.0232 16 11.7334 16C6.43951 16 2.13338 20.3062 2.13338 25.6001ZM32 35.2005C30.8235 35.2005 29.8666 34.2438 29.8666 33.0672C29.8666 31.8906 30.8233 30.9338 32 30.9338C33.1765 30.9338 34.1333 31.8905 34.1333 33.0672C34.1333 34.2438 33.1765 35.2005 32 35.2005ZM57.6003 45.8838V46.6163C59.5632 44.8573 60.8001 42.3038 60.8001 39.4666C60.8001 34.1727 56.4939 29.8666 51.2001 29.8666C45.9062 29.8666 41.6 34.1727 41.6 39.4666C41.6 42.304 42.8371 44.8577 44.8003 46.6167V45.8827C44.8003 44.1099 46.283 42.6667 48.1059 42.6667H54.2946C56.1176 42.6667 57.6003 44.1099 57.6003 45.8838ZM46.9336 36.2666C46.9336 33.9136 48.8471 32 51.2002 32C53.5533 32 55.4669 33.9136 55.4669 36.2666C55.4669 38.6196 53.5533 40.5333 51.2002 40.5333C48.8472 40.5333 46.9336 38.6198 46.9336 36.2666ZM49.0668 36.2666C49.0668 37.4433 50.0237 38.4 51.2002 38.4C52.3767 38.4 53.3336 37.4433 53.3336 36.2666C53.3336 35.09 52.3767 34.1333 51.2002 34.1333C50.0236 34.1333 49.0668 35.0901 49.0668 36.2666ZM55.4669 48.0587C52.812 49.3813 49.5885 49.3813 46.9335 48.0587V45.8838C46.9335 45.2864 47.4594 44.8 48.1058 44.8H54.2945C54.9409 44.8 55.4668 45.2864 55.4668 45.8838V48.0587H55.4669ZM25.6 44.8005C23.2468 44.8005 21.3333 46.7141 21.3333 49.0672C21.3333 51.4203 23.247 53.3338 25.6 53.3338C27.953 53.3338 29.8666 51.4202 29.8666 49.0672C29.8666 46.7141 27.9531 44.8005 25.6 44.8005ZM25.6 51.2005C24.4235 51.2005 23.4666 50.2438 23.4666 49.0672C23.4666 47.8906 24.4233 46.9338 25.6 46.9338C26.7765 46.9338 27.7333 47.8905 27.7333 49.0672C27.7333 50.2438 26.7765 51.2005 25.6 51.2005ZM21.333 60.8587C23.988 62.1813 27.2114 62.1813 29.8664 60.8587H29.8663V58.6838C29.8663 58.0864 29.3404 57.6 28.694 57.6H22.5052C21.8589 57.6 21.333 58.0864 21.333 58.6838V60.8587ZM7.46693 22.4C7.46693 20.047 9.38043 18.1333 11.7336 18.1333C14.0866 18.1333 16.0002 20.047 16.0002 22.4C16.0002 24.753 14.0867 26.6666 11.7336 26.6666C9.38055 26.6666 7.46693 24.753 7.46693 22.4ZM9.60018 22.4C9.60018 23.5766 10.5571 24.5333 11.7336 24.5333C12.9101 24.5333 13.8669 23.5766 13.8669 22.4C13.8669 21.2233 12.9101 20.2666 11.7336 20.2666C10.5569 20.2666 9.60018 21.2233 9.60018 22.4ZM16.0002 34.1925C13.3454 35.5152 10.1219 35.5152 7.46685 34.1925V32.0177C7.46685 31.4203 7.99272 30.9339 8.6391 30.9339H14.8279C15.4742 30.9339 16.0001 31.4203 16.0001 32.0177V34.1925H16.0002ZM37.3336 4.26667C34.9804 4.26667 33.0669 6.18029 33.0669 8.5333C33.0669 10.8863 34.9806 12.7999 37.3336 12.7999C39.6866 12.7999 41.6002 10.8864 41.6002 8.53342C41.6002 6.18042 39.6866 4.26667 37.3336 4.26667ZM37.3336 10.6667C36.1571 10.6667 35.2002 9.70992 35.2002 8.5333C35.2002 7.3568 36.1569 6.39992 37.3336 6.39992C38.5102 6.39992 39.4669 7.35667 39.4669 8.5333C39.4668 9.70992 38.5101 10.6667 37.3336 10.6667ZM33.0666 20.3259C35.7216 21.6485 38.9451 21.6485 41.6 20.3259H41.5998V18.151C41.5998 17.5536 41.074 17.0672 40.4276 17.0672H34.2388C33.5925 17.0672 33.0666 17.5536 33.0666 18.151V20.3259Z" fill="#2A6DBA"/>
</g>
<defs>
<clipPath id="clip0">
<rect width="64" height="64" fill="white"/>
</clipPath>
</defs>
</svg>
