<svg width="64" height="64" viewBox="0 0 64 64" fill="none" xmlns="http://www.w3.org/2000/svg">
<g clip-path="url(#clip0)">
<path fill-rule="evenodd" clip-rule="evenodd" d="M5.33542 14.9334H26.6688C26.9517 14.9334 27.2231 14.821 27.4231 14.621C27.6231 14.4209 27.7355 14.1496 27.7355 13.8667V1.06667C27.7355 0.783773 27.6231 0.51246 27.4231 0.312421C27.2231 0.112381 26.9517 0 26.6688 0H5.33542C5.05252 0 4.78121 0.112381 4.58117 0.312421C4.38113 0.51246 4.26875 0.783773 4.26875 1.06667V13.8667C4.26875 14.1496 4.38113 14.4209 4.58117 14.621C4.78121 14.821 5.05252 14.9334 5.33542 14.9334ZM7.68209 12.8001L12.8021 6.95363L17.5083 12.3318C17.5109 12.3345 17.5125 12.3374 17.5141 12.3403C17.5157 12.3433 17.5173 12.3462 17.52 12.3489L17.5285 12.3553L17.9221 12.8001H7.68209ZM20.7488 12.8001L19.7355 11.6395L21.3355 10.0395L24.0939 12.8001H20.7488ZM6.40209 2.13334H25.6022V11.2918L22.0896 7.77923C21.8896 7.57926 21.6183 7.46693 21.3355 7.46693C21.0526 7.46693 20.7814 7.57926 20.5814 7.77923L18.3296 10.0267L13.6043 4.62615C13.5013 4.51744 13.3772 4.43085 13.2397 4.37168C13.1022 4.3125 12.954 4.28199 12.8043 4.28199C12.6545 4.28199 12.5064 4.3125 12.3688 4.37168C12.2313 4.43085 12.1072 4.51744 12.0042 4.62615L6.40209 11.0283V2.13334ZM61.8689 26.6673C61.8659 29.2473 61.2397 31.7885 60.0435 34.0745C58.8473 36.3605 57.1165 38.3237 54.9985 39.7969C54.7731 39.9611 54.6209 40.2069 54.5746 40.4818C54.5282 40.7568 54.5913 41.0389 54.7504 41.2679C54.9095 41.4969 55.152 41.6544 55.4258 41.7069C55.6996 41.7593 55.9831 41.7024 56.2156 41.5484C58.6178 39.8807 60.5806 37.6562 61.9362 35.0649C63.2918 32.4737 63.9998 29.5928 63.9998 26.6683C63.9998 23.7439 63.2918 20.863 61.9362 18.2718C60.5806 15.6805 58.6178 13.456 56.2156 11.7883C56.1006 11.7083 55.9709 11.6517 55.8341 11.6219C55.6972 11.592 55.5558 11.5893 55.4179 11.6141C55.28 11.6389 55.1484 11.6905 55.0305 11.7662C54.9126 11.8418 54.8107 11.9399 54.7308 12.055C54.6508 12.17 54.5942 12.2996 54.5643 12.4364C54.5344 12.5733 54.5318 12.7147 54.5566 12.8526C54.5813 12.9905 54.633 13.1221 54.7086 13.24C54.7843 13.3579 54.8824 13.4598 54.9974 13.5398C57.1154 15.0127 58.8462 16.9755 60.0425 19.2611C61.2389 21.5467 61.8655 24.0875 61.8689 26.6673ZM51.9703 16.6546C53.6896 17.6994 55.111 19.1693 56.0973 20.9229C57.0837 22.6764 57.6018 24.6544 57.6018 26.6664C57.6018 28.6783 57.0837 30.6563 56.0973 32.4098C55.111 34.1634 53.6896 35.6334 51.9703 36.6781C51.8481 36.7497 51.7414 36.8449 51.6564 36.9582C51.5714 37.0714 51.5099 37.2005 51.4753 37.3378C51.4407 37.475 51.4337 37.6179 51.4549 37.7579C51.4761 37.8979 51.5249 38.0322 51.5985 38.1532C51.6722 38.2741 51.7691 38.3792 51.8838 38.4622C51.9985 38.5453 52.1285 38.6047 52.2664 38.637C52.4042 38.6693 52.5471 38.6738 52.6868 38.6503C52.8264 38.6268 52.9599 38.5757 53.0796 38.5C55.1118 37.265 56.7916 35.5275 57.9574 33.4549C59.1232 31.3823 59.7356 29.0444 59.7356 26.6664C59.7356 24.2884 59.1232 21.9505 57.9574 19.8778C56.7916 17.8052 55.1118 16.0677 53.0796 14.8327C52.9599 14.7571 52.8264 14.706 52.6868 14.6825C52.5471 14.6589 52.4042 14.6634 52.2664 14.6957C52.1285 14.728 51.9985 14.7874 51.8838 14.8705C51.7691 14.9536 51.6722 15.0586 51.5985 15.1796C51.5249 15.3005 51.4761 15.4349 51.4549 15.5749C51.4337 15.7149 51.4407 15.8577 51.4753 15.995C51.5099 16.1323 51.5714 16.2613 51.6564 16.3746C51.7414 16.4878 51.8481 16.583 51.9703 16.6546ZM52.1367 22.6173C51.3576 21.4104 50.247 20.4539 48.9379 19.8624L48.9347 19.8634C48.677 19.7466 48.4763 19.5322 48.3767 19.2673C48.277 19.0025 48.2867 18.7089 48.4035 18.4512C48.5204 18.1934 48.7348 17.9927 48.9997 17.8931C49.2645 17.7934 49.5581 17.8031 49.8158 17.92C51.4979 18.6809 52.9249 19.9107 53.9258 21.4621C54.9267 23.0134 55.4591 24.8205 55.4591 26.6667C55.4591 28.5129 54.9267 30.3199 53.9258 31.8713C52.9249 33.4226 51.4979 34.6524 49.8158 35.4134C49.6789 35.4761 49.5302 35.5088 49.3795 35.5094C49.1356 35.5098 48.8989 35.4265 48.7089 35.2735C48.5188 35.1205 48.387 34.907 48.3354 34.6685C48.2837 34.4301 48.3153 34.1812 48.425 33.9632C48.5347 33.7453 48.7157 33.5716 48.9379 33.471C50.247 32.8795 51.3576 31.9229 52.1367 30.716C52.9157 29.5091 53.3301 28.1031 53.3301 26.6667C53.3301 25.2302 52.9157 23.8242 52.1367 22.6173ZM46.9358 21.4399V12.7999C46.9358 12.517 46.8234 12.2457 46.6234 12.0456C46.4234 11.8456 46.1521 11.7332 45.8691 11.7332H41.6025C41.4355 11.7342 41.2711 11.7744 41.1225 11.8505L26.4131 19.1999H16.0024C15.7195 19.1999 15.4481 19.3123 15.2481 19.5123C15.0481 19.7124 14.9357 19.9837 14.9357 20.2666H12.8023C11.1049 20.2666 9.47707 20.9409 8.27683 22.1411C7.0766 23.3413 6.40231 24.9692 6.40231 26.6666C6.40231 28.364 7.0766 29.9919 8.27683 31.1921C9.47707 32.3924 11.1049 33.0666 12.8023 33.0666H14.9357C14.9357 33.3495 15.0481 33.6208 15.2481 33.8209C15.4481 34.0209 15.7195 34.1333 16.0024 34.1333H17.069V35.2H15.597C15.0897 35.199 14.5871 35.2982 14.1182 35.4919C13.6493 35.6856 13.2232 35.97 12.8644 36.3288C12.5057 36.6875 12.2213 37.1136 12.0276 37.5825C11.8339 38.0514 11.7347 38.554 11.7357 39.0613V41.6C11.7357 41.8829 11.6233 42.1542 11.4232 42.3543C11.2232 42.5543 10.9519 42.6667 10.669 42.6667H8.53565V41.6C8.53565 41.3171 8.42327 41.0458 8.22323 40.8458C8.02319 40.6457 7.75188 40.5333 7.46898 40.5333H1.06895C0.786054 40.5333 0.514742 40.6457 0.314702 40.8458C0.114662 41.0458 0.00228119 41.3171 0.00228119 41.6V58.6667C0.00228119 58.9496 0.114662 59.221 0.314702 59.421C0.514742 59.621 0.786054 59.7334 1.06895 59.7334H7.46898C7.75188 59.7334 8.02319 59.621 8.22323 59.421C8.42327 59.221 8.53565 58.9496 8.53565 58.6667V57.6001H8.65299C9.81161 57.6043 10.9538 57.8744 11.9917 58.3894L12.653 58.7201C13.9891 59.3833 15.46 59.7301 16.9517 59.7334H17.069V60.8001C17.0716 61.648 17.4095 62.4605 18.0091 63.06C18.6087 63.6596 19.4211 63.9976 20.269 64.0001H22.4024C23.2503 63.9976 24.0628 63.6596 24.6623 63.06C25.2619 62.4605 25.5999 61.648 25.6024 60.8001V59.7334C26.4503 59.7309 27.2628 59.3929 27.8623 58.7934C28.4619 58.1938 28.7999 57.3813 28.8024 56.5334C28.8003 55.9823 28.6532 55.4415 28.3757 54.9654C28.833 54.6791 29.21 54.2812 29.4713 53.8091C29.7325 53.337 29.8694 52.8063 29.8691 52.2667C29.867 51.7157 29.7198 51.1749 29.4424 50.6987C29.8995 50.4122 30.2763 50.0142 30.5375 49.5422C30.7988 49.0702 30.9358 48.5395 30.9358 48C30.9358 47.4606 30.7988 46.9299 30.5375 46.4579C30.2763 45.9858 29.8995 45.5879 29.4424 45.3014C29.7198 44.8252 29.867 44.2844 29.8691 43.7334C29.8665 42.8854 29.5286 42.073 28.929 41.4734C28.3294 40.8738 27.517 40.5359 26.6691 40.5333H25.6024V34.1333H26.4131L41.1225 41.4827C41.2711 41.5588 41.4355 41.599 41.6025 41.6H45.8691C46.1521 41.6 46.4234 41.4876 46.6234 41.2876C46.8234 41.0875 46.9358 40.8162 46.9358 40.5333V31.8933C48.1415 31.6485 49.2254 30.9944 50.004 30.0418C50.7825 29.0893 51.2079 27.8969 51.2079 26.6666C51.2079 25.4364 50.7825 24.2439 50.004 23.2914C49.2254 22.3388 48.1415 21.6847 46.9358 21.4399ZM14.9357 30.9333H12.8023C11.6707 30.9333 10.5855 30.4838 9.78534 29.6836C8.98518 28.8835 8.53565 27.7982 8.53565 26.6666C8.53565 25.535 8.98518 24.4498 9.78534 23.6496C10.5855 22.8495 11.6707 22.3999 12.8023 22.3999H14.9357V30.9333ZM6.40231 57.6001H2.13562V42.6667H6.40231V57.6001ZM23.4691 60.8001C23.4691 61.083 23.3567 61.3543 23.1566 61.5543C22.9566 61.7544 22.6853 61.8668 22.4024 61.8668H20.269C19.9861 61.8668 19.7148 61.7544 19.5148 61.5543C19.3147 61.3543 19.2024 61.083 19.2024 60.8001V59.7334H23.4691V60.8001ZM26.6691 42.6667C26.952 42.6667 27.2233 42.7791 27.4233 42.9791C27.6234 43.1791 27.7357 43.4505 27.7357 43.7334C27.7357 44.0163 27.6234 44.2876 27.4233 44.4876C27.2233 44.6876 26.952 44.8 26.6691 44.8H23.4691C23.1862 44.8 22.9148 44.9124 22.7148 45.1124C22.5148 45.3125 22.4024 45.5838 22.4024 45.8667C22.4024 46.1496 22.5148 46.4209 22.7148 46.6209C22.9148 46.821 23.1862 46.9334 23.4691 46.9334H27.7357C28.0186 46.9334 28.2899 47.0457 28.49 47.2458C28.69 47.4458 28.8024 47.7171 28.8024 48C28.8024 48.2829 28.69 48.5542 28.49 48.7543C28.2899 48.9543 28.0186 49.0667 27.7357 49.0667H23.4691C23.1862 49.0667 22.9148 49.1791 22.7148 49.3791C22.5148 49.5792 22.4024 49.8505 22.4024 50.1334C22.4024 50.4163 22.5148 50.6876 22.7148 50.8876C22.9148 51.0877 23.1862 51.2001 23.4691 51.2001H26.6691C26.952 51.2001 27.2233 51.3124 27.4233 51.5125C27.6234 51.7125 27.7357 51.9838 27.7357 52.2667C27.7357 52.5496 27.6234 52.8209 27.4233 53.021C27.2233 53.221 26.952 53.3334 26.6691 53.3334H23.4691C23.1862 53.3334 22.9148 53.4458 22.7148 53.6458C22.5148 53.8459 22.4024 54.1172 22.4024 54.4001C22.4024 54.683 22.5148 54.9543 22.7148 55.1543C22.9148 55.3544 23.1862 55.4667 23.4691 55.4667H25.6024C25.8853 55.4667 26.1566 55.5791 26.3566 55.7792C26.5567 55.9792 26.6691 56.2505 26.6691 56.5334C26.6691 56.8163 26.5567 57.0876 26.3566 57.2877C26.1566 57.4877 25.8853 57.6001 25.6024 57.6001H16.9517C15.7931 57.5958 14.6509 57.3258 13.613 56.8107L12.9517 56.4801C11.6155 55.8168 10.1447 55.4701 8.65299 55.4667H8.53565V44.8H10.669C11.5169 44.7975 12.3294 44.4595 12.9289 43.86C13.5285 43.2604 13.8665 42.4479 13.869 41.6V39.0613C13.8674 38.7407 13.9554 38.4259 14.1232 38.1526C14.2909 37.8794 14.5317 37.6584 14.8183 37.5147C15.0612 37.397 15.3272 37.3351 15.597 37.3333H17.069V41.6C17.069 41.8829 17.1814 42.1542 17.3814 42.3543C17.5815 42.5543 17.8528 42.6667 18.1357 42.6667H26.6691ZM19.2024 40.5333V34.1333H23.4691V40.5333H19.2024ZM25.6024 32H17.069V21.3333H25.6024V32ZM40.5358 38.8053L27.7357 32.4053V20.9279L40.5358 14.5279V38.8053ZM44.8025 39.4667H42.6691V13.8666H44.8025V39.4667ZM46.9358 23.6479C47.5609 23.8678 48.1023 24.2763 48.4853 24.817C48.8682 25.3577 49.0739 26.004 49.0739 26.6666C49.0739 27.3292 48.8682 27.9755 48.4853 28.5162C48.1023 29.0569 47.5609 29.4654 46.9358 29.6853V23.6479ZM37.3355 43.7336H58.6689C58.9518 43.7336 59.2232 43.8459 59.4232 44.046C59.6232 44.246 59.7356 44.5173 59.7356 44.8002V57.6003C59.7356 57.8832 59.6232 58.1545 59.4232 58.3545C59.2232 58.5546 58.9518 58.667 58.6689 58.667H37.3355C37.0526 58.667 36.7813 58.5546 36.5813 58.3545C36.3812 58.1545 36.2688 57.8832 36.2688 57.6003V44.8002C36.2688 44.5173 36.3812 44.246 36.5813 44.046C36.7813 43.8459 37.0526 43.7336 37.3355 43.7336ZM38.4022 56.5336H57.6023V45.8669H38.4022V56.5336ZM45.3433 55.3283C45.5077 55.4215 45.6939 55.4692 45.8828 55.4668C46.0717 55.4644 46.2566 55.4118 46.4185 55.3145L51.7519 52.1145C51.9096 52.0196 52.0401 51.8856 52.1307 51.7254C52.2213 51.5653 52.2689 51.3844 52.2689 51.2003C52.2689 51.0163 52.2213 50.8354 52.1307 50.6752C52.0401 50.515 51.9096 50.381 51.7519 50.2862L46.4185 47.0862C46.2567 46.9889 46.0719 46.9364 45.8832 46.9339C45.6944 46.9315 45.5083 46.9791 45.344 47.0721C45.1797 47.1651 45.043 47.3 44.9478 47.463C44.8527 47.6261 44.8026 47.8115 44.8025 48.0003V54.4003C44.8025 54.589 44.8526 54.7743 44.9476 54.9374C45.0426 55.1004 45.1792 55.2353 45.3433 55.3283ZM46.9359 49.8841L49.1289 51.2003L46.9359 52.5166V49.8841ZM43.7355 60.8002H58.6689C58.9518 60.8002 59.2232 60.9125 59.4232 61.1126C59.6232 61.3126 59.7356 61.5839 59.7356 61.8668C59.7356 62.1497 59.6232 62.421 59.4232 62.6211C59.2232 62.8211 58.9518 62.9335 58.6689 62.9335H43.7355C43.7355 63.2164 43.6232 63.4877 43.4231 63.6878C43.2231 63.8878 42.9518 64.0002 42.6689 64.0002C42.386 64.0002 42.1147 63.8878 41.9146 63.6878C41.7146 63.4877 41.6022 63.2164 41.6022 62.9335H37.3355C37.0526 62.9335 36.7813 62.8211 36.5813 62.6211C36.3812 62.421 36.2688 62.1497 36.2688 61.8668C36.2688 61.5839 36.3812 61.3126 36.5813 61.1126C36.7813 60.9125 37.0526 60.8002 37.3355 60.8002H41.6022C41.6022 60.5173 41.7146 60.2459 41.9146 60.0459C42.1147 59.8459 42.386 59.7335 42.6689 59.7335C42.9518 59.7335 43.2231 59.8459 43.4231 60.0459C43.6232 60.2459 43.7355 60.5173 43.7355 60.8002ZM20.2689 5.33313C20.2689 6.51134 19.3138 7.46647 18.1356 7.46647C16.9573 7.46647 16.0022 6.51134 16.0022 5.33313C16.0022 4.15492 16.9573 3.19979 18.1356 3.19979C19.3138 3.19979 20.2689 4.15492 20.2689 5.33313Z" fill="#2A6DBA"/>
</g>
<defs>
<clipPath id="clip0">
<rect width="64" height="64" fill="white"/>
</clipPath>
</defs>
</svg>
