<svg width="32" height="32" viewBox="0 0 32 32" fill="none" xmlns="http://www.w3.org/2000/svg">
<path fill-rule="evenodd" clip-rule="evenodd" d="M28.047 25.258H19.643V27.512H21.284C21.8225 27.512 22.2595 27.953 22.2595 28.4965C22.2595 29.0405 21.8225 29.481 21.284 29.481H10.8425C10.304 29.481 9.86699 29.0405 9.86699 28.4965C9.86699 27.953 10.304 27.512 10.8425 27.512H12.4835V25.258H4.07999C2.64349 25.258 1.47449 24.079 1.47449 22.6305V21.7905H30.652V22.6305C30.652 24.079 29.483 25.258 28.047 25.258ZM1.50399 19.925L1.47449 5.16102C1.47449 3.71152 2.64349 2.53302 4.07999 2.53302H27.9595C29.396 2.53302 30.565 3.71152 30.565 5.16102L30.5355 19.925H1.50399ZM19.637 8.78602L18.557 6.92002C18.389 6.62952 18.0295 6.50802 17.72 6.63852L16.3355 7.22152C15.9975 6.96402 15.6385 6.73752 15.242 6.57202L15.058 5.10502C15.015 4.77152 14.732 4.52102 14.3955 4.52102H12.237C11.9005 4.52102 11.616 4.77152 11.5745 5.10502L11.3905 6.57202C10.994 6.73752 10.6335 6.96552 10.297 7.22152L8.91249 6.63852C8.60149 6.50802 8.24249 6.62802 8.07399 6.92002L6.99549 8.78602C6.82699 9.07652 6.90199 9.44702 7.17049 9.65102L8.37299 10.5595C8.34649 10.7665 8.30949 10.97 8.30949 11.185C8.30949 11.3995 8.34649 11.6035 8.37199 11.81L7.16899 12.719C6.90049 12.9215 6.82599 13.292 6.99399 13.5835L8.07399 15.4495C8.24249 15.74 8.60149 15.861 8.91149 15.7305L10.2955 15.147C10.6335 15.404 10.9925 15.631 11.389 15.796L11.573 17.2635C11.616 17.598 11.899 17.8485 12.2355 17.8485H14.394C14.731 17.8485 15.015 17.598 15.0565 17.2645L15.241 15.7975C15.6375 15.632 15.9975 15.404 16.334 15.1485L17.7185 15.7305C18.0295 15.861 18.389 15.7415 18.557 15.4495L19.6355 13.5835C19.804 13.293 19.729 12.9225 19.461 12.719L18.2595 11.81C18.2845 11.6035 18.322 11.3995 18.322 11.185C18.322 10.97 18.2845 10.7665 18.2595 10.5595L19.4625 9.65102C19.7305 9.44852 19.805 9.07752 19.637 8.78602ZM27.3745 10.161L26.5415 10.057C26.496 9.95002 26.457 9.84102 26.3975 9.73752C26.3375 9.63402 26.2625 9.54602 26.193 9.45352L26.5205 8.67952C26.5935 8.50702 26.526 8.30702 26.3635 8.21302L25.322 7.61352C25.16 7.52002 24.953 7.56152 24.8395 7.71102L24.334 8.37802C24.099 8.34802 23.8625 8.33852 23.625 8.36952L23.127 7.71252C23.0135 7.56352 22.807 7.52152 22.645 7.61502L21.6025 8.21702C21.4405 8.31052 21.373 8.51102 21.4455 8.68302L21.7655 9.44302C21.6205 9.63302 21.51 9.84352 21.419 10.061L20.588 10.1655C20.4015 10.189 20.2615 10.347 20.2615 10.535L20.261 11.7365C20.261 11.9235 20.4 12.0815 20.5865 12.105L21.4205 12.2085C21.465 12.316 21.504 12.4245 21.564 12.5285C21.6235 12.632 21.6985 12.72 21.7685 12.8125L21.441 13.5865C21.368 13.759 21.435 13.959 21.5975 14.053L22.639 14.6525C22.801 14.746 23.0085 14.704 23.1215 14.555L23.627 13.8875C23.862 13.9175 24.0985 13.9265 24.336 13.896L24.8335 14.553C24.9475 14.7025 25.154 14.7445 25.3165 14.6505L26.3585 14.049C26.521 13.955 26.5885 13.755 26.5155 13.5825L26.1955 12.823C26.341 12.6325 26.451 12.4225 26.5425 12.205L27.373 12.1005C27.5595 12.0765 27.6995 11.9185 27.6995 11.731L27.7 10.5295C27.7005 10.3425 27.561 10.1845 27.3745 10.161ZM24.7235 12.4195C24.0115 12.831 23.102 12.588 22.6915 11.877C22.2815 11.166 22.5255 10.2575 23.238 9.84602C23.95 9.43502 24.859 9.67802 25.2695 10.389C25.68 11.0995 25.4355 12.0085 24.7235 12.4195ZM13.3155 13.85C11.8405 13.85 10.6455 12.6575 10.6455 11.185C10.6455 9.71202 11.8405 8.51952 13.3155 8.51952C14.7905 8.51952 15.9855 9.71202 15.9855 11.185C15.9855 12.6575 14.7905 13.85 13.3155 13.85ZM13.323 9.68752C12.5075 9.68752 11.8465 10.3535 11.8465 11.1745C11.8465 11.995 12.5075 12.661 13.323 12.661C14.138 12.661 14.7995 11.995 14.7995 11.1745C14.7995 10.3535 14.138 9.68752 13.323 9.68752Z" fill="#2A6DBA"/>
</svg>
