<svg width="32" height="32" viewBox="0 0 32 32" fill="none" xmlns="http://www.w3.org/2000/svg">
<path d="M29.5103 15.6787L28.7415 9.22305C31.3245 7.43378 33.1514 3.79171 31.148 1.83243C29.6666 0.38363 26.7725 0.952121 24.5411 3.13464L24.5223 3.15278L26.3975 3.37292L26.7349 3.70313C28.0289 2.82282 29.3104 2.62106 29.8167 3.13464C30.6778 3.97651 29.546 6.03511 28.4979 7.04077L28.2728 5.20685L26.7349 3.70313C26.4351 3.92327 26.1536 4.14317 25.8724 4.41822C24.3721 5.88541 23.941 7.64604 24.5223 8.28783L24.5411 8.32459L25.8724 9.60841L24.5411 10.9104L20.5655 7.02263L21.8968 5.72042L22.5533 6.36222C22.8531 5.28015 23.5096 4.14317 24.5223 3.15278L15.7085 2.16264L0 17.4699L13.8206 30.9678L29.5103 15.6787ZM19.8152 13.8631C21.3719 13.8631 22.6282 15.0918 22.6282 16.6139C22.6282 18.1363 21.3719 19.3649 19.8152 19.3649C18.2588 19.3649 17.0025 18.1363 17.0025 16.6139C17.0025 15.0918 18.2588 13.8631 19.8152 13.8631ZM10.439 19.3649C8.88234 19.3649 7.62599 18.1363 7.62599 16.6139C7.62599 15.0918 8.88234 13.8631 10.439 13.8631C11.9954 13.8631 13.2517 15.0918 13.2517 16.6139C13.2517 18.1363 11.9954 19.3649 10.439 19.3649ZM15.1458 10.9655L16.9834 11.259L15.1082 22.2625L13.2705 21.9691L15.1458 10.9655Z" fill="#2A6DBA"/>
<path d="M10.439 15.7453C9.91382 15.7453 9.50122 16.1577 9.50122 16.6828C9.50122 17.2079 9.91382 17.6205 10.439 17.6205C10.9641 17.6205 11.3765 17.2079 11.3765 16.6828C11.3765 16.1577 10.9641 15.7453 10.439 15.7453Z" fill="#2A6DBA"/>
<path d="M19.8152 17.6205C20.3403 17.6205 20.7529 17.2079 20.7529 16.6828C20.7529 16.1577 20.3403 15.7453 19.8152 15.7453C19.29 15.7453 18.8777 16.1577 18.8777 16.6828C18.8777 17.2079 19.29 17.6205 19.8152 17.6205Z" fill="#2A6DBA"/>
</svg>
