<svg width="32" height="32" viewBox="0 0 32 32" fill="none" xmlns="http://www.w3.org/2000/svg">
<g clip-path="url(#clip0)">
<path fill-rule="evenodd" clip-rule="evenodd" d="M31.4625 5.151L30.2595 6.0595C30.285 6.2665 30.322 6.47 30.322 6.685C30.322 6.8995 30.285 7.1035 30.2595 7.31L31.461 8.219C31.7295 8.4225 31.804 8.793 31.6355 9.0835L30.557 10.9495C30.389 11.2415 30.0295 11.3615 29.7185 11.231L28.334 10.6485C27.9975 10.904 27.6375 11.132 27.241 11.2975L27.0565 12.7645C27.015 13.098 26.731 13.3485 26.394 13.3485H24.2355C23.899 13.3485 23.616 13.098 23.573 12.7635L23.389 11.296C22.9925 11.131 22.6335 10.904 22.2955 10.647L20.9115 11.231C20.6015 11.3615 20.2425 11.2405 20.074 10.9495L18.994 9.0835C18.826 8.792 18.9005 8.4215 19.169 8.219L20.372 7.31C20.3465 7.1035 20.3095 6.8995 20.3095 6.685C20.3095 6.47 20.3465 6.2665 20.3735 6.0595L19.1705 5.151C18.902 4.947 18.827 4.5765 18.9955 4.286L20.074 2.42C20.2425 2.128 20.6015 2.0085 20.9125 2.139L22.297 2.7215C22.6335 2.4655 22.994 2.2375 23.3905 2.072L23.5745 0.604996C23.616 0.271496 23.9005 0.0209961 24.237 0.0209961H26.3955C26.732 0.0209961 27.015 0.271496 27.058 0.604996L27.242 2.072C27.6385 2.2375 27.9975 2.464 28.3355 2.7215L29.72 2.139C30.0295 2.0085 30.389 2.1295 30.557 2.42L31.637 4.286C31.8055 4.5775 31.7305 4.9485 31.4625 5.151ZM25.3155 4.0195C23.8405 4.0195 22.6455 5.212 22.6455 6.685C22.6455 8.1575 23.8405 9.35 25.3155 9.35C26.791 9.35 27.9855 8.1575 27.9855 6.685C27.9855 5.212 26.791 4.0195 25.3155 4.0195ZM25.323 8.161C24.5075 8.161 23.8465 7.495 23.8465 6.6745C23.8465 5.8535 24.5075 5.1875 25.323 5.1875C26.138 5.1875 26.7995 5.8535 26.7995 6.6745C26.7995 7.495 26.138 8.161 25.323 8.161ZM20.99 12.7835L22.4145 15.2465C22.743 15.8195 22.6 16.555 22.082 16.9615L19.8755 18.69C19.942 19.1235 19.9755 19.5655 19.9755 20.0125C19.9755 20.4615 19.942 20.909 19.874 21.345L22.078 23.0615C22.6 23.467 22.7445 24.205 22.4135 24.778L20.99 27.241C20.6605 27.813 19.9515 28.058 19.336 27.8115L16.723 26.7655C16.033 27.325 15.2545 27.7755 14.4375 28.089L14.0425 30.8625C13.949 31.5155 13.3815 32.007 12.7205 32.007H9.87445C9.21345 32.007 8.64595 31.5155 8.55145 30.8635L8.15595 28.0915C7.34045 27.7825 6.56995 27.337 5.85995 26.7655L3.25895 27.8115C2.64645 28.057 1.93445 27.8115 1.60345 27.241L0.180453 24.778C-0.148047 24.205 -0.00504661 23.4695 0.512953 23.063L2.71945 21.3345C2.65295 20.9015 2.61945 20.459 2.61945 20.0125C2.61945 19.563 2.65295 19.1155 2.72095 18.6795L0.516953 16.963C-0.00504661 16.5575 -0.149547 15.8195 0.181453 15.2465L1.60495 12.7835C1.93595 12.213 2.64645 11.9675 3.25895 12.213L5.87195 13.259C6.56195 12.6995 7.34045 12.249 8.15745 11.936L8.55245 9.1625C8.64595 8.5095 9.21345 8.0175 9.87445 8.0175H12.7205C13.3815 8.0175 13.949 8.5095 14.0425 9.161L14.4375 11.933C15.253 12.2425 16.0235 12.6875 16.734 13.259L19.3345 12.213C19.9475 11.9665 20.659 12.212 20.99 12.7835ZM11.298 13.1635C7.51345 13.1635 4.43495 16.237 4.43495 20.0145C4.43495 23.792 7.51345 26.8655 11.298 26.8655C15.082 26.8655 18.1605 23.792 18.1605 20.0145C18.1605 16.237 15.082 13.1635 11.298 13.1635ZM11.297 25.7995C8.11995 25.7995 5.54445 23.2065 5.54445 20.008C5.54445 16.809 8.11995 14.216 11.297 14.216C14.474 14.216 17.0495 16.809 17.0495 20.008C17.0495 23.2065 14.474 25.7995 11.297 25.7995ZM11.2985 15.866C9.02545 15.866 7.18295 17.721 7.18295 20.009C7.18295 22.2975 9.02545 24.1525 11.2985 24.1525C13.571 24.1525 15.4135 22.2975 15.4135 20.009C15.4135 17.721 13.571 15.866 11.2985 15.866ZM11.297 23.324C9.47795 23.324 8.00345 21.839 8.00345 20.008C8.00345 18.1765 9.47795 16.692 11.297 16.692C13.116 16.692 14.5905 18.1765 14.5905 20.008C14.5905 21.839 13.116 23.324 11.297 23.324ZM11.297 18.341C10.3825 18.341 9.64145 19.0875 9.64145 20.008C9.64145 20.928 10.3825 21.6745 11.297 21.6745C12.211 21.6745 12.952 20.928 12.952 20.008C12.952 19.0875 12.211 18.341 11.297 18.341ZM11.2905 20.8495C10.8295 20.8495 10.456 20.4735 10.456 20.009C10.456 19.545 10.8295 19.169 11.2905 19.169C11.7515 19.169 12.125 19.545 12.125 20.009C12.125 20.4735 11.7515 20.8495 11.2905 20.8495Z" fill="#2A6DBA"/>
</g>
<defs>
<clipPath id="clip0">
<path d="M0 0H32V32H0V0Z" fill="white"/>
</clipPath>
</defs>
</svg>
