<svg width="32" height="32" viewBox="0 0 32 32" fill="none" xmlns="http://www.w3.org/2000/svg">
<g clip-path="url(#clip0)">
<path d="M9.11382 10.5505C9.34728 12.0286 10.4777 13.9008 12.3455 14.5659C13.1073 14.8369 13.9552 14.8369 14.717 14.5659C16.5602 13.9008 17.7275 12.0286 17.961 10.5628C18.2067 10.5381 18.5385 10.1933 18.8825 8.9492C19.3618 7.2494 18.858 7.00305 18.4156 7.04001C18.5016 6.80598 18.5631 6.57195 18.5999 6.33792C19.3249 1.94061 17.1745 1.7928 17.1745 1.7928C17.1745 1.7928 16.8182 1.10302 15.872 0.585694C15.2454 0.216173 14.3607 -0.0794455 13.2056 0.0190937C12.8247 0.031411 12.4806 0.105317 12.1366 0.228491C11.7065 0.3763 11.3133 0.585694 10.9693 0.832042C10.5392 1.10302 10.1214 1.44791 9.76506 1.82975C9.18754 2.42099 8.68374 3.17235 8.46257 4.12079C8.27825 4.82288 8.31511 5.56192 8.47485 6.36255C8.51172 6.59658 8.57316 6.83061 8.65917 7.06464C8.2291 7.02769 7.71302 7.27404 8.19224 8.97384C8.53629 10.1809 8.86806 10.5258 9.11382 10.5505Z" fill="#2A6DBA"/>
<path d="M25.114 19.8196C24.6347 19.0973 23.9255 18.5589 22.8552 18.1715C19.7559 16.9895 17.8977 15.7748 17.8977 15.7748L15.5076 23.326L15.1793 24.3503L14.1089 21.3167C16.5647 17.8891 13.9251 17.725 13.4655 17.7184H13.4589H13.4523H13.4458H13.4392C12.9796 17.725 10.3399 17.8826 12.7957 21.3167L11.7254 24.3503L11.3971 23.326L9.00696 15.7748C9.00696 15.7748 7.1487 16.9895 4.04942 18.1715C0.641528 19.4125 0.851649 22.2229 0.785986 27.489H13.4392H13.472H18.8892C18.8695 27.2658 18.8564 27.0425 18.8564 26.8127C18.8564 23.1947 21.6011 20.207 25.114 19.8196Z" fill="#2A6DBA"/>
<path d="M26.0267 21.6251C23.1638 21.6251 20.8394 23.9496 20.8394 26.8125C20.8394 29.6754 23.1638 31.9998 26.0267 31.9998C28.8896 31.9998 31.2141 29.6754 31.2141 26.8125C31.2141 23.9496 28.8896 21.6251 26.0267 21.6251ZM26.355 27.955L25.357 28.9465L24.3655 27.9484L23.4068 26.9898L24.4048 25.9983L25.3635 26.9569L27.6486 24.685L28.6401 25.6831L26.355 27.955Z" fill="#2A6DBA"/>
</g>
<defs>
<clipPath id="clip0">
<rect width="32" height="32" fill="white"/>
</clipPath>
</defs>
</svg>
