<svg width="64" height="64" viewBox="0 0 64 64" fill="none" xmlns="http://www.w3.org/2000/svg">
<g clip-path="url(#clip0)">
<path fill-rule="evenodd" clip-rule="evenodd" d="M5.33342 0.000244141H58.6667C61.6075 0.000244141 64.0001 2.39278 64.0001 5.33358V48.0002C64.0001 50.941 61.6075 53.3336 58.6667 53.3336H43.8785L47.4337 57.6002H57.6001C57.8433 57.6002 58.0769 57.6824 58.2667 57.8338L63.6001 62.1005C63.9531 62.3832 64.0886 62.8589 63.9393 63.2866C63.7899 63.7144 63.3867 64.0002 62.9334 64.0002H1.06676C0.613425 64.0002 0.211291 63.7144 0.0608915 63.2866C-0.0895085 62.8589 0.0470249 62.3832 0.400091 62.1005L5.73342 57.8338C5.92329 57.6824 6.15689 57.6002 6.40009 57.6002H16.5676L20.1228 53.3336H5.33342C2.39262 53.3336 9.15527e-05 50.941 9.15527e-05 48.0002V5.33358C9.15527e-05 2.39278 2.39262 0.000244141 5.33342 0.000244141ZM58.6667 2.13358H5.33342C3.56916 2.13358 2.13342 3.56931 2.13342 5.33358V45.8669H61.8667V5.33358C61.8667 3.56931 60.431 2.13358 58.6667 2.13358ZM4.10782 61.8669H59.8923L57.2267 59.7336H6.77449L4.10782 61.8669ZM19.3441 57.6002H44.6561L41.0998 53.3336H22.8993L19.3441 57.6002ZM5.33342 51.2002H58.6667C60.431 51.2002 61.8667 49.7645 61.8667 48.0002H2.13342C2.13342 49.7645 3.56916 51.2002 5.33342 51.2002ZM18.2467 28.2116L20.155 27.2569L21.9928 30.9337H25.6003V33.0671H24.3416L23.4456 37.5428C23.3464 38.042 22.9091 38.4004 22.4003 38.4004H12.8003C12.2915 38.4004 11.8542 38.042 11.7539 37.5428L10.859 33.0671H9.6003V30.9337H13.2078L15.0456 27.2559L16.9539 28.2105L15.5928 30.9337H19.6078L18.2467 28.2116ZM13.675 36.2671H21.5267L22.1667 33.0671H13.035L13.675 36.2671ZM6.40019 43.7335H28.8002C29.0199 43.7335 29.2119 43.6514 29.3815 43.5383L29.3922 43.5543L32.0002 41.8156L34.6082 43.5543C34.7863 43.6738 34.9933 43.7335 35.2002 43.7335C35.373 43.7335 35.5458 43.6919 35.7037 43.6076C36.0503 43.422 36.2669 43.0604 36.2669 42.6668V20.2668C36.2669 19.902 36.0749 19.5714 35.7719 19.3762L38.7362 13.4476C39.2887 12.3426 39.2055 11.0178 38.5207 9.99055C37.9981 9.20655 37.2002 8.68068 36.2733 8.51002C35.8189 8.42682 35.3645 8.43748 34.9282 8.53028L35.0477 7.55748C35.1981 6.49935 34.6573 5.46788 33.7015 4.99002L33.2119 4.74575C32.4205 4.35002 31.4658 4.40868 30.7277 4.90042L28.7298 6.23268C28.6487 6.28708 28.5495 6.30308 28.4535 6.28068L26.0631 5.68228C24.8151 5.37082 23.5159 6.08228 23.1095 7.30362L22.9037 7.92228C22.8418 8.10362 22.6455 8.19962 22.4653 8.14095C21.7111 7.88922 20.8759 8.01615 20.2306 8.48228C19.5842 8.94735 19.2002 9.69935 19.2002 10.494V14.7575C18.9133 14.4087 18.5783 14.094 18.1922 13.8359C17.4882 13.3666 17.0669 12.5804 17.0669 11.7335V5.33348C17.0669 4.74468 16.5901 4.26682 16.0002 4.26682H11.7335C11.1437 4.26682 10.6669 4.74468 10.6669 5.33348V11.7335C10.6669 12.5804 10.2455 13.3666 9.54152 13.8359C8.24339 14.702 7.46685 16.1516 7.46685 17.7122V19.2002H6.40019C5.81032 19.2002 5.33352 19.678 5.33352 20.2668V42.6668C5.33352 43.2556 5.81032 43.7335 6.40019 43.7335ZM34.1335 40.6732L32.5922 39.646C32.2338 39.4071 31.7677 39.4071 31.4093 39.646L29.8669 40.6743V22.2594L31.4082 23.2876C31.7666 23.5266 32.2327 23.5266 32.5911 23.2876L34.1335 22.2604V40.6732ZM35.8871 10.6092C36.2413 10.6743 36.5453 10.8748 36.7458 11.1746C37.0071 11.566 37.0391 12.0716 36.8279 12.494L32.7735 20.6039L32.0002 21.118L29.3922 19.3794L29.3815 19.3954C29.2119 19.2823 29.0199 19.2002 28.8002 19.2002H27.1469C29.1245 15.9308 31.7762 13.053 34.8823 10.8332C35.1778 10.6231 35.5351 10.5463 35.8871 10.6092ZM21.3335 10.494C21.3335 10.3394 21.4231 10.2519 21.4775 10.2124C21.5319 10.174 21.6439 10.1143 21.789 10.1655C23.0882 10.5996 24.493 9.89455 24.925 8.59748L25.1319 7.97775C25.1874 7.80815 25.3655 7.70468 25.5447 7.75162L27.9351 8.35002C28.6157 8.51962 29.3325 8.39375 29.9117 8.00762L31.9095 6.67535C32.0119 6.60602 32.1453 6.59748 32.2562 6.65402L32.7458 6.89828C32.8791 6.96548 32.9538 7.10948 32.9314 7.27802L32.6135 9.87748C29.3794 12.4066 26.6498 15.6023 24.6786 19.2002H22.4002L27.5202 12.3735L25.8135 11.0935L21.3335 17.0668V10.494ZM9.60019 17.7122C9.60019 16.8663 10.0215 16.0802 10.7255 15.6098C12.0237 14.7447 12.8002 13.2951 12.8002 11.7335V6.40015H14.9335V11.7335C14.9335 13.2951 15.7101 14.7447 17.0082 15.6108C17.7122 16.0802 18.1335 16.8663 18.1335 17.7132V19.2002H9.60019V17.7122ZM7.46685 21.3335H27.7335V41.6002H7.46685V21.3335ZM42.6669 42.6668V41.6001H40.5336C39.9437 41.6001 39.4669 41.1223 39.4669 40.5335V33.0668C39.4669 32.478 39.9437 32.0001 40.5336 32.0001H51.2003C51.7901 32.0001 52.2669 32.478 52.2669 33.0668H55.4669C55.8712 33.0668 56.2413 33.2951 56.4216 33.6567L57.1235 35.0615C57.1661 35.1468 57.2525 35.2001 57.3485 35.2001C58.6637 35.2001 59.7336 36.27 59.7336 37.5852V40.5335C59.7336 41.1223 59.2568 41.6001 58.6669 41.6001H56.5336V42.6668C56.5336 43.2556 56.0568 43.7335 55.4669 43.7335C54.8771 43.7335 54.4003 43.2556 54.4003 42.6668V41.6001H51.2003H44.8003V42.6668C44.8003 43.2556 44.3235 43.7335 43.7336 43.7335C43.1437 43.7335 42.6669 43.2556 42.6669 42.6668ZM55.2163 36.0161L54.8077 35.2001H52.2669V39.4668H57.6003V37.5852C57.6003 37.4465 57.4872 37.3335 57.3485 37.3335C56.4397 37.3335 55.6227 36.8289 55.2163 36.0161ZM50.1336 34.1335H41.6003V39.4668H50.1336V34.1335ZM49.0668 23.4672V19.2005H46.9335V22.4005H43.7335C43.2844 22.4005 42.8833 22.6821 42.7308 23.1045C42.5783 23.5269 42.7063 23.9994 43.0508 24.2864L49.4508 29.6197C49.6481 29.785 49.8903 29.8672 50.1335 29.8672C50.3767 29.8672 50.6188 29.785 50.8172 29.6197L57.2172 24.2864C57.5617 23.9984 57.6897 23.5269 57.5372 23.1045C57.3847 22.6821 56.9825 22.4005 56.5335 22.4005H53.3335V19.2005H51.2001V23.4672C51.2001 24.056 51.6769 24.5338 52.2668 24.5338H53.5873L50.1335 27.4117L46.6796 24.5338H48.0001C48.59 24.5338 49.0668 24.056 49.0668 23.4672ZM56.5593 16.0002H43.7091C42.8462 16.0002 42.0377 15.662 41.4318 15.0498C40.827 14.4354 40.4985 13.6236 40.5091 12.7618C40.5294 11.0188 41.9651 9.60016 43.7091 9.60016H56.5593C58.3033 9.60016 59.739 11.0188 59.7593 12.7618C59.7699 13.6236 59.4414 14.4354 58.8366 15.0487C58.2297 15.662 57.4222 16.0002 56.5593 16.0002ZM56.5593 11.7335H43.7091C43.1278 11.7335 42.6478 12.206 42.6425 12.7874C42.6393 13.0754 42.7481 13.3463 42.9497 13.55C43.1523 13.7548 43.4211 13.8668 43.7091 13.8668H56.5582C56.8462 13.8668 57.1161 13.7548 57.3187 13.549C57.5203 13.3452 57.6291 13.0743 57.6259 12.7874C57.6195 12.206 57.1406 11.7335 56.5593 11.7335Z" fill="#2A6DBA"/>
</g>
<defs>
<clipPath id="clip0">
<rect width="64" height="64" fill="white"/>
</clipPath>
</defs>
</svg>
