<svg width="32" height="32" viewBox="0 0 32 32" fill="none" xmlns="http://www.w3.org/2000/svg">
<path d="M31.3534 3.83959C31.2936 3.68499 31.1556 3.57621 30.9939 3.55602C30.8327 3.53591 30.6728 3.60758 30.5782 3.7429C30.0166 4.54643 29.2797 4.81427 28.4261 5.12445C27.7377 5.37468 27.0259 5.63322 26.2567 6.19688C25.1687 6.99399 24.6711 8.08055 24.9192 9.11042L24.8927 9.14512C24.4384 8.47253 23.9441 7.85044 23.4224 7.29494C20.9818 4.69604 17.5716 3.13358 14.0657 3.00832C13.9113 3.0028 13.7543 3 13.5992 3C9.68454 3 5.9376 4.78592 3.31921 7.89972C0.714532 10.9974 -0.439952 15.0299 0.15192 18.9632C0.201404 19.2919 0.263332 19.6241 0.336149 19.9507C1.29885 24.2751 3.75767 27.5647 7.08223 28.9758C7.90174 29.3237 8.72836 29.5 9.53883 29.5C11.5525 29.5 13.3113 28.4009 14.3644 26.4845C14.7647 25.7553 15.023 25.0012 15.1318 24.2429C15.196 23.7954 15.1521 23.3482 15.1096 22.9149C15.0658 22.4689 15.0245 22.0473 15.0907 21.6229C15.2423 20.6501 15.9082 20.0692 16.872 20.0692C17.1461 20.0692 17.4263 20.1152 17.7061 20.2062C17.3785 20.8193 17.081 21.4047 16.8211 21.9473C16.2702 23.0973 15.8902 24.0497 15.6913 24.7777C15.5687 25.2267 15.243 26.4198 16.0372 26.9824C16.2894 27.1611 16.6092 27.2241 16.942 27.1609C17.242 27.1041 18.1546 26.931 20.748 23.9181C21.444 23.1096 22.194 22.1739 22.978 21.1365C24.9905 20.4448 26.5566 18.7234 26.9709 16.7453C27.0746 16.2508 27.1179 15.7216 27.0994 15.1719C27.8529 13.9835 28.5138 12.8747 29.1789 11.6826C29.1916 11.6597 29.2042 11.6352 29.2167 11.6101C30.182 11.3403 31.0133 10.5736 31.5014 9.50157C32.2138 7.93692 32.1613 5.92602 31.3534 3.83959ZM20.4736 11.2486C20.1245 11.8144 19.5244 12.1523 18.8682 12.1523C18.5119 12.1523 18.1633 12.0494 17.8604 11.8546C17.4321 11.5793 17.1342 11.1503 17.0221 10.6466C16.91 10.1429 16.9966 9.62464 17.2664 9.18746C17.6156 8.62161 18.2158 8.28376 18.872 8.28376C19.2284 8.28376 19.5769 8.38665 19.8798 8.58147C20.3081 8.85664 20.6059 9.28566 20.718 9.78944C20.8301 10.2932 20.7434 10.8114 20.4736 11.2486ZM22.9335 14.7527C23.8916 13.3121 24.9048 11.88 25.8672 10.6062C26.0232 10.75 26.1977 10.8905 26.3867 11.0243C26.6998 11.246 27.0273 11.4174 27.3618 11.5348C26.5493 12.9529 25.6756 14.3578 24.6178 15.9479C22.8797 18.5614 21.0726 20.989 19.5291 22.7837C18.667 23.7862 17.9125 24.5601 17.3312 25.0395C17.5555 24.307 17.9844 23.3016 18.5812 22.1104C19.6484 19.9803 21.1941 17.3673 22.9335 14.7527ZM6.11175 14.7403C5.75537 14.7403 5.40684 14.6375 5.10379 14.4426C4.67548 14.1674 4.37777 13.7385 4.26562 13.2347C4.15346 12.7309 4.24028 12.2127 4.51014 11.7755C4.85912 11.2097 5.45929 10.8719 6.11546 10.8719C6.47191 10.8719 6.82044 10.9747 7.12342 11.1696C8.0076 11.7379 8.27397 12.9344 7.71744 13.8366C7.36809 14.4025 6.76785 14.7403 6.11175 14.7403ZM4.12517 18.9992C4.47429 18.4332 5.07438 18.0954 5.73063 18.0954C6.08694 18.0954 6.43539 18.1983 6.73851 18.3931C7.16683 18.6683 7.46454 19.0973 7.57669 19.6011C7.68892 20.1047 7.6021 20.6228 7.33216 21.0602C6.98319 21.6259 6.38302 21.9638 5.72685 21.9638C5.37047 21.9638 5.02186 21.8609 4.71874 21.6661C4.29043 21.3908 3.99279 20.9619 3.88071 20.4581C3.76871 19.9545 3.8556 19.4363 4.12517 18.9992ZM10.1944 7.51251C10.5435 6.94666 11.1437 6.60882 11.7999 6.60882C12.1561 6.60882 12.5046 6.7117 12.8076 6.90644C13.6919 7.47464 13.9582 8.6712 13.4016 9.57354C13.0524 10.1395 12.4522 10.4773 11.796 10.4773C11.4397 10.4773 11.0912 10.3744 10.7882 10.1796C10.36 9.90443 10.0623 9.47549 9.95018 8.97163C9.83788 8.46792 9.9247 7.94977 10.1944 7.51251Z" fill="#2A6DBA"/>
</svg>
