<svg width="32" height="32" viewBox="0 0 32 32" fill="none" xmlns="http://www.w3.org/2000/svg">
<path fill-rule="evenodd" clip-rule="evenodd" d="M22.113 31.9995H9.887C8.295 31.9995 7 30.7585 7 29.2325V26.0085C17.212 26.0345 16.537 26.0655 25 26.0075V29.2325C25 30.7585 23.705 31.9995 22.113 31.9995ZM19.042 28.0285H12.958C12.431 28.0285 12.005 28.4685 12.005 29.0135C12.005 29.5575 12.431 29.9985 12.958 29.9985H19.042C19.568 29.9985 19.995 29.5575 19.995 29.0135C19.995 28.4685 19.568 28.0285 19.042 28.0285ZM23.434 24.0005H8.562C7.824 24.0005 7.199 23.5185 7 22.8625V5.16049C7.199 4.50049 7.824 4.01849 8.562 4.01849H23.434C24.175 4.01849 24.802 4.50349 25 5.16549V22.8565C24.802 23.5165 24.175 24.0005 23.434 24.0005ZM7 2.02149C7.279 0.868488 8.447 0.000488281 9.842 0.000488281H22.158C23.553 0.000488281 24.722 0.869488 25 2.02249C17.535 2.02849 14.764 2.02049 7 2.02149Z" fill="#2A6DBA"/>
</svg>
