<svg width="503" height="485" viewBox="0 0 503 485" fill="none" xmlns="http://www.w3.org/2000/svg">
<path opacity="0.5" fill-rule="evenodd" clip-rule="evenodd" d="M464.924 331.135L343.424 448.286C292.656 497.238 210.344 497.238 159.576 448.286L38.0764 331.135C-12.6921 282.183 -12.6921 202.817 38.0764 153.865L159.576 36.7138C210.344 -12.2379 292.656 -12.2379 343.424 36.7138L464.924 153.865C515.692 202.817 515.692 282.183 464.924 331.135ZM436.547 176.602L319.843 64.0751C282.099 27.6805 220.901 27.6805 183.157 64.0751L66.4532 176.602C28.7079 212.996 28.7079 272.004 66.4532 308.398L183.157 420.925C220.901 457.319 282.099 457.319 319.843 420.925L436.547 308.398C474.292 272.004 474.292 212.996 436.547 176.602Z" fill="#C9CFD6"/>
</svg>
