<svg width="224" height="224" viewBox="0 0 224 224" fill="none" xmlns="http://www.w3.org/2000/svg">
<g style="mix-blend-mode:multiply" opacity="0.5">
<path fill-rule="evenodd" clip-rule="evenodd" d="M215.25 223.54C213.53 223.536 211.85 223.022 210.422 222.064C208.994 221.106 207.882 219.746 207.226 218.156C206.571 216.565 206.402 214.817 206.74 213.13C207.078 211.444 207.908 209.896 209.125 208.681C210.343 207.466 211.893 206.64 213.58 206.306C215.267 205.972 217.015 206.145 218.604 206.804C220.192 207.463 221.55 208.578 222.505 210.009C223.46 211.439 223.97 213.12 223.97 214.84C223.97 215.984 223.744 217.117 223.306 218.174C222.867 219.231 222.225 220.191 221.415 220.999C220.605 221.807 219.643 222.448 218.585 222.884C217.528 223.32 216.394 223.543 215.25 223.54ZM215.25 182.32C213.529 182.317 211.848 181.804 210.418 180.846C208.989 179.888 207.875 178.528 207.219 176.937C206.562 175.346 206.392 173.597 206.729 171.909C207.066 170.222 207.896 168.672 209.113 167.456C210.331 166.24 211.881 165.412 213.569 165.077C215.257 164.742 217.006 164.914 218.596 165.573C220.186 166.231 221.545 167.346 222.501 168.777C223.458 170.207 223.969 171.889 223.97 173.61C223.97 174.755 223.744 175.888 223.305 176.945C222.867 178.002 222.224 178.963 221.414 179.772C220.605 180.58 219.643 181.222 218.586 181.659C217.528 182.096 216.395 182.321 215.25 182.32ZM215.25 141.09C213.529 141.087 211.848 140.574 210.418 139.616C208.989 138.658 207.875 137.298 207.219 135.707C206.562 134.116 206.392 132.367 206.729 130.679C207.066 128.992 207.896 127.442 209.113 126.226C210.331 125.01 211.881 124.182 213.569 123.847C215.257 123.511 217.006 123.684 218.596 124.343C220.186 125.001 221.545 126.116 222.501 127.547C223.458 128.977 223.969 130.659 223.97 132.38C223.97 133.524 223.744 134.658 223.305 135.715C222.867 136.772 222.224 137.733 221.414 138.542C220.605 139.35 219.643 139.992 218.586 140.429C217.528 140.866 216.395 141.091 215.25 141.09ZM215.25 99.8601C213.529 99.8572 211.847 99.3438 210.417 98.3853C208.988 97.4267 207.874 96.0658 207.218 94.4746C206.561 92.8835 206.392 91.1336 206.73 89.4458C207.068 87.7581 207.898 86.2084 209.117 84.9927C210.335 83.777 211.887 82.9496 213.575 82.6155C215.264 82.2814 217.014 82.4554 218.603 83.1155C220.193 83.7756 221.551 84.8921 222.506 86.324C223.462 87.7559 223.971 89.4387 223.97 91.1599C223.967 93.4699 223.047 95.6842 221.412 97.3157C219.776 98.9472 217.56 99.8625 215.25 99.8601ZM215.25 58.6299C213.53 58.626 211.85 58.1125 210.422 57.1541C208.994 56.1957 207.882 54.8357 207.226 53.2456C206.571 51.6556 206.402 49.9068 206.74 48.2205C207.078 46.5342 207.908 44.986 209.125 43.7713C210.343 42.5566 211.893 41.7299 213.58 41.3958C215.267 41.0617 217.015 41.2353 218.604 41.8943C220.192 42.5534 221.55 43.6684 222.505 45.0987C223.46 46.5289 223.97 48.2101 223.97 49.93C223.97 51.0742 223.744 52.2071 223.306 53.264C222.867 54.3208 222.225 55.2808 221.415 56.0889C220.605 56.897 219.643 57.5374 218.585 57.9734C217.528 58.4095 216.394 58.6325 215.25 58.6299ZM215.25 17.4099C213.529 17.407 211.848 16.8942 210.418 15.9361C208.989 14.978 207.875 13.6177 207.219 12.0271C206.562 10.4365 206.392 8.68702 206.729 6.99955C207.066 5.31207 207.896 3.76229 209.113 2.54618C210.331 1.33006 211.881 0.502016 213.569 0.166781C215.257 -0.168453 217.006 0.00409806 218.596 0.662631C220.186 1.32116 221.545 2.43619 222.501 3.86673C223.458 5.29728 223.969 6.97915 223.97 8.69998C223.97 9.84453 223.744 10.9777 223.305 12.0349C222.867 13.0922 222.224 14.0528 221.414 14.8616C220.605 15.6705 219.643 16.3118 218.586 16.7491C217.528 17.1863 216.395 17.4109 215.25 17.4099ZM173.94 223.54C172.22 223.536 170.54 223.022 169.112 222.064C167.684 221.106 166.572 219.746 165.917 218.156C165.261 216.565 165.092 214.817 165.43 213.13C165.768 211.444 166.598 209.896 167.815 208.681C169.033 207.466 170.583 206.64 172.27 206.306C173.957 205.972 175.705 206.145 177.294 206.804C178.883 207.463 180.24 208.578 181.195 210.009C182.15 211.439 182.66 213.12 182.66 214.84C182.66 215.984 182.434 217.117 181.996 218.174C181.557 219.231 180.915 220.191 180.105 220.999C179.295 221.807 178.333 222.448 177.276 222.884C176.218 223.32 175.084 223.543 173.94 223.54ZM173.94 182.32C172.219 182.317 170.538 181.804 169.108 180.846C167.679 179.888 166.566 178.528 165.909 176.937C165.252 175.346 165.082 173.597 165.419 171.909C165.756 170.222 166.586 168.672 167.803 167.456C169.021 166.24 170.571 165.412 172.259 165.077C173.947 164.742 175.696 164.914 177.286 165.573C178.876 166.231 180.235 167.346 181.192 168.777C182.148 170.207 182.659 171.889 182.66 173.61C182.66 174.755 182.434 175.888 181.995 176.945C181.557 178.002 180.914 178.963 180.105 179.772C179.295 180.58 178.334 181.222 177.276 181.659C176.218 182.096 175.085 182.321 173.94 182.32ZM173.94 141.09C172.219 141.087 170.538 140.574 169.108 139.616C167.679 138.658 166.566 137.298 165.909 135.707C165.252 134.116 165.082 132.367 165.419 130.679C165.756 128.992 166.586 127.442 167.803 126.226C169.021 125.01 170.571 124.182 172.259 123.847C173.947 123.511 175.696 123.684 177.286 124.343C178.876 125.001 180.235 126.116 181.192 127.547C182.148 128.977 182.659 130.659 182.66 132.38C182.66 133.524 182.434 134.658 181.995 135.715C181.557 136.772 180.914 137.733 180.105 138.542C179.295 139.35 178.334 139.992 177.276 140.429C176.218 140.866 175.085 141.091 173.94 141.09ZM173.94 99.8601C172.219 99.8572 170.537 99.3438 169.107 98.3853C167.678 97.4267 166.564 96.0658 165.908 94.4746C165.251 92.8835 165.081 91.1336 165.419 89.4458C165.757 87.7581 166.588 86.2084 167.807 84.9927C169.025 83.777 170.577 82.9496 172.265 82.6155C173.954 82.2814 175.703 82.4554 177.293 83.1155C178.883 83.7756 180.241 84.8921 181.196 86.324C182.152 87.7559 182.661 89.4387 182.66 91.1599C182.657 93.4699 181.737 95.6842 180.102 97.3157C178.466 98.9472 176.25 99.8625 173.94 99.8601ZM173.94 58.6299C172.22 58.626 170.54 58.1125 169.112 57.1541C167.684 56.1957 166.572 54.8357 165.917 53.2456C165.261 51.6556 165.092 49.9068 165.43 48.2205C165.768 46.5342 166.598 44.986 167.815 43.7713C169.033 42.5566 170.583 41.7299 172.27 41.3958C173.957 41.0617 175.705 41.2353 177.294 41.8943C178.883 42.5534 180.24 43.6684 181.195 45.0987C182.15 46.5289 182.66 48.2101 182.66 49.93C182.66 51.0742 182.434 52.2071 181.996 53.264C181.557 54.3208 180.915 55.2808 180.105 56.0889C179.295 56.897 178.333 57.5374 177.276 57.9734C176.218 58.4095 175.084 58.6325 173.94 58.6299ZM173.94 17.4099C172.219 17.407 170.538 16.8942 169.108 15.9361C167.679 14.978 166.566 13.6177 165.909 12.0271C165.252 10.4365 165.082 8.68702 165.419 6.99955C165.756 5.31207 166.586 3.76229 167.803 2.54618C169.021 1.33006 170.571 0.502016 172.259 0.166781C173.947 -0.168453 175.696 0.00409806 177.286 0.662631C178.876 1.32116 180.235 2.43619 181.192 3.86673C182.148 5.29728 182.659 6.97915 182.66 8.69998C182.66 9.84453 182.434 10.9777 181.995 12.0349C181.557 13.0922 180.914 14.0528 180.105 14.8616C179.295 15.6705 178.334 16.3118 177.276 16.7491C176.218 17.1863 175.085 17.4109 173.94 17.4099ZM132.63 223.54C130.91 223.536 129.23 223.022 127.802 222.064C126.374 221.106 125.262 219.746 124.606 218.156C123.951 216.565 123.782 214.817 124.12 213.13C124.458 211.444 125.288 209.896 126.505 208.681C127.723 207.466 129.273 206.64 130.96 206.306C132.647 205.972 134.395 206.145 135.984 206.804C137.572 207.463 138.93 208.578 139.885 210.009C140.84 211.439 141.35 213.12 141.35 214.84C141.347 217.15 140.426 219.364 138.791 220.995C137.156 222.627 134.94 223.542 132.63 223.54ZM132.63 182.32C130.909 182.317 129.228 181.804 127.798 180.846C126.369 179.888 125.255 178.528 124.599 176.937C123.942 175.346 123.771 173.597 124.109 171.909C124.446 170.222 125.276 168.672 126.493 167.456C127.711 166.24 129.261 165.412 130.949 165.077C132.637 164.742 134.386 164.914 135.976 165.573C137.566 166.231 138.925 167.346 139.882 168.777C140.838 170.207 141.349 171.889 141.35 173.61C141.347 175.921 140.427 178.136 138.792 179.769C137.157 181.402 134.941 182.32 132.63 182.32ZM132.63 141.09C130.909 141.087 129.228 140.574 127.798 139.616C126.369 138.658 125.255 137.298 124.599 135.707C123.942 134.116 123.771 132.367 124.109 130.679C124.446 128.992 125.276 127.442 126.493 126.226C127.711 125.01 129.261 124.182 130.949 123.847C132.637 123.511 134.386 123.684 135.976 124.343C137.566 125.001 138.925 126.116 139.882 127.547C140.838 128.977 141.349 130.659 141.35 132.38C141.347 134.691 140.427 136.906 138.792 138.539C137.157 140.172 134.941 141.09 132.63 141.09ZM132.63 99.8601C130.909 99.8572 129.227 99.3438 127.797 98.3853C126.368 97.4267 125.254 96.0658 124.598 94.4746C123.941 92.8835 123.772 91.1336 124.11 89.4458C124.448 87.7581 125.278 86.2084 126.497 84.9927C127.715 83.777 129.267 82.9496 130.955 82.6155C132.644 82.2814 134.394 82.4554 135.983 83.1155C137.573 83.7756 138.931 84.8921 139.886 86.324C140.842 87.7559 141.351 89.4387 141.35 91.1599C141.345 93.4692 140.424 95.6822 138.789 97.3133C137.154 98.9443 134.939 99.8604 132.63 99.8601ZM132.63 58.6299C130.91 58.626 129.23 58.1125 127.802 57.1541C126.374 56.1957 125.262 54.8357 124.606 53.2456C123.951 51.6556 123.782 49.9068 124.12 48.2205C124.458 46.5342 125.288 44.986 126.505 43.7713C127.723 42.5566 129.273 41.7299 130.96 41.3958C132.647 41.0617 134.395 41.2353 135.984 41.8943C137.572 42.5534 138.93 43.6684 139.885 45.0987C140.84 46.5289 141.35 48.2101 141.35 49.93C141.347 52.2398 140.426 54.4538 138.791 56.0852C137.156 57.7166 134.94 58.6318 132.63 58.6299ZM132.63 17.4099C130.909 17.407 129.228 16.8942 127.798 15.9361C126.369 14.978 125.255 13.6177 124.599 12.0271C123.942 10.4365 123.771 8.68702 124.109 6.99955C124.446 5.31207 125.276 3.76229 126.493 2.54618C127.711 1.33006 129.261 0.502016 130.949 0.166781C132.637 -0.168453 134.386 0.00409806 135.976 0.662631C137.566 1.32116 138.925 2.43619 139.882 3.86673C140.838 5.29728 141.349 6.97915 141.35 8.69998C141.347 11.0109 140.427 13.2261 138.792 14.8592C137.157 16.4923 134.941 17.4097 132.63 17.4099ZM91.31 223.54C89.5906 223.534 87.9115 223.019 86.4848 222.059C85.058 221.1 83.9476 219.739 83.2937 218.149C82.6398 216.558 82.4717 214.81 82.8108 213.125C83.1499 211.439 83.9809 209.891 85.1988 208.678C86.4167 207.464 87.9669 206.638 89.6537 206.305C91.3405 205.972 93.0883 206.146 94.6763 206.805C96.2643 207.465 97.6212 208.58 98.5758 210.01C99.5305 211.44 100.04 213.121 100.04 214.84C100.039 215.985 99.8116 217.118 99.372 218.175C98.9324 219.231 98.2888 220.191 97.4781 220.999C96.6673 221.807 95.7052 222.448 94.6469 222.884C93.5885 223.32 92.4546 223.543 91.31 223.54ZM91.31 182.32C89.5896 182.315 87.9092 181.8 86.4811 180.841C85.053 179.882 83.9411 178.521 83.2859 176.93C82.6307 175.339 82.4617 173.59 82.8 171.903C83.1383 170.217 83.9688 168.668 85.1867 167.453C86.4046 166.238 87.9553 165.411 89.6429 165.076C91.3304 164.742 93.0792 164.915 94.6685 165.574C96.2578 166.233 97.6162 167.348 98.5722 168.778C99.5282 170.208 100.039 171.89 100.04 173.61C100.039 174.755 99.8121 175.889 99.3727 176.946C98.9333 178.004 98.2898 178.965 97.4792 179.773C96.6685 180.582 95.7064 181.223 94.6479 181.66C93.5893 182.097 92.4551 182.322 91.31 182.32ZM91.31 141.09C89.5896 141.085 87.9092 140.57 86.4811 139.611C85.053 138.652 83.9411 137.291 83.2859 135.7C82.6307 134.109 82.4617 132.36 82.8 130.673C83.1383 128.987 83.9688 127.438 85.1867 126.223C86.4046 125.008 87.9553 124.181 89.6429 123.846C91.3304 123.512 93.0792 123.685 94.6685 124.344C96.2578 125.002 97.6162 126.118 98.5722 127.548C99.5282 128.978 100.039 130.66 100.04 132.38C100.039 133.525 99.8121 134.659 99.3727 135.716C98.9333 136.774 98.2898 137.735 97.4792 138.543C96.6685 139.352 95.7064 139.993 94.6479 140.43C93.5893 140.867 92.4551 141.092 91.31 141.09ZM91.31 99.8601C89.5891 99.8552 87.9085 99.3401 86.4801 98.3804C85.0518 97.4207 83.9398 96.0592 83.2849 94.4678C82.6301 92.8764 82.4616 91.1268 82.8007 89.4397C83.1398 87.7526 83.9713 86.2038 85.1902 84.989C86.4091 83.7743 87.9607 82.9483 89.649 82.615C91.3372 82.2817 93.0864 82.4561 94.6754 83.1165C96.2645 83.7768 97.6222 84.8933 98.5771 86.325C99.5319 87.7566 100.041 89.4391 100.04 91.1599C100.035 93.4711 99.1133 95.686 97.4762 97.3174C95.8391 98.9489 93.6212 99.8636 91.31 99.8601ZM91.31 58.6299C89.5906 58.624 87.9115 58.1088 86.4848 57.1492C85.058 56.1896 83.9476 54.8288 83.2937 53.2386C82.6398 51.6483 82.4717 49.9 82.8108 48.2144C83.1499 46.5287 83.9809 44.9813 85.1988 43.7676C86.4167 42.5539 87.9669 41.7283 89.6537 41.3951C91.3405 41.0618 93.0883 41.2359 94.6763 41.8953C96.2643 42.5547 97.6212 43.6696 98.5758 45.0996C99.5305 46.5297 100.04 48.2105 100.04 49.93C100.039 51.0746 99.8116 52.2078 99.372 53.2647C98.9324 54.3215 98.2888 55.2812 97.4781 56.0891C96.6673 56.8971 95.7052 57.5375 94.6469 57.9734C93.5885 58.4094 92.4546 58.6324 91.31 58.6299ZM91.31 17.4099C89.5896 17.405 87.9092 16.8905 86.4811 15.9312C85.053 14.9719 83.9411 13.6108 83.2859 12.0201C82.6307 10.4293 82.4617 8.68026 82.8 6.99344C83.1383 5.30662 83.9688 3.75787 85.1867 2.54276C86.4046 1.32764 87.9553 0.500476 89.6429 0.166049C91.3304 -0.168378 93.0792 0.00478464 94.6685 0.663608C96.2578 1.32243 97.6162 2.43738 98.5722 3.86771C99.5282 5.29803 100.039 6.97958 100.04 8.69998C100.039 9.84515 99.8121 10.9789 99.3727 12.0364C98.9333 13.0939 98.2898 14.0545 97.4792 14.8633C96.6685 15.6721 95.7064 16.3133 94.6479 16.7503C93.5893 17.1872 92.4551 17.4114 91.31 17.4099ZM50 223.54C48.2802 223.536 46.6001 223.022 45.172 222.064C43.744 221.106 42.6319 219.746 41.9765 218.156C41.3211 216.565 41.1517 214.817 41.4897 213.13C41.8276 211.444 42.6578 209.896 43.8753 208.681C45.0928 207.466 46.643 206.64 48.3301 206.306C50.0172 205.972 51.7654 206.145 53.3539 206.804C54.9425 207.463 56.3001 208.578 57.2552 210.009C58.2102 211.439 58.72 213.12 58.72 214.84C58.7171 217.15 57.7968 219.364 56.1615 220.996C54.5263 222.627 52.31 223.542 50 223.54ZM50 182.32C48.2792 182.317 46.5978 181.804 45.1684 180.846C43.7389 179.888 42.6255 178.528 41.9688 176.937C41.3121 175.346 41.1416 173.597 41.4788 171.909C41.816 170.222 42.6457 168.672 43.8632 167.456C45.0807 166.24 46.6314 165.412 48.3192 165.077C50.0071 164.742 51.7564 164.914 53.3462 165.573C54.9361 166.231 56.295 167.346 57.2515 168.777C58.208 170.207 58.719 171.889 58.72 173.61C58.7176 175.921 57.7978 178.137 56.1628 179.77C54.5277 181.403 52.3111 182.32 50 182.32ZM50 141.09C48.2792 141.087 46.5978 140.574 45.1684 139.616C43.7389 138.658 42.6255 137.298 41.9688 135.707C41.3121 134.116 41.1416 132.367 41.4788 130.679C41.816 128.992 42.6457 127.442 43.8632 126.226C45.0807 125.01 46.6314 124.182 48.3192 123.847C50.0071 123.511 51.7564 123.684 53.3462 124.343C54.9361 125.001 56.295 126.116 57.2515 127.547C58.208 128.977 58.719 130.659 58.72 132.38C58.7176 134.691 57.7978 136.907 56.1628 138.54C54.5277 140.173 52.3111 141.09 50 141.09ZM50 99.8601C48.2788 99.8572 46.5971 99.3438 45.1674 98.3853C43.7377 97.4267 42.6242 96.0658 41.9678 94.4746C41.3114 92.8835 41.1415 91.1336 41.4795 89.4458C41.8175 87.7581 42.6482 86.2084 43.8667 84.9927C45.0852 83.777 46.6368 82.9496 48.3253 82.6155C50.0139 82.2814 51.7635 82.4554 53.3532 83.1155C54.9428 83.7756 56.3011 84.8921 57.2564 86.324C58.2116 87.7559 58.721 89.4387 58.72 91.1599C58.7155 93.4694 57.7947 95.6828 56.1598 97.314C54.5249 98.9452 52.3095 99.8609 50 99.8601ZM50 58.6299C48.2802 58.626 46.6001 58.1125 45.172 57.1541C43.744 56.1957 42.6319 54.8357 41.9765 53.2456C41.3211 51.6556 41.1517 49.9068 41.4897 48.2205C41.8276 46.5342 42.6578 44.986 43.8753 43.7713C45.0928 42.5566 46.643 41.7299 48.3301 41.3958C50.0172 41.0617 51.7654 41.2353 53.3539 41.8943C54.9425 42.5534 56.3001 43.6684 57.2552 45.0987C58.2102 46.5289 58.72 48.2101 58.72 49.93C58.7171 52.2399 57.7968 54.4542 56.1615 56.0857C54.5263 57.7172 52.31 58.6323 50 58.6299ZM50 17.4099C48.2792 17.407 46.5978 16.8942 45.1684 15.9361C43.7389 14.978 42.6255 13.6177 41.9688 12.0271C41.3121 10.4365 41.1416 8.68702 41.4788 6.99955C41.816 5.31207 42.6457 3.76229 43.8632 2.54618C45.0807 1.33006 46.6314 0.502016 48.3192 0.166781C50.0071 -0.168453 51.7564 0.00409806 53.3462 0.662631C54.9361 1.32116 56.295 2.43619 57.2515 3.86673C58.208 5.29728 58.719 6.97915 58.72 8.69998C58.7176 11.011 57.7978 13.2267 56.1628 14.8599C54.5277 16.4931 52.3111 17.4102 50 17.4099ZM8.68997 223.54C6.97013 223.536 5.29004 223.022 3.86197 222.064C2.4339 221.106 1.32195 219.746 0.666536 218.156C0.011119 216.565 -0.158349 214.817 0.179597 213.13C0.517544 211.444 1.34771 209.896 2.56522 208.681C3.78273 207.466 5.33296 206.64 7.02005 206.306C8.70714 205.972 10.4554 206.145 12.044 206.804C13.6325 207.463 14.9901 208.578 15.9452 210.009C16.9003 211.439 17.4099 213.12 17.4099 214.84C17.4099 215.984 17.1843 217.117 16.7459 218.174C16.3074 219.231 15.6648 220.191 14.8548 220.999C14.0448 221.807 13.0834 222.448 12.0255 222.884C10.9677 223.32 9.83416 223.543 8.68997 223.54ZM8.68997 182.32C6.96914 182.317 5.28788 181.804 3.85843 180.846C2.42898 179.888 1.31555 178.528 0.658845 176.937C0.00213695 175.346 -0.168438 173.597 0.168733 171.909C0.505904 170.222 1.33562 168.672 2.55313 167.456C3.77064 166.24 5.32132 165.412 7.00919 165.077C8.69705 164.742 10.4464 164.914 12.0363 165.573C13.6261 166.231 14.9851 167.346 15.9416 168.777C16.898 170.207 17.409 171.889 17.4099 173.61C17.4096 174.755 17.1838 175.888 16.7453 176.945C16.3068 178.002 15.6643 178.963 14.8545 179.772C14.0447 180.58 13.0835 181.222 12.0258 181.659C10.9681 182.096 9.83452 182.321 8.68997 182.32ZM8.68997 141.09C6.96914 141.087 5.28788 140.574 3.85843 139.616C2.42898 138.658 1.31555 137.298 0.658845 135.707C0.00213695 134.116 -0.168438 132.367 0.168733 130.679C0.505904 128.992 1.33562 127.442 2.55313 126.226C3.77064 125.01 5.32132 124.182 7.00919 123.847C8.69705 123.511 10.4464 123.684 12.0363 124.343C13.6261 125.001 14.9851 126.116 15.9416 127.547C16.898 128.977 17.409 130.659 17.4099 132.38C17.4096 133.524 17.1838 134.658 16.7453 135.715C16.3068 136.772 15.6643 137.733 14.8545 138.542C14.0447 139.35 13.0835 139.992 12.0258 140.429C10.9681 140.866 9.83452 141.091 8.68997 141.09ZM8.68997 99.8601C6.96872 99.8572 5.28699 99.3438 3.85733 98.3853C2.42767 97.4267 1.31428 96.0658 0.657869 94.4746C0.00145483 92.8835 -0.168517 91.1336 0.169465 89.4458C0.507447 87.7581 1.33816 86.2084 2.55667 84.9927C3.77518 83.777 5.32677 82.9496 7.01529 82.6155C8.70381 82.2814 10.4535 82.4554 12.0431 83.1155C13.6328 83.7756 14.9912 84.8921 15.9464 86.324C16.9017 87.7559 17.4109 89.4387 17.4099 91.1599C17.407 93.4699 16.4869 95.6842 14.8516 97.3157C13.2163 98.9472 10.9999 99.8625 8.68997 99.8601ZM8.68997 58.6299C6.97013 58.626 5.29004 58.1125 3.86197 57.1541C2.4339 56.1957 1.32195 54.8357 0.666536 53.2456C0.011119 51.6556 -0.158349 49.9068 0.179597 48.2205C0.517544 46.5342 1.34771 44.986 2.56522 43.7713C3.78273 42.5566 5.33296 41.7299 7.02005 41.3958C8.70714 41.0617 10.4554 41.2353 12.044 41.8943C13.6325 42.5534 14.9901 43.6684 15.9452 45.0987C16.9003 46.5289 17.4099 48.2101 17.4099 49.93C17.4099 51.0742 17.1843 52.2071 16.7459 53.264C16.3074 54.3208 15.6648 55.2808 14.8548 56.0889C14.0448 56.897 13.0834 57.5374 12.0255 57.9734C10.9677 58.4095 9.83416 58.6325 8.68997 58.6299ZM8.68997 17.4099C6.96914 17.407 5.28788 16.8942 3.85843 15.9361C2.42898 14.978 1.31555 13.6177 0.658845 12.0271C0.00213695 10.4365 -0.168438 8.68702 0.168733 6.99955C0.505904 5.31207 1.33562 3.76229 2.55313 2.54618C3.77064 1.33006 5.32132 0.502016 7.00919 0.166781C8.69705 -0.168453 10.4464 0.00409806 12.0363 0.662631C13.6261 1.32116 14.9851 2.43619 15.9416 3.86673C16.898 5.29728 17.409 6.97915 17.4099 8.69998C17.4096 9.84453 17.1838 10.9777 16.7453 12.0349C16.3068 13.0922 15.6643 14.0528 14.8545 14.8616C14.0447 15.6705 13.0835 16.3118 12.0258 16.7491C10.9681 17.1863 9.83452 17.4109 8.68997 17.4099Z" fill="#C9CFD6"/>
</g>
</svg>
