<svg width="100" height="100" viewBox="0 0 100 100" fill="none" xmlns="http://www.w3.org/2000/svg">
<g clip-path="url(#clip0_13_185)">
<path d="M49.7333 74.7999C49.7333 72.1166 51.8875 69.9666 54.575 69.9666C57.2583 69.9666 59.4083 72.1166 59.4083 74.7999C59.4105 75.4355 59.287 76.0652 59.045 76.6528C58.8029 77.2404 58.447 77.7744 57.9978 78.224C57.5486 78.6736 57.015 79.0299 56.4276 79.2725C55.8401 79.5151 55.2105 79.6391 54.575 79.6374C53.9391 79.6402 53.309 79.5171 52.7209 79.2753C52.1327 79.0335 51.5983 78.6777 51.1482 78.2284C50.6982 77.7792 50.3415 77.2453 50.0987 76.6576C49.8558 76.0699 49.7317 75.4358 49.7333 74.7999ZM69.4167 74.8041C69.4167 72.1166 71.5708 69.9624 74.2542 69.9624C76.9375 69.9624 79.0917 72.1166 79.0917 74.7999C79.0917 77.4833 76.9375 79.6374 74.2583 79.6374C73.6224 79.6402 72.9923 79.5171 72.4042 79.2753C71.8161 79.0335 71.2816 78.6777 70.8316 78.2284C70.3815 77.7792 70.0248 77.2453 69.782 76.6576C69.5392 76.0699 69.415 75.44 69.4167 74.8041ZM23.7917 74.8041C23.7917 72.1166 25.9458 69.9624 28.6292 69.9624C31.3125 69.9624 33.4625 72.1166 33.4625 74.7999C33.4625 77.4833 31.3125 79.6374 28.6292 79.6374C27.9936 79.6396 27.3639 79.5162 26.7763 79.2741C26.1887 79.032 25.6547 78.6762 25.2051 78.227C24.7555 77.7778 24.3992 77.2441 24.1566 76.6567C23.914 76.0692 23.79 75.4396 23.7917 74.8041ZM4.10833 74.8041C4.10833 72.1166 6.2625 69.9624 8.94583 69.9624C11.6292 69.9624 13.7833 72.1166 13.7833 74.7999C13.7855 75.4358 13.6619 76.0659 13.4196 76.6538C13.1773 77.2417 12.821 77.7758 12.3714 78.2255C11.9217 78.6751 11.3876 79.0314 10.7997 79.2737C10.2118 79.516 9.58172 79.6396 8.94583 79.6374C8.31065 79.6391 7.6814 79.5152 7.09425 79.2729C6.5071 79.0306 5.97362 78.6746 5.52447 78.2255C5.07533 77.7763 4.71937 77.2428 4.47706 76.6557C4.23474 76.0685 4.10668 75.4393 4.10833 74.8041ZM43.9042 66.2541H39.6958V83.1833H43.9042V66.2541ZM13.75 83.1833H17.9583V66.2541H13.75V67.6124C12.2831 66.5915 10.5372 66.0474 8.75 66.0541C3.90833 66.0541 0 69.9624 0 74.8041C0 79.6708 3.90833 83.5499 8.75 83.5499C10.6042 83.5499 12.325 82.9874 13.75 81.9916V83.1833ZM79.0583 83.1833H83.2667V66.2541H79.0583V67.6124C77.5914 66.5915 75.8455 66.0474 74.0583 66.0541C69.2167 66.0541 65.3083 69.9624 65.3083 74.8041C65.3045 75.9541 65.5282 77.0934 65.9666 78.1565C66.405 79.2196 67.0495 80.1855 67.8628 80.9984C68.6761 81.8114 69.6423 82.4554 70.7056 82.8933C71.7689 83.3312 72.9084 83.5543 74.0583 83.5499C75.9125 83.5499 77.6333 82.9874 79.0583 81.9916V83.1833ZM84.825 77.6833C84.9583 81.0999 87.875 83.5166 92.7417 83.5166C96.7208 83.5166 100 81.7916 100 77.9833C100 75.3333 98.5083 73.7749 95.0625 73.1083L92.3792 72.5833C90.6542 72.2499 89.4625 71.9166 89.4625 70.8916C89.4625 69.7666 90.6208 69.2666 92.0792 69.2666C94.2042 69.2666 95.0625 70.3291 95.1292 71.5874H99.3708C99.1375 68.2749 96.4875 66.0541 92.2125 66.0541C87.8083 66.0541 85.1875 68.4708 85.1875 71.6208C85.1875 75.4624 88.3042 76.0916 90.9875 76.5916L93.2083 76.9874C94.8 77.2874 95.4958 77.7499 95.4958 78.6791C95.4958 79.5083 94.7 80.3333 92.8083 80.3333C90.0583 80.3333 89.1667 78.9083 89.1333 77.6833H84.825ZM33.4333 60.4874V67.6124C31.9664 66.5915 30.2205 66.0474 28.4333 66.0541C23.5917 66.0541 19.6833 69.9624 19.6833 74.8041C19.6833 79.6708 23.5917 83.5499 28.4333 83.5499C30.2833 83.5499 32.0083 82.9874 33.4333 81.9916V83.1833H37.6417V60.4874H33.4333ZM59.375 60.4874V67.6124C57.9081 66.5915 56.1622 66.0474 54.375 66.0541C49.5375 66.0541 45.625 69.9624 45.625 74.8041C45.6211 75.9541 45.8449 77.0934 46.2833 78.1565C46.7217 79.2196 47.3661 80.1855 48.1795 80.9984C48.9928 81.8114 49.959 82.4554 51.0223 82.8933C52.0856 83.3312 53.225 83.5543 54.375 83.5499C56.2292 83.5499 57.95 82.9874 59.375 81.9916V83.1833H63.5833V60.4874H59.375ZM10.9333 55.4874L13.7833 60.4874H33.4333L25.6458 47.0333L10.9375 55.4833L10.9333 55.4874ZM43.9042 64.6958V60.4874H59.375L42.875 31.9249L28.1292 40.3749L39.6958 60.4874V64.6958H43.9042ZM65.6417 60.4874H85.3208L59.875 16.45L45.1625 24.9333L65.6417 60.4874Z" fill="black"/>
</g>
<defs>
<clipPath id="clip0_13_185">
<rect width="100" height="100" fill="white"/>
</clipPath>
</defs>
</svg>
