<svg width="27" height="26" viewBox="0 0 27 26" fill="none" xmlns="http://www.w3.org/2000/svg">
<path fill-rule="evenodd" clip-rule="evenodd" d="M2.125 4.0625C2.125 2.71631 3.21631 1.625 4.5625 1.625H6.1875C7.53369 1.625 8.625 2.71631 8.625 4.0625H15.3424C15.6234 3.57679 16.1485 3.25 16.75 3.25C17.6475 3.25 18.375 3.97754 18.375 4.875C18.375 5.77246 17.6475 6.5 16.75 6.5C16.1485 6.5 15.6234 6.17321 15.3424 5.6875H12.0766C12.3677 5.97904 12.6299 6.30724 12.8631 6.67001C13.8996 8.28222 14.3125 10.4966 14.3125 13C14.3125 16.2387 14.7299 18.0252 15.4703 19.0125C16.0499 19.7853 16.9257 20.1846 18.3752 20.2861C18.3893 18.9521 19.4751 17.875 20.8125 17.875H22.4375C23.7837 17.875 24.875 18.9663 24.875 20.3125V21.9375C24.875 23.2837 23.7837 24.375 22.4375 24.375H20.8125C19.4663 24.375 18.375 23.2837 18.375 21.9375H11.6576C11.3766 22.4232 10.8515 22.75 10.25 22.75C9.35254 22.75 8.625 22.0225 8.625 21.125C8.625 20.2275 9.35254 19.5 10.25 19.5C10.8515 19.5 11.3766 19.8268 11.6576 20.3125H14.4379C14.3454 20.2102 14.2561 20.1019 14.1703 19.9875C13.0826 18.5373 12.6875 16.2613 12.6875 13C12.6875 10.6284 12.2879 8.78028 11.4962 7.54874C10.8636 6.56458 9.94908 5.92225 8.62444 5.74045C8.59627 7.06219 7.516 8.125 6.1875 8.125H4.5625C3.21631 8.125 2.125 7.03369 2.125 5.6875V4.0625ZM4.5625 3.25C4.11377 3.25 3.75 3.61377 3.75 4.0625V5.6875C3.75 6.13623 4.11377 6.5 4.5625 6.5H6.1875C6.63623 6.5 7 6.13623 7 5.6875V4.0625C7 3.61377 6.63623 3.25 6.1875 3.25H4.5625ZM20.8125 19.5C20.3638 19.5 20 19.8638 20 20.3125V21.9375C20 22.3862 20.3638 22.75 20.8125 22.75H22.4375C22.8862 22.75 23.25 22.3862 23.25 21.9375V20.3125C23.25 19.8638 22.8862 19.5 22.4375 19.5H20.8125Z" fill="#0460B4"/>
</svg>
