<svg width="32" height="32" viewBox="0 0 32 32" fill="none" xmlns="http://www.w3.org/2000/svg">
<path fill-rule="evenodd" clip-rule="evenodd" d="M31.0571 5.94586C31.6266 6.17365 32 6.72522 32 7.33857V24.6615C32 25.2749 31.6266 25.8265 31.0571 26.0543L16.5571 31.8543C16.1995 31.9973 15.8005 31.9973 15.4429 31.8543L0.942914 26.0543C0.373427 25.8265 0 25.2749 0 24.6615V7.33857C0 6.72522 0.373426 6.17365 0.942914 5.94586L14.8858 0.368623C14.892 0.366159 14.8982 0.363717 14.9043 0.361296L15.4429 0.145859C15.8005 0.00281284 16.1995 0.00281231 16.5571 0.145859L17.0957 0.361317C17.1019 0.363731 17.108 0.366166 17.1142 0.368623L31.0571 5.94586ZM20.8073 4.00003L8.5 8.92297L3.69265 7.00003L2 7.67709V8.47703L15 13.677V29.523L16 29.923L17 29.523V13.677L30 8.47703V7.67709L28.3073 7.00003L16 11.923L11.1926 10L23.4999 5.07706L20.8073 4.00003Z" fill="black"/>
</svg>
