<svg width="34" height="34" viewBox="0 0 34 34" fill="none" xmlns="http://www.w3.org/2000/svg">
<path d="M17.3946 2.36457C17.1413 2.26324 16.8587 2.26324 16.6054 2.36457L3.92337 7.43738L9.03125 9.48053L22.1079 4.24988L17.3946 2.36457ZM24.9688 5.39423L11.8921 10.6249L17 12.668L30.0766 7.43738L24.9688 5.39423ZM31.875 9.00673L18.0625 14.5317V31.368L31.875 25.843V9.00673ZM15.9375 31.368V14.5317L2.125 9.00673V25.843L15.9375 31.368ZM15.8162 0.391555C16.5761 0.0875808 17.4239 0.0875807 18.1838 0.391555L33.3321 6.45087C33.7355 6.61223 34 7.00292 34 7.43738V25.843C34 26.712 33.471 27.4933 32.6642 27.816L17.3946 33.9239C17.1413 34.0252 16.8587 34.0252 16.6054 33.9239L1.33579 27.816C0.529021 27.4933 0 26.712 0 25.843V7.43738C0 7.00292 0.26451 6.61223 0.667897 6.45087L15.8162 0.391555Z" fill="black"/>
</svg>
