<svg width="32" height="32" viewBox="0 0 32 32" fill="none" xmlns="http://www.w3.org/2000/svg">
<path fill-rule="evenodd" clip-rule="evenodd" d="M16.7071 3.29289C17.0976 3.68342 17.0976 4.31658 16.7071 4.70711L5.41421 16L16.7071 27.2929C17.0976 27.6834 17.0976 28.3166 16.7071 28.7071C16.3166 29.0976 15.6834 29.0976 15.2929 28.7071L3.29289 16.7071C2.90237 16.3166 2.90237 15.6834 3.29289 15.2929L15.2929 3.29289C15.6834 2.90237 16.3166 2.90237 16.7071 3.29289Z" fill="black"/>
<path fill-rule="evenodd" clip-rule="evenodd" d="M24.7071 3.29289C25.0976 3.68342 25.0976 4.31658 24.7071 4.70711L13.4142 16L24.7071 27.2929C25.0976 27.6834 25.0976 28.3166 24.7071 28.7071C24.3166 29.0976 23.6834 29.0976 23.2929 28.7071L11.2929 16.7071C10.9024 16.3166 10.9024 15.6834 11.2929 15.2929L23.2929 3.29289C23.6834 2.90237 24.3166 2.90237 24.7071 3.29289Z" fill="black"/>
</svg>
