<svg width="97" height="140" viewBox="0 0 97 140" fill="none" xmlns="http://www.w3.org/2000/svg">
<path fill-rule="evenodd" clip-rule="evenodd" d="M4.98565 0.225586C7.51729 0.225586 9.57043 2.26954 9.57043 4.79102C9.57043 7.3135 7.51729 9.35846 4.98565 9.35846C2.45402 9.35846 0.400879 7.3135 0.400879 4.79102C0.400879 2.26954 2.45402 0.225586 4.98565 0.225586ZM4.98565 21.854C7.51729 21.854 9.57043 23.8989 9.57043 26.4204C9.57043 28.9429 7.51729 30.9868 4.98565 30.9868C2.45402 30.9868 0.400879 28.9429 0.400879 26.4204C0.400879 23.8989 2.45402 21.854 4.98565 21.854ZM4.98565 43.4833C7.51729 43.4833 9.57043 45.5273 9.57043 48.0498C9.57043 50.5713 7.51729 52.6152 4.98565 52.6152C2.45402 52.6152 0.400879 50.5713 0.400879 48.0498C0.400879 45.5273 2.45402 43.4833 4.98565 43.4833ZM4.98565 65.1127C7.51729 65.1127 9.57043 67.1567 9.57043 69.6782C9.57043 72.2006 7.51729 74.2446 4.98565 74.2446C2.45402 74.2446 0.400879 72.2006 0.400879 69.6782C0.400879 67.1567 2.45402 65.1127 4.98565 65.1127ZM4.98565 86.7421C7.51729 86.7421 9.57043 88.7861 9.57043 91.3065C9.57043 93.829 7.51729 95.874 4.98565 95.874C2.45402 95.874 0.400879 93.829 0.400879 91.3065C0.400879 88.7861 2.45402 86.7421 4.98565 86.7421ZM4.98565 108.37C7.51729 108.37 9.57043 110.414 9.57043 112.937C9.57043 115.458 7.51729 117.502 4.98565 117.502C2.45402 117.502 0.400879 115.458 0.400879 112.937C0.400879 110.414 2.45402 108.37 4.98565 108.37ZM4.98565 129.999C7.51729 129.999 9.57043 132.044 9.57043 134.565C9.57043 137.087 7.51729 139.131 4.98565 139.131C2.45402 139.131 0.400879 137.087 0.400879 134.565C0.400879 132.044 2.45402 129.999 4.98565 129.999ZM26.7033 0.225586C29.2349 0.225586 31.2881 2.26954 31.2881 4.79102C31.2881 7.3135 29.2349 9.35846 26.7033 9.35846C24.1706 9.35846 22.1185 7.3135 22.1185 4.79102C22.1185 2.26954 24.1706 0.225586 26.7033 0.225586ZM26.7033 21.854C29.2349 21.854 31.2881 23.8989 31.2881 26.4204C31.2881 28.9429 29.2349 30.9868 26.7033 30.9868C24.1706 30.9868 22.1185 28.9429 22.1185 26.4204C22.1185 23.8989 24.1706 21.854 26.7033 21.854ZM26.7033 43.4833C29.2349 43.4833 31.2881 45.5273 31.2881 48.0498C31.2881 50.5713 29.2349 52.6152 26.7033 52.6152C24.1706 52.6152 22.1185 50.5713 22.1185 48.0498C22.1185 45.5273 24.1706 43.4833 26.7033 43.4833ZM26.7033 65.1127C29.2349 65.1127 31.2881 67.1567 31.2881 69.6782C31.2881 72.2006 29.2349 74.2446 26.7033 74.2446C24.1706 74.2446 22.1185 72.2006 22.1185 69.6782C22.1185 67.1567 24.1706 65.1127 26.7033 65.1127ZM26.7033 86.7421C29.2349 86.7421 31.2881 88.7861 31.2881 91.3065C31.2881 93.829 29.2349 95.874 26.7033 95.874C24.1706 95.874 22.1185 93.829 22.1185 91.3065C22.1185 88.7861 24.1706 86.7421 26.7033 86.7421ZM26.7033 108.37C29.2349 108.37 31.2881 110.414 31.2881 112.937C31.2881 115.458 29.2349 117.502 26.7033 117.502C24.1706 117.502 22.1185 115.458 22.1185 112.937C22.1185 110.414 24.1706 108.37 26.7033 108.37ZM26.7033 129.999C29.2349 129.999 31.2881 132.044 31.2881 134.565C31.2881 137.087 29.2349 139.131 26.7033 139.131C24.1706 139.131 22.1185 137.087 22.1185 134.565C22.1185 132.044 24.1706 129.999 26.7033 129.999ZM48.4199 0.225586C50.9525 0.225586 53.0047 2.26954 53.0047 4.79102C53.0047 7.3135 50.9525 9.35846 48.4199 9.35846C45.8883 9.35846 43.8351 7.3135 43.8351 4.79102C43.8351 2.26954 45.8883 0.225586 48.4199 0.225586ZM48.4199 21.854C50.9525 21.854 53.0047 23.8989 53.0047 26.4204C53.0047 28.9429 50.9525 30.9868 48.4199 30.9868C45.8883 30.9868 43.8351 28.9429 43.8351 26.4204C43.8351 23.8989 45.8883 21.854 48.4199 21.854ZM48.4199 43.4833C50.9525 43.4833 53.0047 45.5273 53.0047 48.0498C53.0047 50.5713 50.9525 52.6152 48.4199 52.6152C45.8883 52.6152 43.8351 50.5713 43.8351 48.0498C43.8351 45.5273 45.8883 43.4833 48.4199 43.4833ZM48.4199 65.1127C50.9525 65.1127 53.0047 67.1567 53.0047 69.6782C53.0047 72.2006 50.9525 74.2446 48.4199 74.2446C45.8883 74.2446 43.8351 72.2006 43.8351 69.6782C43.8351 67.1567 45.8883 65.1127 48.4199 65.1127ZM48.4199 86.7421C50.9525 86.7421 53.0047 88.7861 53.0047 91.3065C53.0047 93.829 50.9525 95.874 48.4199 95.874C45.8883 95.874 43.8351 93.829 43.8351 91.3065C43.8351 88.7861 45.8883 86.7421 48.4199 86.7421ZM48.4199 108.37C50.9525 108.37 53.0047 110.414 53.0047 112.937C53.0047 115.458 50.9525 117.502 48.4199 117.502C45.8883 117.502 43.8351 115.458 43.8351 112.937C43.8351 110.414 45.8883 108.37 48.4199 108.37ZM48.4199 129.999C50.9525 129.999 53.0047 132.044 53.0047 134.565C53.0047 137.087 50.9525 139.131 48.4199 139.131C45.8883 139.131 43.8351 137.087 43.8351 134.565C43.8351 132.044 45.8883 129.999 48.4199 129.999ZM70.1375 0.225586C72.6692 0.225586 74.7223 2.26954 74.7223 4.79102C74.7223 7.3135 72.6692 9.35846 70.1375 9.35846C67.6059 9.35846 65.5527 7.3135 65.5527 4.79102C65.5527 2.26954 67.6059 0.225586 70.1375 0.225586ZM70.1375 21.854C72.6692 21.854 74.7223 23.8989 74.7223 26.4204C74.7223 28.9429 72.6692 30.9868 70.1375 30.9868C67.6059 30.9868 65.5527 28.9429 65.5527 26.4204C65.5527 23.8989 67.6059 21.854 70.1375 21.854ZM70.1375 43.4833C72.6692 43.4833 74.7223 45.5273 74.7223 48.0498C74.7223 50.5713 72.6692 52.6152 70.1375 52.6152C67.6059 52.6152 65.5527 50.5713 65.5527 48.0498C65.5527 45.5273 67.6059 43.4833 70.1375 43.4833ZM70.1375 65.1127C72.6692 65.1127 74.7223 67.1567 74.7223 69.6782C74.7223 72.2006 72.6692 74.2446 70.1375 74.2446C67.6059 74.2446 65.5527 72.2006 65.5527 69.6782C65.5527 67.1567 67.6059 65.1127 70.1375 65.1127ZM70.1375 86.7421C72.6692 86.7421 74.7223 88.7861 74.7223 91.3065C74.7223 93.829 72.6692 95.874 70.1375 95.874C67.6059 95.874 65.5527 93.829 65.5527 91.3065C65.5527 88.7861 67.6059 86.7421 70.1375 86.7421ZM70.1375 108.37C72.6692 108.37 74.7223 110.414 74.7223 112.937C74.7223 115.458 72.6692 117.502 70.1375 117.502C67.6059 117.502 65.5527 115.458 65.5527 112.937C65.5527 110.414 67.6059 108.37 70.1375 108.37ZM70.1375 129.999C72.6692 129.999 74.7223 132.044 74.7223 134.565C74.7223 137.087 72.6692 139.131 70.1375 139.131C67.6059 139.131 65.5527 137.087 65.5527 134.565C65.5527 132.044 67.6059 129.999 70.1375 129.999ZM91.8552 0.225586C94.3868 0.225586 96.4399 2.26954 96.4399 4.79102C96.4399 7.3135 94.3868 9.35846 91.8552 9.35846C89.3225 9.35846 87.2704 7.3135 87.2704 4.79102C87.2704 2.26954 89.3225 0.225586 91.8552 0.225586ZM91.8552 21.854C94.3868 21.854 96.4399 23.8989 96.4399 26.4204C96.4399 28.9429 94.3868 30.9868 91.8552 30.9868C89.3225 30.9868 87.2704 28.9429 87.2704 26.4204C87.2704 23.8989 89.3225 21.854 91.8552 21.854ZM91.8552 43.4833C94.3868 43.4833 96.4399 45.5273 96.4399 48.0498C96.4399 50.5713 94.3868 52.6152 91.8552 52.6152C89.3225 52.6152 87.2704 50.5713 87.2704 48.0498C87.2704 45.5273 89.3225 43.4833 91.8552 43.4833ZM91.8552 65.1127C94.3868 65.1127 96.4399 67.1567 96.4399 69.6782C96.4399 72.2006 94.3868 74.2446 91.8552 74.2446C89.3225 74.2446 87.2704 72.2006 87.2704 69.6782C87.2704 67.1567 89.3225 65.1127 91.8552 65.1127ZM91.8552 86.7421C94.3868 86.7421 96.4399 88.7861 96.4399 91.3065C96.4399 93.829 94.3868 95.874 91.8552 95.874C89.3225 95.874 87.2704 93.829 87.2704 91.3065C87.2704 88.7861 89.3225 86.7421 91.8552 86.7421ZM91.8552 108.37C94.3868 108.37 96.4399 110.414 96.4399 112.937C96.4399 115.458 94.3868 117.502 91.8552 117.502C89.3225 117.502 87.2704 115.458 87.2704 112.937C87.2704 110.414 89.3225 108.37 91.8552 108.37ZM91.8552 129.999C94.3868 129.999 96.4399 132.044 96.4399 134.565C96.4399 137.087 94.3868 139.131 91.8552 139.131C89.3225 139.131 87.2704 137.087 87.2704 134.565C87.2704 132.044 89.3225 129.999 91.8552 129.999Z" fill="#70A2DB"/>
</svg>
