<svg width="128" height="128" viewBox="0 0 128 128" fill="none" xmlns="http://www.w3.org/2000/svg">
<g style="mix-blend-mode:multiply">
<path fill-rule="evenodd" clip-rule="evenodd" d="M123.016 128C122.034 127.998 121.073 127.704 120.257 127.155C119.441 126.606 118.806 125.827 118.431 124.917C118.056 124.006 117.96 123.005 118.153 122.039C118.346 121.074 118.82 120.187 119.516 119.492C120.212 118.796 121.098 118.323 122.062 118.132C123.026 117.94 124.025 118.04 124.933 118.417C125.841 118.794 126.617 119.433 127.163 120.252C127.709 121.071 128 122.034 128 123.018C128 123.674 127.871 124.322 127.62 124.927C127.37 125.533 127.003 126.082 126.54 126.545C126.077 127.008 125.527 127.374 124.923 127.624C124.318 127.874 123.67 128.001 123.016 128ZM123.016 104.397C122.033 104.396 121.072 104.102 120.255 103.553C119.438 103.005 118.802 102.226 118.427 101.315C118.051 100.404 117.954 99.4023 118.147 98.4361C118.339 97.4698 118.813 96.5824 119.509 95.8861C120.205 95.1897 121.091 94.7157 122.056 94.5237C123.021 94.3318 124.02 94.4306 124.929 94.8077C125.837 95.1847 126.614 95.8231 127.161 96.6422C127.707 97.4613 127.999 98.4245 128 99.4099C128 100.065 127.871 100.714 127.62 101.32C127.369 101.925 127.002 102.475 126.539 102.938C126.077 103.401 125.527 103.768 124.923 104.019C124.318 104.269 123.671 104.398 123.016 104.397ZM123.016 80.7888C122.033 80.7871 121.072 80.4933 120.255 79.9447C119.438 79.3961 118.802 78.6172 118.427 77.7064C118.051 76.7956 117.954 75.7939 118.147 74.8276C118.339 73.8614 118.813 72.9739 119.509 72.2776C120.205 71.5812 121.091 71.1071 122.056 70.9151C123.021 70.7232 124.02 70.822 124.929 71.1991C125.837 71.5761 126.614 72.2146 127.161 73.0338C127.707 73.8529 127.999 74.8159 128 75.8013C128 76.4567 127.871 77.1057 127.62 77.711C127.369 78.3164 127.002 78.8663 126.539 79.3295C126.077 79.7926 125.527 80.1598 124.923 80.4102C124.318 80.6606 123.671 80.7893 123.016 80.7888ZM123.016 57.1803C122.033 57.1786 121.072 56.8847 120.255 56.3358C119.438 55.787 118.801 55.0077 118.426 54.0966C118.051 53.1855 117.954 52.1835 118.147 51.2171C118.34 50.2506 118.815 49.3633 119.511 48.6672C120.208 47.9711 121.094 47.4973 122.059 47.306C123.024 47.1147 124.024 47.2143 124.933 47.5923C125.841 47.9702 126.618 48.6096 127.164 49.4295C127.709 50.2494 128.001 51.213 128 52.1986C127.998 53.5213 127.472 54.7892 126.538 55.7234C125.603 56.6576 124.337 57.1817 123.016 57.1803ZM123.016 33.5717C122.034 33.5695 121.073 33.2754 120.257 32.7267C119.441 32.1779 118.806 31.3992 118.431 30.4887C118.056 29.5782 117.96 28.5768 118.153 27.6113C118.346 26.6457 118.82 25.7592 119.516 25.0636C120.212 24.3681 121.098 23.8947 122.062 23.7034C123.026 23.5121 124.025 23.6115 124.933 23.9889C125.841 24.3662 126.617 25.0047 127.163 25.8237C127.709 26.6427 128 27.6053 128 28.5901C128 29.2453 127.871 29.894 127.62 30.4992C127.37 31.1043 127.003 31.654 126.54 32.1167C126.077 32.5795 125.527 32.9461 124.923 33.1958C124.318 33.4455 123.67 33.5732 123.016 33.5717ZM123.016 9.96901C122.033 9.96731 121.072 9.67367 120.255 9.12506C119.438 8.57645 118.802 7.79757 118.427 6.88679C118.051 5.976 117.954 4.97423 118.147 4.00797C118.339 3.04171 118.813 2.1543 119.509 1.45795C120.205 0.761598 121.091 0.287457 122.056 0.0954997C123.021 -0.0964571 124.02 0.00234657 124.929 0.379425C125.837 0.756504 126.614 1.39497 127.161 2.21411C127.707 3.03324 127.999 3.99629 128 4.98165C128 5.63702 127.871 6.28589 127.62 6.89126C127.369 7.49663 127.002 8.04667 126.539 8.50982C126.077 8.97297 125.527 9.3402 124.923 9.59058C124.318 9.84096 123.671 9.96953 123.016 9.96901ZM99.4076 128C98.4247 127.998 97.4645 127.704 96.6484 127.155C95.8322 126.606 95.1967 125.827 94.8222 124.917C94.4476 124.006 94.3507 123.005 94.5439 122.039C94.737 121.074 95.2114 120.187 95.9073 119.492C96.6031 118.796 97.489 118.323 98.4532 118.132C99.4174 117.94 100.417 118.04 101.324 118.417C102.232 118.794 103.008 119.433 103.554 120.252C104.1 121.071 104.391 122.034 104.391 123.018C104.391 123.674 104.262 124.322 104.012 124.927C103.761 125.533 103.394 126.082 102.931 126.545C102.468 127.008 101.918 127.374 101.314 127.624C100.709 127.874 100.061 128.001 99.4076 128ZM99.4076 104.397C98.4241 104.396 97.4633 104.102 96.6463 103.553C95.8294 103.005 95.1931 102.226 94.8178 101.315C94.4424 100.404 94.345 99.4023 94.5377 98.4361C94.7303 97.4698 95.2045 96.5824 95.9004 95.8861C96.5962 95.1897 97.4824 94.7157 98.447 94.5237C99.4116 94.3318 100.411 94.4306 101.32 94.8077C102.229 95.1847 103.005 95.8231 103.552 96.6422C104.099 97.4613 104.391 98.4245 104.391 99.4099C104.391 100.065 104.262 100.714 104.011 101.32C103.761 101.925 103.393 102.475 102.931 102.938C102.468 103.401 101.919 103.768 101.314 104.019C100.71 104.269 100.062 104.398 99.4076 104.397ZM99.4076 80.7888C98.4241 80.7871 97.4633 80.4933 96.6463 79.9447C95.8294 79.3961 95.1931 78.6172 94.8178 77.7064C94.4424 76.7956 94.345 75.7939 94.5377 74.8276C94.7303 73.8614 95.2045 72.9739 95.9004 72.2776C96.5962 71.5812 97.4824 71.1071 98.447 70.9151C99.4116 70.7232 100.411 70.822 101.32 71.1991C102.229 71.5761 103.005 72.2146 103.552 73.0338C104.099 73.8529 104.391 74.8159 104.391 75.8013C104.391 76.4567 104.262 77.1057 104.011 77.711C103.761 78.3164 103.393 78.8663 102.931 79.3295C102.468 79.7926 101.919 80.1598 101.314 80.4102C100.71 80.6606 100.062 80.7893 99.4076 80.7888ZM99.4076 57.1803C98.4239 57.1786 97.4628 56.8847 96.6457 56.3358C95.8286 55.787 95.1923 55.0077 94.8172 54.0966C94.4421 53.1855 94.3449 52.1835 94.5381 51.2171C94.7312 50.2506 95.206 49.3633 95.9024 48.6672C96.5988 47.9711 97.4855 47.4973 98.4505 47.306C99.4155 47.1147 100.415 47.2143 101.324 47.5923C102.232 47.9702 103.009 48.6096 103.555 49.4295C104.101 50.2494 104.392 51.213 104.391 52.1986C104.389 53.5213 103.864 54.7892 102.929 55.7234C101.994 56.6576 100.728 57.1817 99.4076 57.1803ZM99.4076 33.5717C98.4247 33.5695 97.4645 33.2754 96.6484 32.7267C95.8322 32.1779 95.1967 31.3992 94.8222 30.4887C94.4476 29.5782 94.3507 28.5768 94.5439 27.6113C94.737 26.6457 95.2114 25.7592 95.9073 25.0636C96.6031 24.3681 97.489 23.8947 98.4532 23.7034C99.4174 23.5121 100.417 23.6115 101.324 23.9889C102.232 24.3662 103.008 25.0047 103.554 25.8237C104.1 26.6427 104.391 27.6053 104.391 28.5901C104.391 29.2453 104.262 29.894 104.012 30.4992C103.761 31.1043 103.394 31.654 102.931 32.1167C102.468 32.5795 101.918 32.9461 101.314 33.1958C100.709 33.4455 100.061 33.5732 99.4076 33.5717ZM99.4076 9.96901C98.4241 9.96731 97.4633 9.67367 96.6463 9.12506C95.8294 8.57645 95.1931 7.79757 94.8178 6.88679C94.4424 5.976 94.345 4.97423 94.5377 4.00797C94.7303 3.04171 95.2045 2.1543 95.9004 1.45795C96.5962 0.761598 97.4824 0.287457 98.447 0.0954997C99.4116 -0.0964571 100.411 0.00234657 101.32 0.379425C102.229 0.756504 103.005 1.39497 103.552 2.21411C104.099 3.03324 104.391 3.99629 104.391 4.98165C104.391 5.63702 104.262 6.28589 104.011 6.89126C103.761 7.49663 103.393 8.04667 102.931 8.50982C102.468 8.97297 101.919 9.3402 101.314 9.59058C100.71 9.84096 100.062 9.96953 99.4076 9.96901ZM75.7987 128C74.8158 127.998 73.8557 127.704 73.0395 127.155C72.2234 126.606 71.5878 125.827 71.2132 124.917C70.8387 124.006 70.7419 123.005 70.935 122.039C71.1282 121.074 71.6026 120.187 72.2984 119.492C72.9942 118.796 73.8802 118.323 74.8444 118.132C75.8086 117.94 76.8076 118.04 77.7155 118.417C78.6234 118.794 79.3993 119.433 79.9451 120.252C80.4909 121.071 80.7822 122.034 80.7823 123.018C80.7803 124.341 80.2542 125.609 79.3197 126.543C78.3852 127.477 77.1188 128.001 75.7987 128ZM75.7987 104.397C74.8153 104.396 73.8544 104.102 73.0374 103.553C72.2205 103.005 71.5842 102.226 71.2088 101.315C70.8335 100.404 70.736 99.4023 70.9287 98.4361C71.1214 97.4698 71.5957 96.5824 72.2915 95.8861C72.9873 95.1897 73.8735 94.7157 74.8381 94.5237C75.8027 94.3318 76.8025 94.4306 77.7111 94.8077C78.6197 95.1847 79.3964 95.8231 79.943 96.6422C80.4896 97.4613 80.7817 98.4245 80.7823 99.4099C80.7806 100.733 80.2548 102.002 79.3204 102.937C78.386 103.872 77.1194 104.397 75.7987 104.397ZM75.7987 80.7888C74.8153 80.7871 73.8544 80.4933 73.0374 79.9447C72.2205 79.3961 71.5842 78.6172 71.2088 77.7064C70.8335 76.7956 70.736 75.7939 70.9287 74.8276C71.1214 73.8614 71.5957 72.9739 72.2915 72.2776C72.9873 71.5812 73.8735 71.1071 74.8381 70.9151C75.8027 70.7232 76.8025 70.822 77.7111 71.1991C78.6197 71.5761 79.3964 72.2146 79.943 73.0338C80.4896 73.8529 80.7817 74.8159 80.7823 75.8013C80.7806 77.1245 80.2548 78.3931 79.3204 79.3282C78.386 80.2633 77.1194 80.7886 75.7987 80.7888ZM75.7987 57.1803C74.815 57.1786 73.8539 56.8847 73.0369 56.3358C72.2198 55.787 71.5834 55.0077 71.2083 54.0966C70.8331 53.1855 70.7361 52.1835 70.9292 51.2171C71.1224 50.2506 71.5971 49.3633 72.2935 48.6672C72.9899 47.9711 73.8767 47.4973 74.8417 47.306C75.8067 47.1147 76.8066 47.2143 77.7151 47.5923C78.6236 47.9702 79.3998 48.6096 79.9458 49.4295C80.4917 50.2494 80.7828 51.213 80.7823 52.1986C80.7794 53.5209 80.253 54.788 79.3187 55.722C78.3845 56.6559 77.1185 57.1805 75.7987 57.1803ZM75.7987 33.5717C74.8158 33.5695 73.8557 33.2754 73.0395 32.7267C72.2234 32.1779 71.5878 31.3992 71.2132 30.4887C70.8387 29.5782 70.7419 28.5768 70.935 27.6113C71.1282 26.6457 71.6026 25.7592 72.2984 25.0636C72.9942 24.3681 73.8802 23.8947 74.8444 23.7034C75.8086 23.5121 76.8076 23.6115 77.7155 23.9889C78.6234 24.3662 79.3993 25.0047 79.9451 25.8237C80.4909 26.6427 80.7822 27.6053 80.7823 28.5901C80.7803 29.9127 80.2542 31.1805 79.3197 32.1146C78.3852 33.0488 77.1188 33.5728 75.7987 33.5717ZM75.7987 9.96901C74.8153 9.96731 73.8544 9.67367 73.0374 9.12506C72.2205 8.57645 71.5842 7.79757 71.2088 6.88679C70.8335 5.976 70.736 4.97423 70.9287 4.00797C71.1214 3.04171 71.5957 2.1543 72.2915 1.45795C72.9873 0.761598 73.8735 0.287457 74.8381 0.0954997C75.8027 -0.0964571 76.8025 0.00234657 77.7111 0.379425C78.6197 0.756504 79.3964 1.39497 79.943 2.21411C80.4896 3.03324 80.7817 3.99629 80.7823 4.98165C80.7806 6.30486 80.2548 7.5733 79.3204 8.50842C78.386 9.44354 77.1194 9.96886 75.7987 9.96901ZM52.1841 128C51.2015 127.997 50.2419 127.702 49.4265 127.152C48.6111 126.603 47.9765 125.823 47.6028 124.913C47.2291 124.002 47.133 123.001 47.3268 122.036C47.5206 121.071 47.9955 120.185 48.6915 119.49C49.3876 118.795 50.2735 118.322 51.2376 118.131C52.2016 117.94 53.2005 118.04 54.108 118.418C55.0155 118.795 55.791 119.434 56.3366 120.252C56.8822 121.071 57.1733 122.034 57.1733 123.018C57.1725 123.674 57.0428 124.323 56.7916 124.928C56.5404 125.533 56.1726 126.082 55.7092 126.545C55.2459 127.008 54.696 127.374 54.0912 127.624C53.4863 127.874 52.8383 128.001 52.1841 128ZM52.1841 104.397C51.2009 104.394 50.2406 104.1 49.4244 103.55C48.6082 103.001 47.9728 102.222 47.5983 101.311C47.2239 100.4 47.1273 99.3985 47.3206 98.4326C47.5139 97.4667 47.9886 96.5799 48.6846 95.8841C49.3807 95.1883 50.2669 94.7148 51.2313 94.5233C52.1958 94.3318 53.1953 94.431 54.1035 94.8082C55.0118 95.1855 55.7881 95.8239 56.3345 96.6429C56.8809 97.4619 57.1728 98.4248 57.1733 99.4099C57.1727 100.066 57.0431 100.715 56.792 101.32C56.5409 101.926 56.1731 102.476 55.7098 102.939C55.2465 103.402 54.6967 103.769 54.0917 104.02C53.4868 104.27 52.8386 104.398 52.1841 104.397ZM52.1841 80.7888C51.2009 80.786 50.2406 80.4912 49.4244 79.9419C48.6082 79.3926 47.9728 78.6134 47.5983 77.7025C47.2239 76.7916 47.1273 75.79 47.3206 74.8241C47.5139 73.8582 47.9886 72.9714 48.6846 72.2756C49.3807 71.5799 50.2669 71.1064 51.2313 70.9149C52.1958 70.7234 53.1953 70.8224 54.1035 71.1996C55.0118 71.5769 55.7881 72.2154 56.3345 73.0344C56.8809 73.8535 57.1728 74.8162 57.1733 75.8013C57.1727 76.457 57.0431 77.1062 56.792 77.7117C56.5409 78.3173 56.1731 78.8674 55.7098 79.3306C55.2465 79.7937 54.6967 80.1609 54.0917 80.4111C53.4868 80.6613 52.8386 80.7896 52.1841 80.7888ZM52.1841 57.1803C51.2007 57.1775 50.2401 56.8826 49.4238 56.333C48.6075 55.7835 47.972 55.0039 47.5978 54.0927C47.2235 53.1814 47.1272 52.1796 47.321 51.2136C47.5148 50.2475 47.99 49.3606 48.6866 48.6651C49.3833 47.9695 50.27 47.4966 51.2348 47.3057C52.1997 47.1149 53.1993 47.2147 54.1075 47.5928C55.0157 47.971 55.7916 48.6103 56.3373 49.43C56.883 50.2498 57.1739 51.2132 57.1733 52.1986C57.1708 53.522 56.6438 54.7902 55.7082 55.7244C54.7726 56.6585 53.505 57.1823 52.1841 57.1803ZM52.1841 33.5717C51.2015 33.5683 50.2419 33.2733 49.4265 32.7239C48.6111 32.1744 47.9765 31.3952 47.6028 30.4846C47.2291 29.574 47.133 28.573 47.3268 27.6078C47.5206 26.6425 47.9955 25.7565 48.6915 25.0615C49.3876 24.3665 50.2735 23.8938 51.2376 23.703C52.2016 23.5121 53.2005 23.6119 54.108 23.9894C55.0155 24.367 55.791 25.0054 56.3366 25.8242C56.8822 26.6431 57.1733 27.6056 57.1733 28.5901C57.1725 29.2455 57.0428 29.8944 56.7916 30.4996C56.5404 31.1047 56.1726 31.6542 55.7092 32.1169C55.2459 32.5795 54.696 32.9462 54.0912 33.1958C53.4863 33.4455 52.8383 33.5732 52.1841 33.5717ZM52.1841 9.96901C51.2009 9.96618 50.2406 9.67156 49.4244 9.12226C48.6082 8.57297 47.9728 7.79361 47.5983 6.88273C47.2239 5.97185 47.1273 4.97035 47.3206 4.00447C47.5139 3.03859 47.9886 2.15177 48.6846 1.45599C49.3807 0.760213 50.2669 0.286575 51.2313 0.0950804C52.1958 -0.0964142 53.1953 0.00273971 54.1035 0.379984C55.0118 0.757229 55.7881 1.39566 56.3345 2.21467C56.8809 3.03368 57.1728 3.99654 57.1733 4.98165C57.1727 5.63737 57.0431 6.28656 56.792 6.8921C56.5409 7.49764 56.1731 8.04766 55.7098 8.5108C55.2465 8.97393 54.6967 9.34107 54.0917 9.59128C53.4868 9.84149 52.8386 9.96984 52.1841 9.96901ZM28.5753 128C27.5924 127.998 26.6322 127.704 25.816 127.155C24.9999 126.606 24.3643 125.827 23.9898 124.917C23.6152 124.006 23.5184 123.005 23.7115 122.039C23.9047 121.074 24.3791 120.187 25.0749 119.492C25.7708 118.796 26.6567 118.323 27.6209 118.132C28.5851 117.94 29.5842 118.04 30.492 118.417C31.3999 118.794 32.1758 119.433 32.7216 120.252C33.2675 121.071 33.5588 122.034 33.5588 123.018C33.5571 124.341 33.0312 125.609 32.0966 126.543C31.162 127.477 29.8954 128.001 28.5753 128ZM28.5753 104.397C27.5918 104.396 26.6309 104.102 25.814 103.553C24.997 103.005 24.3607 102.226 23.9854 101.315C23.6101 100.404 23.5126 99.4023 23.7053 98.4361C23.898 97.4698 24.3722 96.5824 25.068 95.8861C25.7639 95.1897 26.6501 94.7157 27.6147 94.5237C28.5793 94.3318 29.579 94.4306 30.4876 94.8077C31.3962 95.1847 32.1729 95.8231 32.7195 96.6422C33.2661 97.4613 33.5582 98.4245 33.5588 99.4099C33.5574 100.733 33.0318 102.002 32.0973 102.937C31.1628 103.872 29.896 104.397 28.5753 104.397ZM28.5753 80.7888C27.5918 80.7871 26.6309 80.4933 25.814 79.9447C24.997 79.3961 24.3607 78.6172 23.9854 77.7064C23.6101 76.7956 23.5126 75.7939 23.7053 74.8276C23.898 73.8614 24.3722 72.9739 25.068 72.2776C25.7639 71.5812 26.6501 71.1071 27.6147 70.9151C28.5793 70.7232 29.579 70.822 30.4876 71.1991C31.3962 71.5761 32.1729 72.2146 32.7195 73.0338C33.2661 73.8529 33.5582 74.8159 33.5588 75.8013C33.5574 77.1246 33.0318 78.3933 32.0973 79.3285C31.1628 80.2637 29.896 80.7889 28.5753 80.7888ZM28.5753 57.1803C27.5916 57.1786 26.6305 56.8847 25.8134 56.3358C24.9963 55.787 24.36 55.0077 23.9848 54.0966C23.6097 53.1855 23.5126 52.1835 23.7058 51.2171C23.8989 50.2506 24.3737 49.3633 25.0701 48.6672C25.7664 47.9711 26.6532 47.4973 27.6182 47.306C28.5832 47.1147 29.5831 47.2143 30.4916 47.5923C31.4001 47.9702 32.1764 48.6096 32.7223 49.4295C33.2682 50.2494 33.5593 51.213 33.5588 52.1986C33.5562 53.521 33.03 54.7884 32.0956 55.7224C31.1613 56.6564 29.8951 57.1808 28.5753 57.1803ZM28.5753 33.5717C27.5924 33.5695 26.6322 33.2754 25.816 32.7267C24.9999 32.1779 24.3643 31.3992 23.9898 30.4887C23.6152 29.5782 23.5184 28.5768 23.7115 27.6113C23.9047 26.6457 24.3791 25.7592 25.0749 25.0636C25.7708 24.3681 26.6567 23.8947 27.6209 23.7034C28.5851 23.5121 29.5842 23.6115 30.492 23.9889C31.3999 24.3662 32.1758 25.0047 32.7216 25.8237C33.2675 26.6427 33.5588 27.6053 33.5588 28.5901C33.5571 29.9128 33.0312 31.1807 32.0966 32.1149C31.162 33.0491 29.8954 33.5731 28.5753 33.5717ZM28.5753 9.96901C27.5918 9.96731 26.6309 9.67367 25.814 9.12506C24.997 8.57645 24.3607 7.79757 23.9854 6.88679C23.6101 5.976 23.5126 4.97423 23.7053 4.00797C23.898 3.04171 24.3722 2.1543 25.068 1.45795C25.7639 0.761598 26.6501 0.287457 27.6147 0.0954997C28.5793 -0.0964571 29.579 0.00234657 30.4876 0.379425C31.3962 0.756504 32.1729 1.39497 32.7195 2.21411C33.2661 3.03324 33.5582 3.99629 33.5588 4.98165C33.5574 6.30496 33.0318 7.57365 32.0973 8.50884C31.1628 9.44402 29.896 9.96916 28.5753 9.96901ZM4.96636 128C3.98347 127.998 3.02329 127.704 2.20714 127.155C1.39098 126.606 0.755503 125.827 0.380929 124.917C0.00635457 124.006 -0.0904975 123.005 0.102641 122.039C0.295779 121.074 0.770222 120.187 1.46603 119.492C2.16185 118.796 3.04782 118.323 4.012 118.132C4.97617 117.94 5.97533 118.04 6.88319 118.417C7.79106 118.794 8.56694 119.433 9.11278 120.252C9.65861 121.071 9.94987 122.034 9.94987 123.018C9.94987 123.674 9.82094 124.322 9.57036 124.927C9.31977 125.533 8.95249 126.082 8.48958 126.545C8.02666 127.008 7.47722 127.374 6.87266 127.624C6.2681 127.874 5.62027 128.001 4.96636 128ZM4.96636 104.397C3.9829 104.396 3.02205 104.102 2.20511 103.553C1.38818 103.005 0.751846 102.226 0.376533 101.315C0.00122128 100.404 -0.0962634 99.4023 0.0964317 98.4361C0.289127 97.4698 0.763314 96.5824 1.45913 95.8861C2.15494 95.1897 3.04116 94.7157 4.00579 94.5237C4.97041 94.3318 5.9702 94.4306 6.8788 94.8077C7.7874 95.1847 8.56406 95.8231 9.11068 96.6422C9.6573 97.4613 9.94931 98.4245 9.94987 99.4099C9.94965 100.065 9.8206 100.714 9.57001 101.32C9.31941 101.925 8.95223 102.475 8.48944 102.938C8.02664 103.401 7.47729 103.768 6.8728 104.019C6.26831 104.269 5.62048 104.398 4.96636 104.397ZM4.96636 80.7888C3.9829 80.7871 3.02205 80.4933 2.20511 79.9447C1.38818 79.3961 0.751846 78.6172 0.376533 77.7064C0.00122128 76.7956 -0.0962634 75.7939 0.0964317 74.8276C0.289127 73.8614 0.763314 72.9739 1.45913 72.2776C2.15494 71.5812 3.04116 71.1071 4.00579 70.9151C4.97041 70.7232 5.9702 70.822 6.8788 71.1991C7.7874 71.5761 8.56406 72.2146 9.11068 73.0338C9.6573 73.8529 9.94931 74.8159 9.94987 75.8013C9.94965 76.4567 9.8206 77.1057 9.57001 77.711C9.31941 78.3164 8.95223 78.8663 8.48944 79.3295C8.02664 79.7926 7.47729 80.1598 6.8728 80.4102C6.26831 80.6606 5.62048 80.7893 4.96636 80.7888ZM4.96636 57.1803C3.98266 57.1786 3.02154 56.8847 2.20448 56.3358C1.38742 55.787 0.751119 55.0077 0.375975 54.0966C0.000831443 53.1855 -0.0963081 52.1835 0.0968503 51.2171C0.290009 50.2506 0.764766 49.3633 1.46115 48.6672C2.15754 47.9711 3.04428 47.4973 4.00927 47.306C4.97427 47.1147 5.9742 47.2143 6.88271 47.5923C7.79121 47.9702 8.56754 48.6096 9.11347 49.4295C9.65941 50.2494 9.95044 51.213 9.94987 52.1986C9.94821 53.5213 9.42232 54.7892 8.48776 55.7234C7.5532 56.6576 6.28652 57.1817 4.96636 57.1803ZM4.96636 33.5717C3.98347 33.5695 3.02329 33.2754 2.20714 32.7267C1.39098 32.1779 0.755503 31.3992 0.380929 30.4887C0.00635457 29.5782 -0.0904975 28.5768 0.102641 27.6113C0.295779 26.6457 0.770222 25.7592 1.46603 25.0636C2.16185 24.3681 3.04782 23.8947 4.012 23.7034C4.97617 23.5121 5.97533 23.6115 6.88319 23.9889C7.79106 24.3662 8.56694 25.0047 9.11278 25.8237C9.65861 26.6427 9.94987 27.6053 9.94987 28.5901C9.94987 29.2453 9.82094 29.894 9.57036 30.4992C9.31977 31.1043 8.95249 31.654 8.48958 32.1167C8.02666 32.5795 7.47722 32.9461 6.87266 33.1958C6.2681 33.4455 5.62027 33.5732 4.96636 33.5717ZM4.96636 9.96901C3.9829 9.96731 3.02205 9.67367 2.20511 9.12506C1.38818 8.57645 0.751846 7.79757 0.376533 6.88679C0.00122128 5.976 -0.0962634 4.97423 0.0964317 4.00797C0.289127 3.04171 0.763314 2.1543 1.45913 1.45795C2.15494 0.761598 3.04116 0.287457 4.00579 0.0954997C4.97041 -0.0964571 5.9702 0.00234657 6.8788 0.379425C7.7874 0.756504 8.56406 1.39497 9.11068 2.21411C9.6573 3.03324 9.94931 3.99629 9.94987 4.98165C9.94965 5.63702 9.8206 6.28589 9.57001 6.89126C9.31941 7.49663 8.95223 8.04667 8.48944 8.50982C8.02664 8.97297 7.47729 9.3402 6.8728 9.59058C6.26831 9.84096 5.62048 9.96953 4.96636 9.96901Z" fill="#2A6DBA" fill-opacity="0.5"/>
</g>
</svg>
