<svg width="46" height="46" viewBox="0 0 46 46" fill="none" xmlns="http://www.w3.org/2000/svg">
<path d="M0 11.5C0 8.32436 2.57436 5.75 5.75 5.75H40.25C43.4256 5.75 46 8.32436 46 11.5V34.5C46 37.6756 43.4256 40.25 40.25 40.25H5.75C2.57436 40.25 0 37.6756 0 34.5V11.5ZM5.75 8.625C4.16218 8.625 2.875 9.91218 2.875 11.5V12.1236L23 24.1986L43.125 12.1236V11.5C43.125 9.91218 41.8378 8.625 40.25 8.625H5.75ZM43.125 15.4764L29.5893 23.5978L43.125 31.9275V15.4764ZM43.0279 35.2435L26.8118 25.2643L23 27.5514L19.1882 25.2643L2.97207 35.2435C3.29976 36.4709 4.41931 37.375 5.75 37.375H40.25C41.5807 37.375 42.7002 36.4709 43.0279 35.2435ZM2.875 31.9275L16.4107 23.5978L2.875 15.4764V31.9275Z" fill="white"/>
</svg>
