<svg width="27" height="26" viewBox="0 0 27 26" fill="none" xmlns="http://www.w3.org/2000/svg">
<path d="M0.5 6.5C0.5 4.70507 1.95507 3.25 3.75 3.25H23.25C25.0449 3.25 26.5 4.70507 26.5 6.5V19.5C26.5 21.2949 25.0449 22.75 23.25 22.75H3.75C1.95508 22.75 0.5 21.2949 0.5 19.5V6.5ZM3.75 4.875C2.85254 4.875 2.125 5.60254 2.125 6.5V6.85247L13.5 13.6775L24.875 6.85247V6.5C24.875 5.60254 24.1475 4.875 23.25 4.875H3.75ZM24.875 8.74753L17.2244 13.3379L24.875 18.046V8.74753ZM24.8201 19.9203L15.6545 14.2798L13.5 15.5725L11.3455 14.2798L2.17987 19.9203C2.36508 20.614 2.99787 21.125 3.75 21.125H23.25C24.0021 21.125 24.6349 20.614 24.8201 19.9203ZM2.125 18.046L9.77562 13.3379L2.125 8.74753V18.046Z" fill="#0460B4"/>
</svg>
