<svg width="34" height="34" viewBox="0 0 34 34" fill="none" xmlns="http://www.w3.org/2000/svg">
<path d="M17.0001 10.1027C13.1908 10.1027 10.1028 13.1907 10.1028 16.9999C10.1028 20.8092 13.1908 23.8972 17.0001 23.8972C20.8093 23.8972 23.8973 20.8092 23.8973 16.9999C23.8973 13.1907 20.8093 10.1027 17.0001 10.1027ZM12.2278 16.9999C12.2278 14.3643 14.3644 12.2277 17.0001 12.2277C19.6357 12.2277 21.7723 14.3643 21.7723 16.9999C21.7723 19.6356 19.6357 21.7722 17.0001 21.7722C14.3644 21.7722 12.2278 19.6356 12.2278 16.9999Z" fill="black"/>
<path d="M20.8175 2.85467C19.6956 -0.951559 14.3044 -0.951556 13.1825 2.85467L12.9831 3.53131C12.649 4.66478 11.3543 5.20105 10.3166 4.63579L9.69713 4.29837C6.21243 2.40024 2.40025 6.21244 4.29837 9.69713L4.63579 10.3166C5.20105 11.3543 4.66478 12.649 3.53131 12.9831L2.85467 13.1825C-0.951559 14.3044 -0.951556 19.6956 2.85467 20.8175L3.53131 21.0169C4.66478 21.351 5.20105 22.6457 4.63579 23.6834L4.29837 24.3029C2.40025 27.7876 6.21242 31.5998 9.69713 29.7016L10.3166 29.3642C11.3543 28.799 12.649 29.3352 12.9831 30.4687L13.1825 31.1453C14.3044 34.9516 19.6956 34.9515 20.8175 31.1453L21.0169 30.4687C21.351 29.3352 22.6457 28.799 23.6834 29.3642L24.3029 29.7016C27.7876 31.5998 31.5998 27.7876 29.7016 24.3029L29.3642 23.6834C28.799 22.6457 29.3352 21.351 30.4687 21.0169L31.1453 20.8175C34.9516 19.6956 34.9516 14.3044 31.1453 13.1825L30.4687 12.9831C29.3352 12.649 28.799 11.3543 29.3642 10.3166L29.7016 9.69713C31.5998 6.21242 27.7876 2.40025 24.3029 4.29837L23.6834 4.6358C22.6457 5.20105 21.351 4.66478 21.0169 3.53131L20.8175 2.85467ZM15.2208 3.45546C15.7437 1.68151 18.2563 1.68151 18.7792 3.45546L18.9786 4.13209C19.6955 6.56411 22.4733 7.71473 24.6999 6.50191L25.3193 6.16449C26.9434 5.27984 28.7202 7.05657 27.8355 8.68065L27.4981 9.30012C26.2853 11.5267 27.4359 14.3045 29.8679 15.0214L30.5445 15.2208C32.3185 15.7437 32.3185 18.2563 30.5445 18.7792L29.8679 18.9786C27.4359 19.6955 26.2853 22.4733 27.4981 24.6999L27.8355 25.3194C28.7202 26.9434 26.9434 28.7202 25.3194 27.8355L24.6999 27.4981C22.4733 26.2853 19.6955 27.4359 18.9786 29.8679L18.7792 30.5445C18.2563 32.3185 15.7437 32.3185 15.2208 30.5445L15.0214 29.8679C14.3045 27.4359 11.5267 26.2853 9.30012 27.4981L8.68065 27.8355C7.05656 28.7202 5.27984 26.9434 6.16449 25.3193L6.50191 24.6999C7.71473 22.4733 6.56412 19.6955 4.1321 18.9786L3.45546 18.7792C1.68151 18.2563 1.68151 15.7437 3.45546 15.2208L4.13209 15.0214C6.56411 14.3045 7.71473 11.5267 6.50191 9.30012L6.16449 8.68065C5.27984 7.05656 7.05656 5.27984 8.68065 6.16449L9.30012 6.50191C11.5267 7.71473 14.3045 6.56412 15.0214 4.13209L15.2208 3.45546Z" fill="black"/>
</svg>
