<svg width="56" height="56" viewBox="0 0 56 56" fill="none" xmlns="http://www.w3.org/2000/svg">
<path fill-rule="evenodd" clip-rule="evenodd" d="M14 14C14 6.26801 20.268 0 28 0C35.732 0 42 6.26801 42 14C42 21.1393 36.656 27.0305 29.75 27.8917V47.25C29.75 48.2165 28.9665 49 28 49C27.0335 49 26.25 48.2165 26.25 47.25V27.8917C19.344 27.0305 14 21.1393 14 14ZM22.7265 44.0098C22.8844 44.9633 22.2395 45.8643 21.286 46.0223C18.7959 46.4348 16.809 47.0535 15.496 47.7453C14.8387 48.0917 14.4277 48.4161 14.2002 48.674C14.0909 48.7978 14.0405 48.8876 14.0184 48.9384C14.0077 48.9632 14.0034 48.9792 14.0017 48.987C14.0001 48.9946 14 49.0001 14 49.0001C14 49.0001 13.9998 49.0087 14.0053 49.0268C14.0113 49.0463 14.0259 49.0849 14.0614 49.1426C14.1357 49.2636 14.2871 49.4455 14.5709 49.6692C15.1487 50.1245 16.0933 50.6111 17.4165 51.0522C20.0445 51.9282 23.7865 52.5001 28 52.5001C32.2135 52.5001 35.9555 51.9282 38.5835 51.0522C39.9067 50.6111 40.8513 50.1245 41.4291 49.6692C41.7129 49.4455 41.8643 49.2636 41.9386 49.1426C41.9741 49.0849 41.9887 49.0463 41.9947 49.0268C42 49.0092 42 49.0002 42 49.0002C42 49.0002 41.9999 48.9946 41.9983 48.987C41.9966 48.9792 41.9923 48.9632 41.9816 48.9384C41.9595 48.8876 41.9091 48.7978 41.7998 48.674C41.5723 48.4161 41.1613 48.0917 40.504 47.7453C39.191 47.0535 37.2041 46.4348 34.714 46.0223C33.7605 45.8643 33.1156 44.9633 33.2735 44.0098C33.4315 43.0563 34.3325 42.4114 35.286 42.5693C37.9819 43.0159 40.37 43.7186 42.1355 44.6489C43.7531 45.5011 45.5 46.905 45.5 49.0001C45.5 50.491 44.5919 51.6328 43.5955 52.4181C42.5793 53.2189 41.2173 53.8636 39.6903 54.3726C36.618 55.3967 32.485 56.0001 28 56.0001C23.515 56.0001 19.382 55.3967 16.3097 54.3726C14.7827 53.8636 13.4207 53.2189 12.4045 52.4181C11.4081 51.6328 10.5 50.491 10.5 49.0001C10.5 46.905 12.2469 45.5011 13.8645 44.6489C15.63 43.7186 18.0181 43.0159 20.714 42.5693C21.6675 42.4114 22.5685 43.0563 22.7265 44.0098Z" fill="#0460B4"/>
</svg>
