<svg width="46" height="46" viewBox="0 0 46 46" fill="none" xmlns="http://www.w3.org/2000/svg">
<path fill-rule="evenodd" clip-rule="evenodd" d="M23 2.875C18.2365 2.875 14.375 6.73654 14.375 11.5C14.375 16.2635 18.2365 20.125 23 20.125C27.7635 20.125 31.625 16.2635 31.625 11.5C31.625 6.73654 27.7635 2.875 23 2.875ZM11.5 11.5C11.5 5.14873 16.6487 0 23 0C29.3513 0 34.5 5.14873 34.5 11.5C34.5 17.3645 30.1103 22.2036 24.4375 22.911V38.8125C24.4375 39.6064 23.7939 40.25 23 40.25C22.2061 40.25 21.5625 39.6064 21.5625 38.8125V22.911C15.8897 22.2036 11.5 17.3645 11.5 11.5ZM18.6682 36.1509C18.7979 36.9342 18.2682 37.6743 17.4849 37.804C15.4395 38.1428 13.8074 38.6511 12.7289 39.2194C12.1889 39.5039 11.8513 39.7704 11.6644 39.9822C11.5747 40.0839 11.5333 40.1576 11.5152 40.1994C11.5063 40.2198 11.5028 40.2329 11.5014 40.2394C11.5001 40.2455 11.5 40.2501 11.5 40.2501C11.5 40.2501 11.4999 40.2572 11.5044 40.2721C11.5093 40.2881 11.5213 40.3197 11.5504 40.3671C11.6114 40.4665 11.7359 40.616 11.969 40.7997C12.4436 41.1737 13.2195 41.5734 14.3064 41.9357C16.4652 42.6553 19.5389 43.1251 23 43.1251C26.4611 43.1251 29.5348 42.6553 31.6936 41.9357C32.7805 41.5734 33.5564 41.1737 34.031 40.7997C34.2641 40.616 34.3886 40.4665 34.4496 40.3671C34.4787 40.3197 34.4907 40.2881 34.4956 40.2721C34.5 40.2576 34.5 40.2502 34.5 40.2502C34.5 40.2502 34.4999 40.2455 34.4986 40.2394C34.4972 40.2329 34.4937 40.2198 34.4848 40.1994C34.4667 40.1576 34.4253 40.0839 34.3356 39.9822C34.1487 39.7704 33.8111 39.5039 33.2711 39.2194C32.1926 38.6511 30.5605 38.1428 28.5151 37.804C27.7318 37.6743 27.2021 36.9342 27.3318 36.1509C27.4616 35.3677 28.2017 34.8379 28.9849 34.9677C31.1994 35.3345 33.1611 35.9117 34.6113 36.6758C35.94 37.3759 37.375 38.5291 37.375 40.2501C37.375 41.4747 36.6291 42.4127 35.8106 43.0577C34.9759 43.7155 33.8571 44.2451 32.6028 44.6632C30.0791 45.5044 26.6841 46.0001 23 46.0001C19.3159 46.0001 15.9209 45.5044 13.3972 44.6632C12.1429 44.2451 11.0241 43.7155 10.1894 43.0577C9.37091 42.4127 8.625 41.4747 8.625 40.2501C8.625 38.5291 10.06 37.3759 11.3887 36.6758C12.8389 35.9117 14.8006 35.3345 17.0151 34.9677C17.7983 34.8379 18.5384 35.3677 18.6682 36.1509Z" fill="white"/>
</svg>
