<svg width="34" height="34" viewBox="0 0 34 34" fill="none" xmlns="http://www.w3.org/2000/svg">
<path d="M33.0338 13.9367C33.2337 15.0736 33.3274 16.2354 33.3274 17.391C33.3274 22.5629 31.4785 26.9354 28.2616 29.8962H28.2678C25.4507 32.4946 21.5842 34 16.9994 34C10.5719 34 4.69413 30.3771 1.80832 24.6367C-0.60277 19.8333 -0.602775 14.1741 1.80831 9.37066C4.69413 3.62403 10.5719 0.00114557 16.9994 0.00114557C21.222 -0.0488252 25.3008 1.53775 28.374 4.42356L23.5206 9.27697C21.7654 7.60295 19.423 6.69098 16.9994 6.72846C12.5645 6.72846 8.79798 9.72046 7.45501 13.7494C6.74293 15.8606 6.74293 18.1468 7.45501 20.258H7.46126C8.81047 24.2807 12.5708 27.2727 17.0057 27.2727C19.2981 27.2727 21.2657 26.6855 22.7898 25.6486H22.7835C24.5762 24.4618 25.8005 22.5942 26.1816 20.4829H16.9994V13.9367H33.0338Z" fill="white"/>
</svg>
