<svg width="27" height="26" viewBox="0 0 27 26" fill="none" xmlns="http://www.w3.org/2000/svg">
<path fill-rule="evenodd" clip-rule="evenodd" d="M0.5 0H2.125V24.375H26.5V26H0.5V0ZM16.75 5.6875C16.75 5.23877 17.1138 4.875 17.5625 4.875H24.0625C24.5112 4.875 24.875 5.23877 24.875 5.6875V12.1875C24.875 12.6362 24.5112 13 24.0625 13C23.6138 13 23.25 12.6362 23.25 12.1875V7.96364L17.3788 15.1395C17.2335 15.3172 17.0197 15.4251 16.7905 15.4365C16.5612 15.4479 16.3378 15.3618 16.1755 15.1995L11.9728 10.9969L6.0321 19.1654C5.76817 19.5283 5.26002 19.6085 4.89711 19.3446C4.53421 19.0807 4.45397 18.5725 4.7179 18.2096L11.2179 9.27211C11.3577 9.07994 11.5746 8.95858 11.8114 8.93999C12.0483 8.9214 12.2815 9.00745 12.4495 9.17548L16.6897 13.4156L22.3479 6.5H17.5625C17.1138 6.5 16.75 6.13623 16.75 5.6875Z" fill="#0460B4"/>
</svg>
