<svg width="61" height="60" viewBox="0 0 61 60" fill="none" xmlns="http://www.w3.org/2000/svg">
<circle cx="30.5" cy="30" r="30" fill="#3171DB"/>
<path d="M37.081 33.8088C38.366 32.0594 39.125 29.8996 39.125 27.5625C39.125 21.729 34.396 17 28.5625 17C22.729 17 18 21.729 18 27.5625C18 33.396 22.729 38.125 28.5625 38.125C30.9002 38.125 33.0605 37.3656 34.8102 36.08L34.8088 36.081C34.8567 36.146 34.9101 36.2082 34.969 36.267L41.226 42.5241C41.8606 43.1587 42.8895 43.1587 43.5241 42.5241C44.1587 41.8895 44.1587 40.8606 43.5241 40.226L37.267 33.969C37.2082 33.9101 37.146 33.8567 37.081 33.8088ZM37.5 27.5625C37.5 32.4985 33.4985 36.5 28.5625 36.5C23.6265 36.5 19.625 32.4985 19.625 27.5625C19.625 22.6265 23.6265 18.625 28.5625 18.625C33.4985 18.625 37.5 22.6265 37.5 27.5625Z" fill="white"/>
</svg>
