<svg width="23" height="23" viewBox="0 0 23 23" fill="none" xmlns="http://www.w3.org/2000/svg">
<path fill-rule="evenodd" clip-rule="evenodd" d="M2.875 17.9688C2.875 17.5718 3.1968 17.25 3.59375 17.25H19.4062C19.8032 17.25 20.125 17.5718 20.125 17.9688C20.125 18.3657 19.8032 18.6875 19.4062 18.6875H3.59375C3.1968 18.6875 2.875 18.3657 2.875 17.9688Z" fill="#6D6D6D"/>
<path fill-rule="evenodd" clip-rule="evenodd" d="M2.875 13.6562C2.875 13.2593 3.1968 12.9375 3.59375 12.9375H19.4062C19.8032 12.9375 20.125 13.2593 20.125 13.6562C20.125 14.0532 19.8032 14.375 19.4062 14.375H3.59375C3.1968 14.375 2.875 14.0532 2.875 13.6562Z" fill="#6D6D6D"/>
<path fill-rule="evenodd" clip-rule="evenodd" d="M2.875 9.34375C2.875 8.9468 3.1968 8.625 3.59375 8.625H19.4062C19.8032 8.625 20.125 8.9468 20.125 9.34375C20.125 9.7407 19.8032 10.0625 19.4062 10.0625H3.59375C3.1968 10.0625 2.875 9.7407 2.875 9.34375Z" fill="#6D6D6D"/>
<path fill-rule="evenodd" clip-rule="evenodd" d="M2.875 5.03125C2.875 4.6343 3.1968 4.3125 3.59375 4.3125H19.4062C19.8032 4.3125 20.125 4.6343 20.125 5.03125C20.125 5.4282 19.8032 5.75 19.4062 5.75H3.59375C3.1968 5.75 2.875 5.4282 2.875 5.03125Z" fill="#6D6D6D"/>
</svg>
