<svg width="200" height="48" viewBox="0 0 200 48" fill="none" xmlns="http://www.w3.org/2000/svg">
<path d="M14.8458 19.8857H2.03711V43.8857H5.83341V23.8971H11.0495V43.8857H14.8458V19.8857ZM24.8735 19.8857H18.8859V43.8857H22.6822V35.8286H24.8735C29.2254 35.8286 31.7871 32.9143 31.7871 27.8743C31.7871 22.8343 29.2254 19.8857 24.8735 19.8857ZM24.8427 31.8514H22.6822V23.8971H24.8427C26.8797 23.8971 27.8982 25.2343 27.8982 27.8743C27.8982 30.5143 26.8797 31.8514 24.8427 31.8514ZM40.9436 44.2971C45.2029 44.2971 47.7338 41.2457 47.7338 36.1714V27.6C47.7338 22.5257 45.2029 19.4743 40.9436 19.4743C36.6535 19.4743 34.1227 22.5257 34.1227 27.6V36.1714C34.1227 41.2457 36.6535 44.2971 40.9436 44.2971ZM40.9436 40.2171C39.0301 40.2171 38.0424 38.7771 38.0424 36.1714V27.6C38.0424 24.9943 39.0301 23.5543 40.9436 23.5543C42.8572 23.5543 43.814 24.9943 43.814 27.6V36.1714C43.814 38.7771 42.8572 40.2171 40.9436 40.2171ZM57.7708 46.1486H61.5362V43.44H61.9683C66.1967 43.44 69.4375 40.2514 69.4375 34.56V29.4171C69.4375 23.6571 66.1967 20.3314 61.9683 20.3314H61.5362V17.7943H57.7708V20.3314H57.3387C53.1103 20.3314 49.8696 23.6571 49.8696 29.4171V34.56C49.8696 40.2514 53.1103 43.44 57.3387 43.44H57.7708V46.1486ZM57.1535 39.3943C55.1474 39.3943 53.6659 38.0229 53.6659 34.56V29.4171C53.6659 25.8171 55.1474 24.3771 57.1535 24.3771H57.7708V39.3943H57.1535ZM61.5362 39.3943V24.3771H62.1227C64.1597 24.3771 65.6412 25.8171 65.6412 29.4171V34.56C65.6412 38.0229 64.1597 39.3943 62.1227 39.3943H61.5362ZM75.9711 39.9086V33.6343H82.4525V29.7943H75.9711V23.8629H83.039V19.8857H72.1748V43.8857H83.3476V39.9086H75.9711ZM92.386 44.2971C96.5527 44.2971 98.9909 41.6229 99.1453 36.7543H95.349C95.1946 39.1543 94.2687 40.2171 92.386 40.2171C90.7811 40.2171 89.8243 39.0857 89.8243 36.6857V27.0857C89.8243 24.6171 90.7811 23.4857 92.3551 23.4857C94.207 23.4857 95.1329 24.5486 95.2564 27.0171H99.0527C98.8675 22.1143 96.5218 19.4057 92.386 19.4057C88.3428 19.4057 85.9045 22.1143 85.9045 27.0857V36.6857C85.9045 41.6229 88.3736 44.2971 92.386 44.2971ZM107.758 44.2971C111.925 44.2971 114.363 41.6229 114.517 36.7543H110.721C110.566 39.1543 109.641 40.2171 107.758 40.2171C106.153 40.2171 105.196 39.0857 105.196 36.6857V27.0857C105.196 24.6171 106.153 23.4857 107.727 23.4857C109.579 23.4857 110.505 24.5486 110.628 27.0171H114.425C114.239 22.1143 111.894 19.4057 107.758 19.4057C103.715 19.4057 101.276 22.1143 101.276 27.0857V36.6857C101.276 41.6229 103.745 44.2971 107.758 44.2971ZM117.266 43.8857H121.031L125.383 32.8114C126.031 31.1657 126.617 29.2457 127.173 27.6L127.265 27.7029C127.019 30.24 126.864 34.1486 126.864 36.4114V43.8857H130.568V19.8857H126.772L122.173 31.6114C121.586 33.0514 121.062 34.6971 120.599 36.0343L120.506 35.9657C120.784 33.36 120.969 29.7257 120.969 27.7371V19.8857H117.266V43.8857ZM140.861 44.2971C145.12 44.2971 147.651 41.2457 147.651 36.1714V27.6C147.651 22.5257 145.12 19.4743 140.861 19.4743C136.57 19.4743 134.04 22.5257 134.04 27.6V36.1714C134.04 41.2457 136.57 44.2971 140.861 44.2971ZM140.861 40.2171C138.947 40.2171 137.959 38.7771 137.959 36.1714V27.6C137.959 24.9943 138.947 23.5543 140.861 23.5543C142.774 23.5543 143.731 24.9943 143.731 27.6V36.1714C143.731 38.7771 142.774 40.2171 140.861 40.2171ZM160.126 19.8857V29.76H154.91V19.8857H151.114V43.8857H154.91V33.7714H160.126V43.8857H163.953V19.8857H160.126ZM176.88 43.8857H180.831L175.522 19.8857H171.448L166.14 43.8857H170.09L170.954 39.5314H176.016L176.88 43.8857ZM171.726 35.52L172.59 31.0629C172.899 29.4171 173.238 26.7771 173.424 25.1657H173.516C173.732 26.7771 174.072 29.4171 174.38 31.0629L175.245 35.52H171.726ZM184.874 19.8857C184.473 29.8971 184.226 34.4914 183.856 36.96C183.424 39.7371 182.745 40.4571 181.417 40.4571V44.2629C184.72 44.2629 186.788 43.1314 187.498 37.9886C187.899 35.2114 188.207 30.5143 188.516 23.8629H192.528V43.8857H196.325V19.8857H184.874Z" fill="white"/>
<path d="M137.037 0H0V13.7143H137.037V0Z" fill="white"/>
<path d="M139.506 0H146.914V13.7143H139.506V0Z" fill="white"/>
<path d="M150.617 0H156.79V13.7143H150.617V0Z" fill="white"/>
<path d="M161.728 0H166.667V13.7143H161.728V0Z" fill="white"/>
<path d="M171.605 0H176.543V13.7143H171.605V0Z" fill="white"/>
<path d="M182.716 0H186.42V13.7143H182.716V0Z" fill="white"/>
<path d="M193.827 0H195.062V13.7143H193.827V0Z" fill="white"/>
<path d="M8.79009 3.29142H6.78516V10.9714H8.18763V8.50285H8.79009C10.2222 8.50285 11.0716 7.53736 11.0716 5.90262C11.0716 4.2569 10.2222 3.29142 8.79009 3.29142ZM8.77034 7.0217H8.18763V4.77256H8.77034C9.3333 4.77256 9.6296 5.15656 9.6296 5.90262C9.6296 6.6377 9.3333 7.0217 8.77034 7.0217ZM14.9303 9.49027V7.7897H16.8958V6.36342H14.9303V4.77256H17.0933V3.29142H13.5279V10.9714H17.1921V9.49027H14.9303ZM22.8491 10.9714H24.4294L22.375 6.64867L24.1331 3.29142H22.5331L21.5652 5.37599L21.2096 6.23176V3.29142H19.8269V10.9714H21.2096V8.75519L21.5948 8.06399L22.8491 10.9714ZM27.3724 3.29142C27.2342 6.51702 27.1749 7.77873 27.0465 8.5577C26.8786 9.53416 26.6613 9.69873 26.2465 9.69873V11.1031C27.3922 11.1031 28.1231 10.8068 28.3897 8.96365C28.5181 8.08593 28.6169 6.80227 28.7157 4.76159H29.8515V10.9714H31.2539V3.29142H27.3724ZM36.9461 10.9714H38.398L36.7387 3.29142H35.2375L33.5782 10.9714H35.0301L35.2573 9.69873H36.719L36.9461 10.9714ZM35.5338 8.21759L35.6918 7.33987C35.7906 6.7913 35.8992 5.85873 35.9684 5.23336H36.0079C36.077 5.85873 36.1955 6.7913 36.2844 7.33987L36.4424 8.21759H35.5338ZM45.2537 3.29142L44.1673 6.19885C44.029 6.58285 43.7919 7.2521 43.7129 7.53736H43.6734C43.5944 7.2521 43.3574 6.58285 43.2191 6.19885L42.1327 3.29142H40.7203V10.9714H42.0833V9.08433C42.0537 8.15176 42.0142 7.21919 41.9845 6.28662L42.0339 6.26467L42.6561 8.28342L43.0018 9.3257H44.3845L44.7302 8.28342L45.3524 6.26467L45.4018 6.28662C45.3623 7.21919 45.3327 8.15176 45.2932 9.08433V10.9714H46.666V3.29142H45.2537ZM52.4002 3.29142V6.36342H50.978V3.29142H49.5657V10.9714H50.978V7.84456H52.4002V10.9714H53.8126V3.29142H52.4002ZM58.7579 11.1031C60.1603 11.1031 60.9999 10.1266 60.9999 8.4809V5.78193C60.9999 4.13622 60.1603 3.15976 58.7579 3.15976C57.3554 3.15976 56.5159 4.13622 56.5159 5.78193V8.4809C56.5159 10.1266 57.3554 11.1031 58.7579 11.1031ZM58.7579 9.58902C58.2344 9.58902 57.9678 9.20502 57.9678 8.4809V5.78193C57.9678 5.05782 58.2344 4.67382 58.7579 4.67382C59.2813 4.67382 59.548 5.05782 59.548 5.78193V8.4809C59.548 9.20502 59.2813 9.58902 58.7579 9.58902ZM65.1094 9.49027V7.7897H67.0748V6.36342H65.1094V4.77256H67.2723V3.29142H63.7069V10.9714H67.3711V9.49027H65.1094ZM76.4473 10.9714H77.8991L76.2398 3.29142H74.7386L73.0794 10.9714H74.5312L74.7584 9.69873H76.2201L76.4473 10.9714ZM75.0349 8.21759L75.1929 7.33987C75.2917 6.7913 75.4003 5.85873 75.4695 5.23336H75.509C75.5781 5.85873 75.6966 6.7913 75.7855 7.33987L75.9436 8.21759H75.0349ZM83.7079 3.29142H80.2215V10.9714H81.6239V4.77256H83.7079V3.29142ZM87.5468 9.49027V7.7897H89.5122V6.36342H87.5468V4.77256H89.7097V3.29142H86.1443V10.9714H89.8085V9.49027H87.5468ZM95.2779 3.29142V6.36342H93.8557V3.29142H92.4433V10.9714H93.8557V7.84456H95.2779V10.9714H96.6902V3.29142H95.2779ZM103.275 3.29142H99.1269V4.77256H100.48V10.9714H101.922V4.77256H103.275V3.29142ZM107.652 11.1031C109.055 11.1031 109.855 10.2363 109.884 8.62353H108.482C108.442 9.30376 108.196 9.58902 107.652 9.58902C107.218 9.58902 106.981 9.28182 106.981 8.62353V5.6393C106.981 4.95907 107.228 4.65187 107.652 4.65187C108.186 4.65187 108.423 4.93713 108.462 5.6393H109.865C109.815 4.01553 109.045 3.13782 107.662 3.13782C106.309 3.13782 105.519 4.01553 105.519 5.6393V8.62353C105.519 10.2363 106.309 11.1031 107.652 11.1031ZM116.056 3.29142H111.908V4.77256H113.261V10.9714H114.703V4.77256H116.056V3.29142ZM121.799 7.04365C122.164 6.67062 122.382 6.05622 122.382 5.47473C122.382 4.16913 121.621 3.29142 120.554 3.29142H118.401V10.9714H120.584C121.769 10.9714 122.619 10.0498 122.619 8.67839C122.619 7.98719 122.312 7.37279 121.799 7.04365ZM120.307 4.76159C120.762 4.76159 120.959 5.0249 120.959 5.54056C120.959 6.07816 120.752 6.36342 120.357 6.36342H119.804V4.76159H120.307ZM120.337 9.50125H119.804V7.82262H120.367C120.89 7.82262 121.177 8.10787 121.177 8.66742C121.177 9.21599 120.89 9.50125 120.337 9.50125ZM127.247 11.1031C128.649 11.1031 129.489 10.1266 129.489 8.4809V5.78193C129.489 4.13622 128.649 3.15976 127.247 3.15976C125.844 3.15976 125.005 4.13622 125.005 5.78193V8.4809C125.005 10.1266 125.844 11.1031 127.247 11.1031ZM127.247 9.58902C126.723 9.58902 126.457 9.20502 126.457 8.4809V5.78193C126.457 5.05782 126.723 4.67382 127.247 4.67382C127.77 4.67382 128.037 5.05782 128.037 5.78193V8.4809C128.037 9.20502 127.77 9.58902 127.247 9.58902Z" fill="black"/>
</svg>
