<svg width="162" height="35" viewBox="0 0 162 35" fill="none" xmlns="http://www.w3.org/2000/svg">
<path d="M12.025 14.5H1.65V32H4.725V17.425H8.95V32H12.025V14.5ZM20.1475 14.5H15.2975V32H18.3725V26.125H20.1475C23.6725 26.125 25.7475 24 25.7475 20.325C25.7475 16.65 23.6725 14.5 20.1475 14.5ZM20.1225 23.225H18.3725V17.425H20.1225C21.7725 17.425 22.5975 18.4 22.5975 20.325C22.5975 22.25 21.7725 23.225 20.1225 23.225ZM33.1643 32.3C36.6143 32.3 38.6643 30.075 38.6643 26.375V20.125C38.6643 16.425 36.6143 14.2 33.1643 14.2C29.6893 14.2 27.6393 16.425 27.6393 20.125V26.375C27.6393 30.075 29.6893 32.3 33.1643 32.3ZM33.1643 29.325C31.6143 29.325 30.8143 28.275 30.8143 26.375V20.125C30.8143 18.225 31.6143 17.175 33.1643 17.175C34.7143 17.175 35.4893 18.225 35.4893 20.125V26.375C35.4893 28.275 34.7143 29.325 33.1643 29.325ZM46.7943 33.65H49.8443V31.675H50.1943C53.6193 31.675 56.2443 29.35 56.2443 25.2V21.45C56.2443 17.25 53.6193 14.825 50.1943 14.825H49.8443V12.975H46.7943V14.825H46.4443C43.0193 14.825 40.3943 17.25 40.3943 21.45V25.2C40.3943 29.35 43.0193 31.675 46.4443 31.675H46.7943V33.65ZM46.2943 28.725C44.6693 28.725 43.4693 27.725 43.4693 25.2V21.45C43.4693 18.825 44.6693 17.775 46.2943 17.775H46.7943V28.725H46.2943ZM49.8443 28.725V17.775H50.3193C51.9693 17.775 53.1693 18.825 53.1693 21.45V25.2C53.1693 27.725 51.9693 28.725 50.3193 28.725H49.8443ZM61.5365 29.1V24.525H66.7865V21.725H61.5365V17.4H67.2615V14.5H58.4615V32H67.5115V29.1H61.5365ZM74.8326 32.3C78.2076 32.3 80.1826 30.35 80.3076 26.8H77.2326C77.1076 28.55 76.3576 29.325 74.8326 29.325C73.5326 29.325 72.7576 28.5 72.7576 26.75V19.75C72.7576 17.95 73.5326 17.125 74.8076 17.125C76.3076 17.125 77.0576 17.9 77.1576 19.7H80.2326C80.0826 16.125 78.1826 14.15 74.8326 14.15C71.5576 14.15 69.5826 16.125 69.5826 19.75V26.75C69.5826 30.35 71.5826 32.3 74.8326 32.3ZM87.2838 32.3C90.6588 32.3 92.6338 30.35 92.7588 26.8H89.6838C89.5588 28.55 88.8088 29.325 87.2838 29.325C85.9838 29.325 85.2088 28.5 85.2088 26.75V19.75C85.2088 17.95 85.9838 17.125 87.2588 17.125C88.7588 17.125 89.5088 17.9 89.6088 19.7H92.6838C92.5338 16.125 90.6338 14.15 87.2838 14.15C84.0088 14.15 82.0338 16.125 82.0338 19.75V26.75C82.0338 30.35 84.0338 32.3 87.2838 32.3ZM94.985 32H98.035L101.56 23.925C102.085 22.725 102.56 21.325 103.01 20.125L103.085 20.2C102.885 22.05 102.76 24.9 102.76 26.55V32H105.76V14.5H102.685L98.96 23.05C98.485 24.1 98.06 25.3 97.685 26.275L97.61 26.225C97.835 24.325 97.985 21.675 97.985 20.225V14.5H94.985V32ZM114.097 32.3C117.547 32.3 119.597 30.075 119.597 26.375V20.125C119.597 16.425 117.547 14.2 114.097 14.2C110.622 14.2 108.572 16.425 108.572 20.125V26.375C108.572 30.075 110.622 32.3 114.097 32.3ZM114.097 29.325C112.547 29.325 111.747 28.275 111.747 26.375V20.125C111.747 18.225 112.547 17.175 114.097 17.175C115.647 17.175 116.422 18.225 116.422 20.125V26.375C116.422 28.275 115.647 29.325 114.097 29.325ZM129.702 14.5V21.7H125.477V14.5H122.402V32H125.477V24.625H129.702V32H132.802V14.5H129.702ZM143.273 32H146.473L142.173 14.5H138.873L134.573 32H137.773L138.473 28.825H142.573L143.273 32ZM139.098 25.9L139.798 22.65C140.048 21.45 140.323 19.525 140.473 18.35H140.548C140.723 19.525 140.998 21.45 141.248 22.65L141.948 25.9H139.098ZM149.748 14.5C149.423 21.8 149.223 25.15 148.923 26.95C148.573 28.975 148.023 29.5 146.948 29.5V32.275C149.623 32.275 151.298 31.45 151.873 27.7C152.198 25.675 152.448 22.25 152.698 17.4H155.948V32H159.023V14.5H149.748Z" fill="#0460B4"/>
<rect width="111" height="10" fill="#0460B4"/>
<rect width="6" height="10" transform="matrix(-1 0 0 1 119 0)" fill="#0460B4"/>
<rect width="5" height="10" transform="matrix(-1 0 0 1 127 0)" fill="#0460B4"/>
<rect width="4" height="10" transform="matrix(-1 0 0 1 135 0)" fill="#0460B4"/>
<rect width="4" height="10" transform="matrix(-1 0 0 1 143 0)" fill="#0460B4"/>
<rect width="3" height="10" transform="matrix(-1 0 0 1 151 0)" fill="#0460B4"/>
<rect width="1" height="10" transform="matrix(-1 0 0 1 158 0)" fill="#0460B4"/>
<path d="M7.12 2.4H5.496V8H6.632V6.2H7.12C8.28 6.2 8.968 5.496 8.968 4.304C8.968 3.104 8.28 2.4 7.12 2.4ZM7.104 5.12H6.632V3.48H7.104C7.56 3.48 7.8 3.76 7.8 4.304C7.8 4.84 7.56 5.12 7.104 5.12ZM12.0936 6.92V5.68H13.6856V4.64H12.0936V3.48H13.8456V2.4H10.9576V8H13.9256V6.92H12.0936ZM18.5078 8H19.7878L18.1238 4.848L19.5478 2.4H18.2518L17.4678 3.92L17.1798 4.544V2.4H16.0598V8H17.1798V6.384L17.4918 5.88L18.5078 8ZM22.1717 2.4C22.0597 4.752 22.0117 5.672 21.9077 6.24C21.7717 6.952 21.5957 7.072 21.2597 7.072V8.096C22.1877 8.096 22.7797 7.88 22.9957 6.536C23.0997 5.896 23.1797 4.96 23.2597 3.472H24.1797V8H25.3157V2.4H22.1717ZM29.9264 8H31.1024L29.7584 2.4H28.5424L27.1984 8H28.3744L28.5584 7.072H29.7424L29.9264 8ZM28.7824 5.992L28.9104 5.352C28.9904 4.952 29.0784 4.272 29.1344 3.816H29.1664C29.2224 4.272 29.3184 4.952 29.3904 5.352L29.5184 5.992H28.7824ZM36.6555 2.4L35.7755 4.52C35.6635 4.8 35.4715 5.288 35.4075 5.496H35.3755C35.3115 5.288 35.1195 4.8 35.0075 4.52L34.1275 2.4H32.9835V8H34.0875V6.624C34.0635 5.944 34.0315 5.264 34.0075 4.584L34.0475 4.568L34.5515 6.04L34.8315 6.8H35.9515L36.2315 6.04L36.7355 4.568L36.7755 4.584C36.7435 5.264 36.7195 5.944 36.6875 6.624V8H37.7995V2.4H36.6555ZM42.4442 2.4V4.64H41.2922V2.4H40.1482V8H41.2922V5.72H42.4442V8H43.5882V2.4H42.4442ZM47.5939 8.096C48.7299 8.096 49.4099 7.384 49.4099 6.184V4.216C49.4099 3.016 48.7299 2.304 47.5939 2.304C46.4579 2.304 45.7779 3.016 45.7779 4.216V6.184C45.7779 7.384 46.4579 8.096 47.5939 8.096ZM47.5939 6.992C47.1699 6.992 46.9539 6.712 46.9539 6.184V4.216C46.9539 3.688 47.1699 3.408 47.5939 3.408C48.0179 3.408 48.2339 3.688 48.2339 4.216V6.184C48.2339 6.712 48.0179 6.992 47.5939 6.992ZM52.7386 6.92V5.68H54.3306V4.64H52.7386V3.48H54.4906V2.4H51.6026V8H54.5706V6.92H52.7386ZM61.9223 8H63.0983L61.7543 2.4H60.5383L59.1943 8H60.3703L60.5543 7.072H61.7383L61.9223 8ZM60.7783 5.992L60.9063 5.352C60.9863 4.952 61.0743 4.272 61.1303 3.816H61.1623C61.2183 4.272 61.3143 4.952 61.3863 5.352L61.5143 5.992H60.7783ZM67.8034 2.4H64.9794V8H66.1154V3.48H67.8034V2.4ZM70.9129 6.92V5.68H72.5049V4.64H70.9129V3.48H72.6649V2.4H69.7769V8H72.7449V6.92H70.9129ZM77.1751 2.4V4.64H76.0231V2.4H74.8791V8H76.0231V5.72H77.1751V8H78.3191V2.4H77.1751ZM83.6528 2.4H80.2928V3.48H81.3888V8H82.5568V3.48H83.6528V2.4ZM87.1984 8.096C88.3344 8.096 88.9824 7.464 89.0064 6.288H87.8704C87.8384 6.784 87.6384 6.992 87.1984 6.992C86.8464 6.992 86.6544 6.768 86.6544 6.288V4.112C86.6544 3.616 86.8544 3.392 87.1984 3.392C87.6304 3.392 87.8224 3.6 87.8544 4.112H88.9904C88.9504 2.928 88.3264 2.288 87.2064 2.288C86.1104 2.288 85.4704 2.928 85.4704 4.112V6.288C85.4704 7.464 86.1104 8.096 87.1984 8.096ZM94.0056 2.4H90.6456V3.48H91.7416V8H92.9096V3.48H94.0056V2.4ZM98.6571 5.136C98.9531 4.864 99.1291 4.416 99.1291 3.992C99.1291 3.04 98.5131 2.4 97.6491 2.4H95.9051V8H97.6731C98.6331 8 99.3211 7.328 99.3211 6.328C99.3211 5.824 99.0731 5.376 98.6571 5.136ZM97.4491 3.472C97.8171 3.472 97.9771 3.664 97.9771 4.04C97.9771 4.432 97.8091 4.64 97.4891 4.64H97.0411V3.472H97.4491ZM97.4731 6.928H97.0411V5.704H97.4971C97.9211 5.704 98.1531 5.912 98.1531 6.32C98.1531 6.72 97.9211 6.928 97.4731 6.928ZM103.07 8.096C104.206 8.096 104.886 7.384 104.886 6.184V4.216C104.886 3.016 104.206 2.304 103.07 2.304C101.934 2.304 101.254 3.016 101.254 4.216V6.184C101.254 7.384 101.934 8.096 103.07 8.096ZM103.07 6.992C102.646 6.992 102.43 6.712 102.43 6.184V4.216C102.43 3.688 102.646 3.408 103.07 3.408C103.494 3.408 103.71 3.688 103.71 4.216V6.184C103.71 6.712 103.494 6.992 103.07 6.992Z" fill="white"/>
</svg>
