<svg width="64" height="64" viewBox="0 0 64 64" fill="none" xmlns="http://www.w3.org/2000/svg">
<path d="M39.9962 7.28124C39.7407 7.28124 36.4421 7.28124 35.1813 7.28124C35.1813 5.46901 33.7443 4 31.9714 4C30.1986 4 28.7615 5.46901 28.7615 7.28124C27.597 7.28124 26.9409 7.28124 23.9466 7.28124C23.0603 7.28124 22.3417 8.12518 22.3417 9.03124V10.6719C22.3417 12.4841 23.7788 13.9531 25.5516 13.9531H38.3913C40.1641 13.9531 41.6012 12.4841 41.6012 10.6719V9.03124C41.6012 8.12518 40.8826 7.28124 39.9962 7.28124Z" fill="#2A6DBA"/>
<path d="M48.128 10.6719H44.9181C44.9181 14.2912 41.9319 17.2344 38.3913 17.2344H25.5516C22.011 17.2344 19.1318 14.2912 19.1318 10.6719H15.9219C13.2668 10.6719 11 12.8797 11 15.5937V54.9687C11 57.6827 13.2668 59.9999 15.9219 59.9999H48.128C50.783 59.9999 52.9429 57.6827 52.9429 54.9687V15.5937C52.9429 12.8797 50.783 10.6719 48.128 10.6719ZM17.9971 23.3161C17.3702 22.6753 17.3702 21.637 17.9971 20.9962C18.624 20.3554 19.6397 20.3554 20.2666 20.9962L22.3417 23.1175L24.4169 20.9962C25.0438 20.3554 26.0595 20.3554 26.6864 20.9962C27.3133 21.637 27.3133 22.6753 26.6864 23.3161L24.6112 25.4375L26.6864 27.5588C27.3133 28.1996 27.3133 29.2379 26.6864 29.8787C26.0595 30.5196 25.0438 30.5196 24.4169 29.8787L22.3417 27.7574L20.2665 29.8787C19.6396 30.5196 18.6239 30.5196 17.997 29.8787C17.3701 29.2379 17.3701 28.1996 17.997 27.5588L20.0722 25.4375L17.9971 23.3161ZM29.8963 46.2849L23.4765 52.8473C23.163 53.1678 22.7523 53.328 22.3418 53.328C21.9312 53.328 21.5205 53.1678 21.2071 52.8473L17.9972 49.5661C17.3701 48.9253 17.3701 47.8871 17.9971 47.2463C18.624 46.6054 19.6397 46.6054 20.2666 47.2463L22.3417 49.3675L27.6268 43.9649C28.2537 43.3241 29.2694 43.3241 29.8963 43.9649C30.5232 44.6057 30.5232 45.644 29.8963 46.2849ZM29.8963 34.8005L23.4765 41.363C23.163 41.6835 22.7523 41.8437 22.3418 41.8437C21.9312 41.8437 21.5205 41.6835 21.2071 41.363L17.9972 38.0817C17.3701 37.4409 17.3701 36.4027 17.9971 35.7619C18.624 35.1211 19.6397 35.1211 20.2666 35.7619L22.3417 37.8831L27.6268 32.4806C28.2537 31.8397 29.2694 31.8397 29.8963 32.4806C30.5232 33.1214 30.5232 34.1597 29.8963 34.8005ZM44.9181 50.0468H35.1813C34.2942 50.0468 33.5764 49.313 33.5764 48.4062C33.5764 47.4994 34.2942 46.7656 35.1813 46.7656H44.9181C45.8052 46.7656 46.523 47.4994 46.523 48.4062C46.523 49.313 45.8052 50.0468 44.9181 50.0468ZM44.9181 38.5624H35.1813C34.2942 38.5624 33.5764 37.8287 33.5764 36.9218C33.5764 36.015 34.2942 35.2812 35.1813 35.2812H44.9181C45.8052 35.2812 46.523 36.015 46.523 36.9218C46.523 37.8287 45.8052 38.5624 44.9181 38.5624ZM44.9181 27.0781H35.1813C34.2942 27.0781 33.5764 26.3443 33.5764 25.4375C33.5764 24.5306 34.2942 23.7969 35.1813 23.7969H44.9181C45.8052 23.7969 46.523 24.5306 46.523 25.4375C46.523 26.3443 45.8052 27.0781 44.9181 27.0781Z" fill="#2A6DBA"/>
</svg>
