<svg width="64" height="64" viewBox="0 0 64 64" fill="none" xmlns="http://www.w3.org/2000/svg">
<path d="M8 53.9999C8 55.1039 8.894 55.9999 9.99997 55.9999H53.9999C55.1059 55.9999 55.9999 55.1039 55.9999 53.9999V23.9999H8V53.9999ZM20 37.0379C20 36.0799 20.68 35.2559 21.624 35.074L22.826 34.844C23.04 34.802 23.134 34.66 23.18 34.55C23.222 34.438 23.248 34.268 23.122 34.096L22.364 33.064C21.78 32.2679 21.866 31.1639 22.562 30.466L24.196 28.834C24.874 28.16 25.942 28.058 26.7299 28.594L28.042 29.48C28.2179 29.598 28.382 29.572 28.49 29.526C28.6 29.4821 28.736 29.3861 28.776 29.1761L29.0741 27.6221C29.256 26.6801 30.0801 26.0001 31.0401 26.0001H33.3461C34.332 26.0001 35.172 26.7201 35.322 27.6941L35.5181 28.9581C35.55 29.1741 35.688 29.2741 35.796 29.3221C35.906 29.3721 36.0761 29.4021 36.2561 29.2801L37.2681 28.5942C38.0601 28.0561 39.1241 28.1562 39.8041 28.8342L41.4381 30.4662C42.1341 31.1641 42.2201 32.2681 41.6361 33.0642L40.8801 34.0942C40.7521 34.2682 40.7781 34.4382 40.8201 34.5502C40.8661 34.6602 40.9601 34.8022 41.1741 34.8442L42.3761 35.0742C43.32 35.2559 44 36.0799 44 37.0379V39.346C44 40.334 43.28 41.1719 42.304 41.3219L41.042 41.5159C40.828 41.5499 40.726 41.6879 40.678 41.7979C40.63 41.9059 40.598 42.0759 40.72 42.2559L41.4059 43.2718C41.944 44.0658 41.842 45.1278 41.164 45.8058L39.5339 47.4358C38.8319 48.1359 37.7279 48.2178 36.9379 47.6358L36.2119 47.1038C36.0319 46.9718 35.8599 47.0018 35.7479 47.0498C35.6339 47.0958 35.4919 47.1978 35.458 47.4178L35.3219 48.3038C35.1719 49.2798 34.3319 49.9998 33.346 49.9998H31.04C30.08 49.9998 29.258 49.3198 29.076 48.3798L28.844 47.1758C28.8 46.9618 28.66 46.8638 28.548 46.8218C28.44 46.7758 28.2701 46.7518 28.092 46.8818L27.0641 47.6358C26.2661 48.2158 25.164 48.1358 24.4661 47.4358L22.836 45.8058C22.158 45.1278 22.056 44.0658 22.5941 43.2718L23.28 42.2578C23.402 42.0759 23.37 41.9058 23.322 41.7978C23.274 41.6878 23.172 41.5498 22.958 41.5158L21.696 41.3218C20.72 41.1719 20 40.3339 20 39.3459V37.0379Z" fill="#2A6DBA"/>
<path d="M32 40.0001C33.104 40.0001 34 39.1041 34 38.0001C34 36.8961 33.104 36.0001 32 36.0001C30.896 36.0001 30.0001 36.8961 30.0001 38.0001C30.0001 39.1041 30.896 40.0001 32 40.0001Z" fill="#2A6DBA"/>
<path d="M54 8.00098H9.99997C8.894 8.00098 8 8.89695 8 10.0009V20.001H56V10.0009C56 8.89695 55.106 8.00098 54 8.00098ZM16 18.001C14.896 18.001 14 17.1049 14 16.0009C14 14.8969 14.896 14.001 16 14.001C17.104 14.001 17.9999 14.8969 17.9999 16.0009C17.9999 17.1049 17.104 18.001 16 18.001ZM22 18.001C20.896 18.001 20 17.105 20 16.001C20 14.897 20.896 14.0011 22 14.0011C23.104 14.0011 23.9999 14.897 23.9999 16.001C23.9999 17.105 23.104 18.001 22 18.001ZM28 18.001C26.896 18.001 26 17.105 26 16.001C26 14.897 26.896 14.0011 28 14.0011C29.104 14.0011 29.9999 14.897 29.9999 16.001C29.9999 17.105 29.104 18.001 28 18.001Z" fill="#2A6DBA"/>
</svg>
