<svg width="64" height="64" viewBox="0 0 64 64" fill="none" xmlns="http://www.w3.org/2000/svg">
<path d="M48.7348 8.78499C48.3046 8.74758 47.9124 8.52916 47.6542 8.18283C45.3149 5.03387 41.5711 3.09345 37.5901 3.09345C37.3451 3.09345 37.1001 3.10129 36.8552 3.11517C36.4986 3.13629 36.1474 3.0301 35.862 2.8147C33.4359 0.989518 30.4999 0 27.4228 0C21.9116 0 17.0189 3.18818 14.7237 8.01811C14.5065 8.47486 14.0751 8.79162 13.5755 8.86282C7.50329 9.72865 2.81877 14.9628 2.81877 21.2698C2.81877 26.3525 5.86636 30.73 10.2257 32.6933C10.2233 32.5099 10.2136 32.3337 10.2136 32.1485C10.2136 30.1405 10.3475 28.518 10.6179 27.1985C8.87654 25.8065 7.75549 23.6676 7.75549 21.2692C7.75549 17.0819 11.1627 13.6753 15.35 13.6753C15.5618 13.6753 15.77 13.6922 15.9763 13.7096C17.1831 13.8026 18.2764 13.02 18.5696 11.8495C19.5905 7.77978 23.2318 4.93793 27.4222 4.93793C29.8163 4.93793 32.0825 5.86289 33.8033 7.54145C34.3922 8.11465 35.2255 8.35841 36.0304 8.19128C36.542 8.08448 37.0675 8.03018 37.5882 8.03018C40.5194 8.03018 43.1368 9.67857 44.4201 12.3316C44.8709 13.2644 45.8568 13.8195 46.8885 13.7133C47.1455 13.6873 47.4014 13.6753 47.65 13.6753C51.8367 13.6753 55.2451 17.0819 55.2451 21.2692C55.2451 23.6676 54.1247 25.8059 52.3827 27.1985C52.6524 28.5174 52.7864 30.1399 52.7864 32.1479C52.7864 32.3343 52.7761 32.5105 52.7737 32.6927C57.1342 30.7294 60.1806 26.3531 60.1806 21.2692C60.183 14.7251 55.1395 9.33586 48.7348 8.78499Z" fill="#2A6DBA"/>
<path d="M31.5021 18.2343C19.1144 29.6662 12.682 17.7751 12.682 32.1478C12.682 52.1904 27.1525 58.2385 31.5015 59C35.8481 58.2397 50.3192 52.1904 50.3192 32.1478C50.3192 17.7757 43.8886 29.6662 31.5021 18.2343ZM41.889 36.6447L31.052 47.4805C30.4782 48.0555 29.7252 48.3433 28.9728 48.3433C28.2198 48.3433 27.4674 48.0555 26.893 47.4805L21.1128 41.7015C19.9646 40.5527 19.9646 38.6913 21.1128 37.5413C22.2598 36.3937 24.1236 36.3937 25.2712 37.5413L28.9728 41.243L37.7312 32.4857C38.8776 31.3369 40.742 31.3369 41.8902 32.4857C43.0384 33.6327 43.0384 35.4947 41.889 36.6447Z" fill="#2A6DBA"/>
</svg>
