<svg width="64" height="64" viewBox="0 0 64 64" fill="none" xmlns="http://www.w3.org/2000/svg">
<g clip-path="url(#clip0)">
<path d="M55.9791 7C46.2083 6.83333 35.0833 11.9375 28.0416 19.8542C21.3125 19.9792 14.7499 22.7292 9.91662 27.5625C9.64578 27.8333 9.54162 28.25 9.66662 28.625C9.79162 29 10.1041 29.2708 10.4999 29.3333L18.5416 30.4792L17.5416 31.6042C17.1666 32 17.1875 32.6458 17.5833 33.0208L26.8333 42.2708C27.4583 33.625 34.6666 26.7917 43.4583 26.7917C46.0208 26.7917 48.4583 27.375 50.625 28.4167C54.7291 22.1667 57.1458 14.7708 57 8.02083C56.9791 7.45833 56.5416 7.02083 55.9791 7ZM46.375 25C45.3541 26 44.0208 26.5208 42.6875 26.5208C41.3541 26.5208 40.0208 26 39 25C36.9791 22.9583 36.9791 19.6458 39 17.625C41.0416 15.5833 44.3541 15.5833 46.375 17.625C48.3958 19.6458 48.3958 22.9583 46.375 25Z" fill="#2A6DBA"/>
<path d="M12.675 42.2187C10.4458 44.4479 7.38541 54.5187 7.04375 55.6583C6.93333 56.025 7.03541 56.4229 7.30416 56.6937C7.50416 56.8937 7.76875 57 8.04166 57C8.14166 57 8.24166 56.9854 8.34166 56.9562C9.48125 56.6146 19.5521 53.5541 21.7812 51.325C24.2917 48.8146 24.2917 44.7291 21.7812 42.2187C19.2687 39.7083 15.1854 39.7104 12.675 42.2187Z" fill="#2A6DBA"/>
<path d="M43.4583 29.9166C35.9916 29.9166 29.9166 35.9916 29.9166 43.4583C29.9166 50.925 35.9916 57 43.4583 57C50.925 57 57 50.925 57 43.4583C57 35.9916 50.925 29.9166 43.4583 29.9166ZM49.2917 40.875L42.5208 48.1667C42.2125 48.4979 41.7937 48.6667 41.375 48.6667C41.0146 48.6667 40.6521 48.5417 40.3583 48.2896L36.7125 45.1646C36.0583 44.6021 35.9812 43.6166 36.5437 42.9604C37.1083 42.3062 38.0916 42.2291 38.7479 42.7916L41.2521 44.9396L47.0021 38.7479C47.5937 38.1166 48.5791 38.0791 49.2125 38.6646C49.8396 39.2541 49.8771 40.2437 49.2917 40.875Z" fill="#2A6DBA"/>
</g>
<defs>
<clipPath id="clip0">
<rect width="50" height="50" fill="white" transform="translate(7 7)"/>
</clipPath>
</defs>
</svg>
