<svg width="64" height="64" viewBox="0 0 64 64" fill="none" xmlns="http://www.w3.org/2000/svg">
<path fill-rule="evenodd" clip-rule="evenodd" d="M20.2639 45.7903C29.2459 54.7724 43.8087 54.7724 52.7908 45.7903C61.7728 36.8083 61.7728 22.2455 52.7908 13.2634C43.8087 4.28134 29.2459 4.28134 20.2639 13.2634C11.2818 22.2455 11.2818 36.8083 20.2639 45.7903ZM34.0004 19.4999C34.0004 18.1192 35.1197 16.9999 36.5004 16.9999C37.8811 16.9999 39.0004 18.1192 39.0004 19.4999V38.9999H34.0004V19.4999ZM26.0004 26.4999C26.0004 25.1192 27.1197 23.9999 28.5004 23.9999C29.8811 23.9999 31.0004 25.1192 31.0004 26.4999V38.9999H26.0004V26.4999ZM44.5004 20.9999C43.1197 20.9999 42.0004 22.1192 42.0004 23.4999V38.9999H47.0004V23.4999C47.0004 22.1192 45.8811 20.9999 44.5004 20.9999Z" fill="#2A6DBA"/>
<path d="M18.8493 42.9619L23.7991 47.9117L14.2531 57.4576C12.8863 58.8244 10.6702 58.8244 9.30344 57.4576C7.93661 56.0908 7.93661 53.8747 9.30344 52.5079L18.8493 42.9619Z" fill="#2A6DBA"/>
</svg>
