<svg width="86" height="48" viewBox="0 0 86 48" fill="none" xmlns="http://www.w3.org/2000/svg">
<path fill-rule="evenodd" clip-rule="evenodd" d="M69.5141 46.8188C68.2075 48.148 66.3291 48.392 65.3186 47.364C64.3081 46.336 64.5478 44.425 65.8544 43.0958L81.1792 27.506C82.4858 26.1768 84.3643 25.9329 85.3748 26.9609C86.3853 27.9889 86.1455 29.8998 84.8389 31.229L69.5141 46.8188ZM56.5755 46.8188C55.2689 48.148 53.3904 48.392 52.3799 47.364C51.3694 46.336 51.6092 44.425 52.9158 43.0958L81.1792 14.3436C82.4858 13.0144 84.3643 12.7705 85.3748 13.7985C86.3853 14.8264 86.1455 16.7374 84.8389 18.0666L56.5755 46.8188ZM43.6368 46.8188C42.3302 48.148 40.4518 48.392 39.4412 47.364C38.4307 46.336 38.6706 44.425 39.9771 43.0958L81.1792 1.18117C82.4858 -0.148019 84.3643 -0.391962 85.3748 0.636024C86.3853 1.66401 86.1455 3.57498 84.8389 4.90416L43.6368 46.8188ZM30.6981 46.8188C29.3915 48.148 27.513 48.392 26.5026 47.364C25.4921 46.336 25.7318 44.425 27.0384 43.0958L68.2405 1.18117C69.5471 -0.148019 71.4256 -0.391962 72.4361 0.636024C73.4467 1.66401 73.2068 3.57498 71.9002 4.90416L30.6981 46.8188ZM17.7595 46.8188C16.4529 48.148 14.5744 48.392 13.5639 47.364C12.5534 46.336 12.7932 44.425 14.0998 43.0958L55.3019 1.18117C56.6085 -0.148019 58.4869 -0.391962 59.4975 0.636024C60.5079 1.66401 60.2682 3.57498 58.9616 4.90416L17.7595 46.8188ZM4.82076 46.8188C3.51418 48.148 1.63576 48.392 0.625191 47.364C-0.385269 46.336 -0.145531 44.425 1.16106 43.0958L42.3632 1.18117C43.6698 -0.148019 45.5483 -0.391962 46.5587 0.636024C47.5693 1.66401 47.3295 3.57498 46.0229 4.90416L4.82076 46.8188ZM81.1792 40.6685C82.4858 39.3393 84.3643 39.0953 85.3748 40.1233C86.3853 41.1513 86.1455 43.0623 84.8389 44.3915L82.4528 46.8188C81.1462 48.148 79.2677 48.392 78.2572 47.364C77.2467 46.336 77.4865 44.425 78.7931 43.0958L81.1792 40.6685Z" fill="#91C4EB"/>
</svg>
