<svg width="87" height="48" viewBox="0 0 87 48" fill="none" xmlns="http://www.w3.org/2000/svg">
<g clip-path="url(#clip0_12_40)">
<path fill-rule="evenodd" clip-rule="evenodd" d="M16.4859 46.8188C17.7925 48.148 19.6709 48.392 20.6814 47.364C21.6919 46.336 21.4522 44.425 20.1456 43.0958L4.82079 27.506C3.5142 26.1768 1.63573 25.9329 0.625217 26.9609C-0.385294 27.9889 -0.145511 29.8998 1.16108 31.229L16.4859 46.8188ZM29.4245 46.8188C30.7311 48.148 32.6096 48.392 33.6201 47.364C34.6306 46.336 34.3908 44.425 33.0842 43.0958L4.82079 14.3436C3.5142 13.0144 1.63573 12.7705 0.625217 13.7985C-0.385294 14.8264 -0.145511 16.7374 1.16108 18.0666L29.4245 46.8188ZM42.3632 46.8188C43.6698 48.148 45.5482 48.392 46.5588 47.364C47.5693 46.336 47.3294 44.425 46.0229 43.0958L4.82079 1.18117C3.5142 -0.148019 1.63573 -0.391962 0.625217 0.636024C-0.385294 1.66401 -0.145511 3.57498 1.16108 4.90416L42.3632 46.8188ZM55.3019 46.8188C56.6085 48.148 58.487 48.392 59.4974 47.364C60.5079 46.336 60.2682 44.425 58.9616 43.0958L17.7595 1.18117C16.4529 -0.148019 14.5744 -0.391962 13.5639 0.636024C12.5533 1.66401 12.7932 3.57498 14.0998 4.90416L55.3019 46.8188ZM68.2405 46.8188C69.5471 48.148 71.4256 48.392 72.4361 47.364C73.4466 46.336 73.2068 44.425 71.9002 43.0958L30.6981 1.18117C29.3915 -0.148019 27.5131 -0.391962 26.5025 0.636024C25.4921 1.66401 25.7318 3.57498 27.0384 4.90416L68.2405 46.8188ZM81.1792 46.8188C82.4858 48.148 84.3642 48.392 85.3748 47.364C86.3853 46.336 86.1455 44.425 84.8389 43.0958L43.6368 1.18117C42.3302 -0.148019 40.4517 -0.391962 39.4413 0.636024C38.4307 1.66401 38.6705 3.57498 39.9771 4.90416L81.1792 46.8188ZM4.82079 40.6685C3.5142 39.3393 1.63573 39.0953 0.625217 40.1233C-0.385294 41.1513 -0.145511 43.0623 1.16108 44.3915L3.5472 46.8188C4.85379 48.148 6.73226 48.392 7.74277 47.364C8.75328 46.336 8.5135 44.425 7.2069 43.0958L4.82079 40.6685Z" fill="#91C4EB"/>
</g>
<defs>
<clipPath id="clip0_12_40">
<rect width="87" height="48" fill="white"/>
</clipPath>
</defs>
</svg>
