<svg width="87" height="48" viewBox="0 0 87 48" fill="none" xmlns="http://www.w3.org/2000/svg">
<path fill-rule="evenodd" clip-rule="evenodd" d="M16.6348 46.8188C17.9532 48.148 19.8486 48.392 20.8683 47.364C21.8879 46.336 21.646 44.425 20.3276 43.0958L4.86426 27.506C3.54585 26.1768 1.6504 25.9329 0.630753 26.9609C-0.388893 27.9889 -0.146942 29.8998 1.17146 31.229L16.6348 46.8188ZM29.6904 46.8188C31.0088 48.148 32.9043 48.392 33.9239 47.364C34.9436 46.336 34.7016 44.425 33.3832 43.0958L4.86426 14.3436C3.54585 13.0144 1.6504 12.7705 0.630753 13.7985C-0.388893 14.8264 -0.146942 16.7374 1.17146 18.0666L29.6904 46.8188ZM42.7461 46.8188C44.0645 48.148 45.9599 48.392 46.9796 47.364C47.9992 46.336 47.7572 44.425 46.4388 43.0958L4.86426 1.18117C3.54585 -0.148019 1.6504 -0.391962 0.630753 0.636024C-0.388893 1.66401 -0.146942 3.57498 1.17146 4.90416L42.7461 46.8188ZM55.8017 46.8188C57.1201 48.148 59.0156 48.392 60.0352 47.364C61.0548 46.336 60.8129 44.425 59.4945 43.0958L17.9199 1.18117C16.6015 -0.148019 14.706 -0.391962 13.6864 0.636024C12.6667 1.66401 12.9087 3.57498 14.2271 4.90416L55.8017 46.8188ZM68.8573 46.8188C70.1757 48.148 72.0712 48.392 73.0908 47.364C74.1105 46.336 73.8685 44.425 72.5501 43.0958L30.9755 1.18117C29.6571 -0.148019 27.7617 -0.391962 26.742 0.636024C25.7224 1.66401 25.9643 3.57498 27.2827 4.90416L68.8573 46.8188ZM81.913 46.8188C83.2314 48.148 85.1268 48.392 86.1465 47.364C87.1661 46.336 86.9242 44.425 85.6058 43.0958L44.0312 1.18117C42.7128 -0.148019 40.8173 -0.391962 39.7977 0.636024C38.778 1.66401 39.02 3.57498 40.3384 4.90416L81.913 46.8188ZM4.86426 40.6685C3.54585 39.3393 1.6504 39.0953 0.630753 40.1233C-0.388893 41.1513 -0.146942 43.0623 1.17146 44.3915L3.57915 46.8188C4.89755 48.148 6.79301 48.392 7.81265 47.364C8.8323 46.336 8.59035 44.425 7.27194 43.0958L4.86426 40.6685Z" fill="#91C4EB"/>
</svg>
