<svg width="34" height="34" viewBox="0 0 34 34" fill="none" xmlns="http://www.w3.org/2000/svg">
<path d="M23.375 10.625C23.375 14.1458 20.5208 17 17 17C13.4792 17 10.625 14.1458 10.625 10.625C10.625 7.10418 13.4792 4.25 17 4.25C20.5208 4.25 23.375 7.10418 23.375 10.625ZM17 14.875C19.3472 14.875 21.25 12.9722 21.25 10.625C21.25 8.27779 19.3472 6.375 17 6.375C14.6528 6.375 12.75 8.27779 12.75 10.625C12.75 12.9722 14.6528 14.875 17 14.875Z" fill="black"/>
<path d="M17 27.6176L17 29.75H6.375C6.375 29.75 4.25 29.75 4.25 27.625C4.25 25.5 6.375 19.125 17 19.125C18.1985 19.125 19.2888 19.2061 20.2801 19.3531C19.6275 19.9222 19.0529 20.5786 18.5745 21.3039C18.0779 21.2687 17.5535 21.25 17 21.25C12.1356 21.25 9.52925 22.6947 8.14321 24.0807C6.70173 25.5222 6.37803 27.0932 6.375 27.6176H17Z" fill="black"/>
<path d="M19.125 27.625C19.125 26.4514 20.0764 25.5 21.25 25.5V23.375C21.25 21.0278 23.1528 19.125 25.5 19.125C27.8472 19.125 29.75 21.0278 29.75 23.375V25.5C30.9236 25.5 31.875 26.4514 31.875 27.625V31.875C31.875 33.0486 30.9236 34 29.75 34H21.25C20.0764 34 19.125 33.0486 19.125 31.875V27.625ZM25.5 21.25C24.3264 21.25 23.375 22.2014 23.375 23.375V25.5H27.625V23.375C27.625 22.2014 26.6736 21.25 25.5 21.25Z" fill="black"/>
</svg>
