<svg width="57" height="56" viewBox="0 0 57 56" fill="none" xmlns="http://www.w3.org/2000/svg">
<path d="M39 21C39 26.799 34.299 31.5 28.5 31.5C22.701 31.5 18 26.799 18 21C18 15.201 22.701 10.5 28.5 10.5C34.299 10.5 39 15.201 39 21Z" fill="#3171DB"/>
<path fill-rule="evenodd" clip-rule="evenodd" d="M0.5 28C0.5 12.536 13.036 0 28.5 0C43.964 0 56.5 12.536 56.5 28C56.5 43.464 43.964 56 28.5 56C13.036 56 0.5 43.464 0.5 28ZM28.5 3.5C14.969 3.5 4 14.469 4 28C4 33.787 6.0064 39.1054 9.36151 43.2974C11.8503 39.2884 17.3162 35 28.5 35C39.6838 35 45.1498 39.2884 47.6385 43.2975C50.9936 39.1054 53 33.787 53 28C53 14.469 42.031 3.5 28.5 3.5Z" fill="#3171DB"/>
</svg>
