<svg width="46" height="46" viewBox="0 0 46 46" fill="none" xmlns="http://www.w3.org/2000/svg">
<path d="M10.5049 3.81941C9.78487 2.89367 8.41642 2.80847 7.58714 3.63776L4.61461 6.61028C3.22461 8.00028 2.71363 9.96951 3.32092 11.6968C5.75971 18.6336 9.75244 25.1468 15.3028 30.6972C20.8532 36.2476 27.3664 40.2403 34.3032 42.6791C36.0305 43.2864 37.9997 42.7754 39.3897 41.3854L42.3622 38.4129C43.1915 37.5836 43.1063 36.2151 42.1806 35.4951L35.5503 30.3382C35.0774 29.9704 34.4616 29.8404 33.8804 29.9857L27.5868 31.5591C25.8773 31.9865 24.069 31.4856 22.823 30.2396L15.7604 23.177C14.5144 21.931 14.0135 20.1227 14.4409 18.4132L16.0143 12.1196C16.1596 11.5384 16.0296 10.9226 15.6618 10.4497L10.5049 3.81941ZM5.41872 1.46934C7.5523 -0.664236 11.073 -0.445042 12.9255 1.9367L18.0824 8.567C19.0288 9.78373 19.3632 11.368 18.9893 12.8634L17.4159 19.157C17.2498 19.8214 17.4445 20.5243 17.9288 21.0085L24.9915 28.0712C25.4757 28.5555 26.1786 28.7502 26.843 28.5841L33.1366 27.0107C34.632 26.6368 36.2163 26.9712 37.433 27.9176L44.0633 33.0745C46.445 34.927 46.6642 38.4477 44.5307 40.5813L41.5581 43.5538C39.4314 45.6805 36.2505 46.6143 33.286 45.5721C25.9254 42.9843 19.0164 38.7475 13.1344 32.8656C7.25246 26.9836 3.01573 20.0746 0.427909 12.714C-0.614337 9.74948 0.319499 6.56857 2.44619 4.44187L5.41872 1.46934Z" fill="white"/>
</svg>
