<svg width="34" height="34" viewBox="0 0 34 34" fill="none" xmlns="http://www.w3.org/2000/svg">
<path d="M34 17C34 26.3888 26.3888 34 17 34C7.61116 34 0 26.3888 0 17C0 7.61116 7.61116 0 17 0C26.3888 0 34 7.61116 34 17ZM17.6093 12.5502C15.9558 13.238 12.6511 14.6614 7.69527 16.8206C6.89052 17.1406 6.46895 17.4537 6.43057 17.7598C6.36572 18.2772 7.0136 18.4809 7.89584 18.7583C8.01585 18.7961 8.14019 18.8352 8.26766 18.8766C9.13566 19.1587 10.3033 19.4888 10.9102 19.5019C11.4608 19.5138 12.0754 19.2868 12.7538 18.821C17.3842 15.6953 19.7745 14.1155 19.9245 14.0814C20.0304 14.0574 20.1771 14.0272 20.2765 14.1155C20.3759 14.2039 20.3661 14.3712 20.3556 14.4161C20.2914 14.6897 17.7483 17.054 16.4322 18.2776C16.0219 18.659 15.7309 18.9296 15.6714 18.9914C15.5381 19.1298 15.4023 19.2607 15.2717 19.3866C14.4653 20.1639 13.8606 20.7469 15.3052 21.6988C15.9994 22.1563 16.5549 22.5346 17.1091 22.912C17.7143 23.3242 18.318 23.7353 19.099 24.2472C19.298 24.3777 19.4881 24.5132 19.6732 24.6451C20.3775 25.1473 21.0103 25.5984 21.7921 25.5264C22.2463 25.4846 22.7156 25.0575 22.9539 23.7835C23.5171 20.7728 24.6241 14.2496 24.8799 11.5615C24.9023 11.326 24.8741 11.0245 24.8515 10.8922C24.8288 10.7599 24.7815 10.5714 24.6095 10.4319C24.4058 10.2666 24.0914 10.2317 23.9508 10.2342C23.3114 10.2455 22.3304 10.5866 17.6093 12.5502Z" fill="white"/>
</svg>
