<svg width="27" height="26" viewBox="0 0 27 26" fill="none" xmlns="http://www.w3.org/2000/svg">
<path d="M10.25 14.625C10.25 14.1763 10.6138 13.8125 11.0625 13.8125H15.9375C16.3862 13.8125 16.75 14.1763 16.75 14.625C16.75 15.0737 16.3862 15.4375 15.9375 15.4375H11.0625C10.6138 15.4375 10.25 15.0737 10.25 14.625Z" fill="#0460B4"/>
<path d="M6.76202 6.73798C6.44472 6.42067 5.93028 6.42067 5.61298 6.73798C5.29567 7.05528 5.29567 7.56972 5.61298 7.88702L8.28845 10.5625L5.61298 13.238C5.29567 13.5553 5.29567 14.0697 5.61298 14.387C5.93028 14.7043 6.44472 14.7043 6.76202 14.387L10.012 11.137C10.3293 10.8197 10.3293 10.3053 10.012 9.98798L6.76202 6.73798Z" fill="#0460B4"/>
<path d="M3.75 1.625C1.95507 1.625 0.5 3.08007 0.5 4.875V21.125C0.5 22.9199 1.95507 24.375 3.75 24.375H23.25C25.0449 24.375 26.5 22.9199 26.5 21.125V4.875C26.5 3.08007 25.0449 1.625 23.25 1.625H3.75ZM23.25 3.25C24.1475 3.25 24.875 3.97754 24.875 4.875V21.125C24.875 22.0225 24.1475 22.75 23.25 22.75H3.75C2.85254 22.75 2.125 22.0225 2.125 21.125V4.875C2.125 3.97754 2.85254 3.25 3.75 3.25H23.25Z" fill="#0460B4"/>
</svg>
