<svg width="60" height="30" viewBox="0 0 60 30" fill="none" xmlns="http://www.w3.org/2000/svg">
<path fill-rule="evenodd" clip-rule="evenodd" d="M11.5018 29.2617C12.4133 30.0925 13.7239 30.245 14.4289 29.6025C15.1339 28.96 14.9666 27.7656 14.0551 26.9349L3.36334 17.1912C2.45177 16.3605 1.14121 16.2081 0.436198 16.8506C-0.26881 17.4931 -0.101519 18.6874 0.810055 19.5181L11.5018 29.2617ZM20.5287 29.2617C21.4403 30.0925 22.7509 30.245 23.4559 29.6025C24.1609 28.96 23.9936 27.7656 23.082 26.9349L3.36334 8.96475C2.45177 8.134 1.14121 7.98156 0.436198 8.62406C-0.26881 9.2665 -0.101519 10.4609 0.810055 11.2916L20.5287 29.2617ZM29.5557 29.2617C30.4673 30.0925 31.7778 30.245 32.4829 29.6025C33.1879 28.96 33.0205 27.7656 32.109 26.9349L3.36334 0.738231C2.45177 -0.0925119 1.14121 -0.244976 0.436198 0.397515C-0.26881 1.04001 -0.101519 2.23436 0.810055 3.0651L29.5557 29.2617ZM38.5827 29.2617C39.4943 30.0925 40.8049 30.245 41.5098 29.6025C42.2148 28.96 42.0476 27.7656 41.136 26.9349L12.3903 0.738231C11.4788 -0.0925119 10.1682 -0.244976 9.46318 0.397515C8.75814 1.04001 8.92546 2.23436 9.83704 3.0651L38.5827 29.2617ZM47.6096 29.2617C48.5212 30.0925 49.8318 30.245 50.5368 29.6025C51.2418 28.96 51.0745 27.7656 50.1629 26.9349L21.4173 0.738231C20.5057 -0.0925119 19.1952 -0.244976 18.4901 0.397515C17.7852 1.04001 17.9524 2.23436 18.864 3.0651L47.6096 29.2617ZM56.6367 29.2617C57.5482 30.0925 58.8588 30.245 59.5638 29.6025C60.2688 28.96 60.1015 27.7656 59.19 26.9349L30.4443 0.738231C29.5327 -0.0925119 28.2221 -0.244976 27.5172 0.397515C26.8121 1.04001 26.9794 2.23436 27.891 3.0651L56.6367 29.2617ZM3.36334 25.4178C2.45177 24.5871 1.14121 24.4346 0.436198 25.0771C-0.26881 25.7196 -0.101519 26.9139 0.810055 27.7447L2.47479 29.2617C3.38636 30.0925 4.69693 30.245 5.40193 29.6025C6.10694 28.96 5.93965 27.7656 5.02807 26.9349L3.36334 25.4178Z" fill="#418FE9"/>
</svg>
