<svg width="84" height="80" viewBox="0 0 84 80" fill="none" xmlns="http://www.w3.org/2000/svg">
<path fill-rule="evenodd" clip-rule="evenodd" d="M80.5608 19.7421C80.2645 19.9392 79.909 20.0276 79.5548 19.9925C79.2006 19.9573 78.8695 19.8006 78.6177 19.5491L75.3492 16.2818C75.0739 16.0065 74.9131 15.6371 74.8991 15.248C74.8852 14.8589 75.0191 14.4788 75.2739 14.1845C75.2719 14.1806 75.2709 14.1763 75.2709 14.172C75.2709 14.1677 75.2719 14.1634 75.2739 14.1595C75.9299 13.4405 76.2904 12.5002 76.2832 11.5267C76.276 10.5533 75.9016 9.61844 75.235 8.90915C74.5684 8.19986 73.6586 7.76856 72.6877 7.70124C71.7167 7.63391 70.7562 7.93552 69.9981 8.54602H69.9788L69.8836 8.63961C69.7408 8.78299 69.5711 8.89655 69.3843 8.97418C69.1974 9.05181 68.9971 9.09178 68.7947 9.09178C68.5924 9.09178 68.392 9.05181 68.2052 8.97418C68.0183 8.89655 67.8486 8.78299 67.7058 8.63961L64.451 5.38478C64.1622 5.09593 64 4.70417 64 4.29569C64 3.88721 64.1622 3.49545 64.451 3.20659L64.4852 3.18168C66.6708 1.10294 69.5825 -0.0385725 72.5982 0.000995333C75.6139 0.0405631 78.4946 1.25811 80.625 3.39348C82.7553 5.52884 83.9663 8.41249 83.9993 11.4289C84.0323 14.4453 82.8847 17.3551 80.8017 19.5366L80.7954 19.5491C80.7774 19.5678 80.7581 19.5803 80.7394 19.5989C80.6859 19.6549 80.6355 19.711 80.5808 19.767C80.5745 19.7608 80.5683 19.7483 80.5608 19.7421Z" fill="#2A6DBA"/>
<path fill-rule="evenodd" clip-rule="evenodd" d="M55.0065 42.9842H47.5316V50.3827C47.5316 51.4715 46.6125 52.3543 45.4787 52.3543H41.3729C40.2392 52.3543 39.3194 51.4715 39.3194 50.3827V42.9842H31.8452C30.7436 42.9842 29.851 42.0765 29.851 40.9571V36.9039C29.851 35.7845 30.7436 34.8774 31.8452 34.8774H39.3194V27.4783C39.3194 26.3894 40.2392 25.5074 41.3729 25.5074H45.4787C46.6125 25.5074 47.5316 26.3894 47.5316 27.4783V34.8774H55.0065C56.1074 34.8774 57 35.7845 57 36.9039V40.9571C57 42.0765 56.1074 42.9842 55.0065 42.9842ZM19.8132 5.37483L16.506 8.64769C15.9246 9.22367 14.9979 9.24803 14.3856 8.72328C14.3774 8.72578 14.3704 8.72578 14.3647 8.72078C12.7986 7.28957 10.4414 7.37328 8.96297 8.83635C7.54072 10.2438 7.40563 12.4572 8.68205 14.0027C8.68395 14.0052 8.68268 14.0127 8.67953 14.0221L8.77611 14.117C9.38465 14.7192 9.38402 15.6957 8.77548 16.2985L5.48278 19.557C4.87424 20.1592 3.88694 20.1592 3.27839 19.5576L3.25567 19.5233C-1.07926 14.9741 -1.01613 7.80121 3.4602 3.37076C7.94284 -1.06468 15.2024 -1.11965 19.7987 3.1871L19.8138 3.19397C19.8322 3.21209 19.8479 3.23083 19.865 3.24957C19.9212 3.3033 19.9786 3.3539 20.0335 3.40887C20.0253 3.41637 20.0177 3.42262 20.0089 3.42949C20.4129 4.02858 20.3479 4.84633 19.8132 5.37483ZM3.20453 60.4767L3.22789 60.443C3.83643 59.8408 4.82437 59.8408 5.43354 60.443L8.72814 63.7015C9.33731 64.3043 9.33731 65.2808 8.72877 65.883L8.63218 65.9779C8.63534 65.9873 8.6366 65.9948 8.63471 65.9973C7.35702 67.5434 7.49274 69.7562 8.91562 71.1636C10.3953 72.6273 12.7537 72.7104 14.3205 71.2798C14.3262 71.2742 14.3338 71.2742 14.342 71.2767C14.9543 70.752 15.8817 70.7763 16.4637 71.3523L19.7728 74.6252C20.3075 75.1543 20.3725 75.9708 19.9685 76.5705C19.9767 76.5774 19.9849 76.5842 19.9931 76.5917C19.9382 76.6461 19.8801 76.6973 19.8239 76.7504C19.8069 76.7692 19.7911 76.7885 19.7734 76.806L19.7577 76.8129C15.1595 81.1196 7.89486 81.0647 3.4097 76.6292C-1.06979 72.1988 -1.13291 65.0259 3.20453 60.4767Z" fill="#2A6DBA"/>
<path d="M80.757 60.3324L80.7804 60.3662C85.1178 64.9153 85.0547 72.0882 80.5752 76.5186C76.0901 80.9541 68.8254 81.0091 64.2272 76.7023L64.2115 76.6954C64.1938 76.678 64.178 76.6586 64.161 76.6398C64.1048 76.5867 64.0467 76.5355 63.9918 76.4812C64 76.4737 64.0082 76.4668 64.0164 76.4599C63.6124 75.8602 63.6774 75.0437 64.2121 74.5146L67.5212 71.2417C68.1032 70.6657 69.0306 70.6414 69.6429 71.1661C69.6511 71.1636 69.6587 71.1636 69.6644 71.1693C71.2312 72.5999 73.5896 72.5168 75.0693 71.0531C76.4922 69.6456 76.6279 67.4329 75.3502 65.8867C75.3483 65.8842 75.3496 65.8767 75.3527 65.8674L75.2561 65.7724C74.6476 65.1702 74.6476 64.1938 75.2568 63.5909L78.5514 60.3324C79.1606 59.7302 80.1485 59.7302 80.757 60.3324Z" fill="#2A6DBA"/>
</svg>
