<svg width="23" height="23" viewBox="0 0 23 23" fill="none" xmlns="http://www.w3.org/2000/svg">
<path d="M23 11.5C23 17.8513 17.8513 23 11.5 23C5.14873 23 0 17.8513 0 11.5C0 5.14873 5.14873 0 11.5 0C17.8513 0 23 5.14873 23 11.5ZM11.5 5.03125C11.5 4.6343 11.1782 4.3125 10.7812 4.3125C10.3843 4.3125 10.0625 4.6343 10.0625 5.03125V12.9375C10.0625 13.1954 10.2007 13.4336 10.4247 13.5616L15.4559 16.4366C15.8006 16.6335 16.2396 16.5138 16.4366 16.1691C16.6335 15.8244 16.5138 15.3854 16.1691 15.1884L11.5 12.5204V5.03125Z" fill="white"/>
</svg>
