<svg width="80" height="76" fill="none" xmlns="http://www.w3.org/2000/svg"><path fill-rule="evenodd" clip-rule="evenodd" d="M75.962 18.707a1.461 1.461 0 01-1.842-.183l-3.098-3.096a1.459 1.459 0 01-.071-1.988.027.027 0 010-.024 3.66 3.66 0 00-5-5.318h-.018l-.09.088a1.457 1.457 0 01-2.065 0l-3.084-3.084a1.46 1.46 0 010-2.064l.032-.023A10.95 10.95 0 0176.19 18.512l-.006.012c-.017.017-.035.03-.053.047l-.15.16c-.006-.007-.012-.019-.02-.024z" fill="#E85062"/><path fill-rule="evenodd" clip-rule="evenodd" d="M51.384 40.733h-6.982v6.983c0 1.028-.859 1.861-1.918 1.861h-3.836c-1.059 0-1.918-.833-1.918-1.86v-6.984h-6.982c-1.029 0-1.863-.857-1.863-1.914v-3.826c0-1.057.834-1.913 1.863-1.913h6.982v-6.984c0-1.028.86-1.86 1.919-1.86h3.835c1.059 0 1.918.832 1.918 1.86v6.984h6.982c1.029 0 1.862.856 1.862 1.913v3.826c0 1.057-.833 1.913-1.862 1.913zM18.51 5.23l-3.09 3.09a1.455 1.455 0 01-1.98.07c-.008.003-.015.003-.02-.002-1.463-1.35-3.665-1.272-5.046.11-1.329 1.328-1.455 3.417-.263 4.876.002.002 0 .01-.002.018l.09.09c.569.569.568 1.49 0 2.06l-3.076 3.075a1.457 1.457 0 01-2.06 0l-.02-.032c-4.05-4.294-3.991-11.065.19-15.247C7.42-.848 14.202-.9 18.495 3.166l.014.006c.017.017.032.035.048.053.052.05.106.098.157.15a.358.358 0 01-.023.02 1.456 1.456 0 01-.182 1.836zM2.994 57.245l.021-.032a1.458 1.458 0 012.06 0l3.078 3.076c.57.569.57 1.49.001 2.059l-.09.09c.003.008.004.015.002.018-1.193 1.46-1.067 3.548.263 4.877 1.382 1.381 3.585 1.46 5.048.11.006-.006.013-.006.02-.004a1.456 1.456 0 011.982.072l3.092 3.09c.5.499.56 1.27.183 1.835a.67.67 0 01.023.02c-.052.052-.106.1-.159.15-.015.018-.03.036-.047.053l-.014.006c-4.296 4.066-11.082 4.014-15.272-.173-4.184-4.182-4.243-10.953-.191-15.247z" fill="#2A6DBA"/></svg>