<svg width="32" height="32" viewBox="0 0 32 32" fill="none" xmlns="http://www.w3.org/2000/svg">
<path fill-rule="evenodd" clip-rule="evenodd" d="M29.9998 12.0001H28.9998L28.9548 25.9211C28.9548 26.4631 28.4918 26.9581 27.9898 27.2011L22.7888 29.1451V27.0571L20.7298 28.0571V29.5761L16.8478 31.8341C16.6398 31.9351 16.1598 31.9851 15.9328 31.9851C15.7058 31.9851 15.4378 31.9351 15.2298 31.8341L11.5178 29.5761V28.0571L9.30083 27.0001V29.0001L3.57383 27.2011C3.12083 26.9581 2.99983 26.5421 2.99983 26.0001V12.0001H1.99983C1.18183 12.0001 0.923828 11.4341 0.923828 10.6431C0.923828 9.85311 1.58683 9.14911 2.40483 9.14911H8.70183L12.8758 2.97911C13.1018 1.52211 14.4058 0.516113 15.9758 0.516113C17.5458 0.516113 18.8498 1.56011 19.0758 3.01811L23.2468 9.14911H29.5438C30.3608 9.14911 31.0238 9.85311 31.0238 10.6431C31.0238 11.4341 30.8178 12.0001 29.9998 12.0001ZM15.9758 2.61311C15.3998 2.61311 14.9308 3.06611 14.9308 3.62311C14.9308 4.18011 15.3998 4.63311 15.9758 4.63311C16.5518 4.63311 17.0208 4.18011 17.0208 3.62311C17.0208 3.06611 16.5518 2.61311 15.9758 2.61311ZM18.4758 5.25711C17.9038 5.98911 16.9958 6.57711 15.9758 6.57711C14.9558 6.57711 14.0478 6.02711 13.4748 5.29511L10.8148 9.14911H21.1328L18.4758 5.25711ZM20.8948 15.9131L17.6888 15.4471L16.2548 12.5411C16.0788 12.1851 15.8038 11.9801 15.4998 11.9801C15.1958 11.9801 14.9208 12.1851 14.7448 12.5411L13.3118 15.4471L10.1048 15.9131C9.71183 15.9701 9.43183 16.1681 9.33883 16.4571C9.24483 16.7461 9.35383 17.0701 9.63883 17.3481L11.9588 19.6101L11.4108 22.8031C11.3408 23.2121 11.4608 23.4561 11.5728 23.5901C11.7048 23.7461 11.8968 23.8331 12.1148 23.8331C12.2788 23.8331 12.4528 23.7851 12.6318 23.6901L15.4998 22.1831L18.3678 23.6901C18.5478 23.7851 18.7218 23.8331 18.8848 23.8331C19.1028 23.8331 19.2948 23.7461 19.4268 23.5901C19.5388 23.4571 19.6588 23.2121 19.5888 22.8031L19.0408 19.6101L21.3608 17.3481C21.6458 17.0701 21.7548 16.7461 21.6608 16.4571C21.5678 16.1681 21.2878 15.9701 20.8948 15.9131Z" fill="#9AA3AE"/>
</svg>
