<svg width="28" height="28" viewBox="0 0 28 28" fill="none" xmlns="http://www.w3.org/2000/svg">
<path fill-rule="evenodd" clip-rule="evenodd" d="M14 28C6.268 28 0 21.732 0 14C0 6.268 6.268 0 14 0C21.732 0 28 6.268 28 14C28 21.732 21.732 28 14 28ZM14 3.984C8.469 3.984 3.984 8.469 3.984 14C3.984 19.531 8.469 24.016 14 24.016C19.531 24.016 24.016 19.531 24.016 14C24.016 8.469 19.531 3.984 14 3.984ZM14.016 22.031C9.589 22.031 6 18.443 6 14.016C6 9.589 9.589 6 14.016 6C18.443 6 22.031 9.589 22.031 14.016C22.031 18.443 18.443 22.031 14.016 22.031ZM14 9.971C11.775 9.971 9.971 11.775 9.971 14C9.971 16.225 11.775 18.029 14 18.029C16.225 18.029 18.029 16.225 18.029 14C18.029 11.775 16.225 9.971 14 9.971ZM14.016 16.047C12.894 16.047 11.984 15.137 11.984 14.016C11.984 12.894 12.894 11.984 14.016 11.984C15.137 11.984 16.047 12.894 16.047 14.016C16.047 15.137 15.137 16.047 14.016 16.047Z" fill="#9AA3AE"/>
</svg>
