<svg width="96" height="30" viewBox="0 0 96 30" fill="none" xmlns="http://www.w3.org/2000/svg">
<path opacity="0.1" fill-rule="evenodd" clip-rule="evenodd" d="M21.3283 19.2684C21.2649 18.9465 21.0925 18.6566 20.8405 18.4483C20.5884 18.2399 20.2723 18.1258 19.9461 18.1255H15.7162C15.3595 18.1263 15.0164 18.263 14.7558 18.5079C14.4952 18.7529 14.3365 19.088 14.3116 19.4458C14.3085 19.4472 14.3059 19.4492 14.3038 19.4518C14.3017 19.4543 14.3003 19.4574 14.2996 19.4606C14.2698 20.3801 13.8843 21.2516 13.2252 21.8896C12.566 22.5276 11.6853 22.8817 10.7705 22.8766C9.8939 22.8817 9.04702 22.5571 8.39614 21.9665C7.74526 21.3759 7.3374 20.562 7.25262 19.6845C7.25114 19.6819 7.24915 19.6796 7.24677 19.6778C7.24438 19.676 7.24166 19.6747 7.23875 19.674V19.5493C7.23948 19.1725 7.09135 18.8108 6.82695 18.5438C6.56255 18.2768 6.20352 18.1263 5.82881 18.1255H1.61748C1.2428 18.1264 0.883801 18.2769 0.61941 18.5439C0.355019 18.8109 0.206874 19.1725 0.207544 19.5493L0.214897 19.5852C0.382947 25.3567 5.05789 30 10.7836 30C16.5166 30 21.1951 25.3461 21.3497 19.5641L21.3552 19.5493C21.3552 19.5261 21.3528 19.5028 21.3518 19.4796C21.3533 19.4078 21.357 19.3381 21.357 19.2662C21.3476 19.2662 21.3384 19.2684 21.3283 19.2684ZM21.1209 10.7338C21.0572 11.0555 20.8847 11.3451 20.6327 11.5534C20.3808 11.7617 20.0649 11.8759 19.7387 11.8766H15.5089C15.1522 11.8758 14.809 11.7392 14.5484 11.4942C14.2877 11.2493 14.129 10.9142 14.104 10.5563C14.1007 10.5547 14.0979 10.5524 14.0958 10.5494C14.0937 10.5465 14.0924 10.543 14.092 10.5394C14.0618 9.62019 13.6761 8.74919 13.017 8.11162C12.3579 7.47405 11.4775 7.12026 10.563 7.12555C9.68625 7.12003 8.83916 7.44448 8.1882 8.03513C7.53724 8.62579 7.12948 9.43997 7.04508 10.3176C7.04146 10.3223 7.03668 10.3259 7.03121 10.3281V10.4528C7.03188 10.8296 6.88374 11.1912 6.61935 11.4582C6.35495 11.7252 5.99596 11.8757 5.62127 11.8766H1.40994C1.03526 11.8757 0.67626 11.7252 0.411869 11.4582C0.147478 11.1912 -0.000667086 10.8296 2.25833e-06 10.4528L0.00735521 10.4148C0.175405 4.64335 4.85034 0 10.576 0C16.309 0 20.9875 4.65599 21.1434 10.438L21.1489 10.4528C21.1489 10.476 21.1466 10.4993 21.1453 10.5225C21.1468 10.5922 21.1508 10.6641 21.1508 10.7359C21.1409 10.7341 21.1309 10.7334 21.1209 10.7338ZM46.2089 27.8156C46.1456 28.1375 45.9732 28.4274 45.7211 28.6358C45.4691 28.8442 45.153 28.9583 44.8267 28.9585H40.5971C40.2403 28.9578 39.8971 28.8211 39.6365 28.5762C39.3758 28.3312 39.2171 27.9961 39.1922 27.6382C39.1889 27.6367 39.1861 27.6343 39.184 27.6313C39.1819 27.6284 39.1806 27.6249 39.1802 27.6213C39.1452 26.7227 38.7727 25.8709 38.1379 25.2375C37.5031 24.6042 36.6532 24.2364 35.7594 24.2082C34.8656 24.1801 33.9945 24.4938 33.3215 25.086C32.6486 25.6782 32.2239 26.5048 32.133 27.3995C32.1316 27.4021 32.1296 27.4044 32.1272 27.4062C32.1248 27.408 32.1221 27.4093 32.1192 27.41V27.5347C32.1199 27.9115 31.9718 28.2732 31.7074 28.5402C31.443 28.8072 31.0839 28.9577 30.7092 28.9585H26.4979C26.1232 28.9577 25.7642 28.8072 25.4998 28.5402C25.2354 28.2732 25.0872 27.9115 25.088 27.5347L25.0953 27.4988C25.2634 21.7252 29.9383 17.084 35.6638 17.084C41.3968 17.084 46.0753 21.7379 46.2299 27.5199L46.2356 27.5347C46.2356 27.5579 46.2333 27.5811 46.232 27.6044C46.2335 27.6762 46.2373 27.7459 46.2373 27.8177C46.2279 27.8161 46.2184 27.8153 46.2089 27.8156ZM46.0018 2.18649C45.9384 1.86458 45.7659 1.57473 45.5139 1.36633C45.2618 1.15794 44.9457 1.04387 44.6194 1.04358H40.3898C40.033 1.04441 39.6898 1.18106 39.4292 1.42601C39.1686 1.67096 39.0098 2.00603 38.9849 2.36391C38.9818 2.36525 38.9792 2.36732 38.9771 2.36989C38.975 2.37246 38.9736 2.37547 38.9729 2.37871C38.9382 3.27739 38.5661 4.12944 37.9314 4.76309C37.2968 5.39674 36.4469 5.76485 35.5531 5.79326C34.6592 5.82166 33.7879 5.50821 33.1148 4.91611C32.4416 4.32402 32.0167 3.49733 31.9257 2.60265C31.9242 2.60004 31.9222 2.59776 31.9198 2.59594C31.9175 2.59413 31.9147 2.59281 31.9118 2.59207V2.46742C31.9124 2.28079 31.8763 2.0959 31.8057 1.9233C31.7351 1.7507 31.6314 1.59379 31.5004 1.46154C31.3695 1.3293 31.2139 1.22432 31.0425 1.15261C30.8712 1.08089 30.6875 1.04383 30.5019 1.04358H26.2906C26.105 1.04383 25.9213 1.08089 25.75 1.15261C25.5786 1.22432 25.423 1.3293 25.2921 1.46154C25.1611 1.59379 25.0574 1.7507 24.9868 1.9233C24.9162 2.0959 24.8801 2.28079 24.8806 2.46742L24.888 2.50337C25.056 8.27479 29.731 12.9181 35.4564 12.9181C41.1895 12.9181 45.868 8.2642 46.0238 2.4801L46.0293 2.46742C46.0293 2.44418 46.027 2.42098 46.0257 2.39774C46.0272 2.32591 46.0312 2.2562 46.0312 2.18437C46.0209 2.18437 46.0117 2.18649 46.0018 2.18649ZM95.9706 27.8156C95.9073 28.1375 95.7349 28.4274 95.4828 28.6358C95.2308 28.8442 94.9147 28.9583 94.5884 28.9585H90.3588C90.002 28.9578 89.6588 28.8211 89.3982 28.5762C89.1375 28.3312 88.9788 27.9961 88.9539 27.6382C88.9506 27.6367 88.9478 27.6343 88.9457 27.6313C88.9436 27.6284 88.9423 27.6249 88.9419 27.6213C88.9069 26.7227 88.5344 25.8709 87.8996 25.2375C87.2648 24.6042 86.4149 24.2364 85.5211 24.2082C84.6273 24.1801 83.7562 24.4938 83.0832 25.086C82.4103 25.6782 81.9856 26.5048 81.8947 27.3995C81.8933 27.4021 81.8913 27.4045 81.8889 27.4063C81.8865 27.4081 81.8838 27.4094 81.8809 27.41V27.5347C81.8815 27.9115 81.7334 28.2732 81.469 28.5402C81.2046 28.8072 80.8456 28.9576 80.4709 28.9585H76.2596C75.8849 28.9576 75.5259 28.8072 75.2615 28.5402C74.9971 28.2732 74.849 27.9115 74.8497 27.5347L74.857 27.4988C75.0251 21.7252 79.7 17.084 85.4255 17.084C91.1585 17.084 95.837 21.7379 95.9926 27.5199L95.9983 27.5347C95.9983 27.5579 95.996 27.5811 95.9948 27.6044C95.9962 27.6762 96 27.7459 96 27.8177C95.9903 27.816 95.9804 27.8153 95.9706 27.8156ZM95.7635 2.18649C95.7001 1.86458 95.5276 1.57473 95.2756 1.36633C95.0235 1.15794 94.7074 1.04387 94.3811 1.04358H90.1514C89.7947 1.04436 89.4515 1.181 89.1908 1.42596C88.9302 1.67091 88.7714 2.00601 88.7465 2.36391C88.7435 2.36525 88.7409 2.36732 88.7388 2.36989C88.7367 2.37246 88.7353 2.37547 88.7346 2.37871C88.6999 3.27739 88.3277 4.12944 87.6931 4.76309C87.0585 5.39674 86.2086 5.76485 85.3147 5.79326C84.4209 5.82166 83.5496 5.50821 82.8764 4.91611C82.2033 4.32402 81.7784 3.49733 81.6874 2.60265C81.686 2.59999 81.684 2.59766 81.6816 2.59584C81.6792 2.59402 81.6765 2.59274 81.6735 2.59207V2.46742C81.6741 2.28079 81.638 2.0959 81.5674 1.9233C81.4968 1.7507 81.3931 1.59379 81.2621 1.46154C81.1311 1.3293 80.9755 1.22432 80.8042 1.15261C80.6329 1.08089 80.4492 1.04383 80.2636 1.04358H76.0521C75.8665 1.04385 75.6828 1.08093 75.5115 1.15266C75.3402 1.22439 75.1846 1.32935 75.0537 1.46159C74.9228 1.59384 74.819 1.75076 74.7484 1.92335C74.6779 2.09594 74.6418 2.2808 74.6423 2.46742L74.6497 2.50337C74.8177 8.27479 79.4927 12.9181 85.2181 12.9181C90.9511 12.9181 95.6297 8.2642 95.7855 2.4801L95.791 2.46742C95.791 2.44418 95.7887 2.42098 95.7874 2.39774C95.7889 2.32591 95.7929 2.2562 95.7929 2.18437C95.7826 2.18437 95.7736 2.18649 95.7635 2.18649ZM71.09 19.2684C71.0265 18.9464 70.8541 18.6566 70.602 18.4483C70.35 18.2399 70.0339 18.1258 69.7075 18.1255H65.4779C65.1212 18.1263 64.778 18.2629 64.5173 18.5078C64.2567 18.7528 64.0979 19.0879 64.073 19.4458C64.07 19.4471 64.0673 19.4491 64.0653 19.4517C64.0632 19.4543 64.0618 19.4574 64.0613 19.4606C64.0262 20.3591 63.6539 21.2108 63.0193 21.8442C62.3847 22.4776 61.5349 22.8455 60.6413 22.8739C59.7477 22.9023 58.8765 22.589 58.2034 21.9972C57.5303 21.4053 57.1052 20.579 57.0139 19.6845C57.0125 19.6819 57.0105 19.6796 57.0081 19.6778C57.0057 19.6759 57.003 19.6747 57 19.674V19.5493C57.0007 19.1725 56.8525 18.8109 56.5882 18.5439C56.3238 18.2769 55.9648 18.1264 55.5901 18.1255H51.3788C51.0041 18.1264 50.6451 18.2769 50.3807 18.5439C50.1163 18.8109 49.9681 19.1725 49.9688 19.5493L49.9762 19.5852C50.1442 25.3567 54.8192 30 60.5448 30C66.2776 30 70.9561 25.3461 71.111 19.5641L71.1164 19.5493C71.1164 19.5261 71.1141 19.5028 71.1131 19.4796C71.1143 19.4078 71.1183 19.3381 71.1183 19.2662C71.1091 19.2662 71.1 19.2684 71.09 19.2684ZM70.8826 10.7338C70.8189 11.0555 70.6464 11.3451 70.3944 11.5534C70.1425 11.7617 69.8266 11.8759 69.5004 11.8766H65.2706C64.9139 11.8758 64.5707 11.7392 64.31 11.4942C64.0494 11.2493 63.8907 10.9142 63.8657 10.5563C63.8624 10.5547 63.8596 10.5524 63.8575 10.5494C63.8554 10.5465 63.8541 10.543 63.8537 10.5394C63.8187 9.64079 63.4462 8.78903 62.8114 8.15567C62.1766 7.5223 61.3267 7.15446 60.4329 7.12632C59.5391 7.09819 58.668 7.41183 57.9951 8.00403C57.3221 8.59623 56.8974 9.42298 56.8066 10.3176C56.803 10.3223 56.7982 10.326 56.7927 10.3281V10.4528C56.7934 10.8296 56.6452 11.1912 56.3808 11.4582C56.1164 11.7252 55.7574 11.8757 55.3828 11.8766H51.1712C50.7965 11.8757 50.4375 11.7252 50.1731 11.4582C49.9087 11.1912 49.7606 10.8296 49.7613 10.4528L49.7686 10.4148C49.9367 4.64335 54.6116 0 60.3371 0C66.0701 0 70.7488 4.65599 70.9045 10.438L70.9099 10.4528C70.9099 10.476 70.9076 10.4993 70.9064 10.5225C70.9078 10.5922 70.9118 10.6641 70.9118 10.7359C70.9022 10.7341 70.8924 10.7334 70.8826 10.7338Z" fill="#334457"/>
</svg>
